<?xml version="1.0" encoding="utf-8" standalone="no"?>
<!DOCTYPE svg PUBLIC "-//W3C//DTD SVG 1.1//EN"
  "http://www.w3.org/Graphics/SVG/1.1/DTD/svg11.dtd">
<svg xmlns:xlink="http://www.w3.org/1999/xlink" width="712.433125pt" height="421.691389pt" viewBox="0 0 712.433125 421.691389" xmlns="http://www.w3.org/2000/svg" version="1.1">
 <metadata>
  <rdf:RDF xmlns:dc="http://purl.org/dc/elements/1.1/" xmlns:cc="http://creativecommons.org/ns#" xmlns:rdf="http://www.w3.org/1999/02/22-rdf-syntax-ns#">
   <cc:Work>
    <dc:type rdf:resource="http://purl.org/dc/dcmitype/StillImage"/>
    <dc:date>2026-03-21T21:51:59.567011</dc:date>
    <dc:format>image/svg+xml</dc:format>
    <dc:creator>
     <cc:Agent>
      <dc:title>Matplotlib v3.10.8, https://matplotlib.org/</dc:title>
     </cc:Agent>
    </dc:creator>
   </cc:Work>
  </rdf:RDF>
 </metadata>
 <defs>
  <style type="text/css">*{stroke-linejoin: round; stroke-linecap: butt}</style>
 </defs>
 <g id="figure_1">
  <g id="patch_1">
   <path d="M 0 421.691389 
L 712.433125 421.691389 
L 712.433125 0 
L 0 0 
z
" style="fill: #ffffff"/>
  </g>
  <g id="axes_1">
   <g id="patch_2">
    <path d="M 40.603125 340.696547 
L 705.233125 340.696547 
L 705.233125 35.7555 
L 40.603125 35.7555 
z
" style="fill: #ffffff"/>
   </g>
   <g id="patch_3">
    <path d="M 70.81358 340.696547 
L 104.777996 340.696547 
L 104.777996 102.126202 
L 70.81358 102.126202 
z
" clip-path="url(#p050ad6a48a)" style="fill: #4f81bd; stroke: #385d8a; stroke-width: 0.7; stroke-linejoin: miter"/>
   </g>
   <g id="patch_4">
    <path d="M 160.193623 340.696547 
L 194.158039 340.696547 
L 194.158039 100.583056 
L 160.193623 100.583056 
z
" clip-path="url(#p050ad6a48a)" style="fill: #4f81bd; stroke: #385d8a; stroke-width: 0.7; stroke-linejoin: miter"/>
   </g>
   <g id="patch_5">
    <path d="M 249.573666 340.696547 
L 283.538082 340.696547 
L 283.538082 134.840894 
L 249.573666 134.840894 
z
" clip-path="url(#p050ad6a48a)" style="fill: #4f81bd; stroke: #385d8a; stroke-width: 0.7; stroke-linejoin: miter"/>
   </g>
   <g id="patch_6">
    <path d="M 338.953709 340.696547 
L 372.918125 340.696547 
L 372.918125 91.015552 
L 338.953709 91.015552 
z
" clip-path="url(#p050ad6a48a)" style="fill: #4f81bd; stroke: #385d8a; stroke-width: 0.7; stroke-linejoin: miter"/>
   </g>
   <g id="patch_7">
    <path d="M 428.333752 340.696547 
L 462.298168 340.696547 
L 462.298168 95.953619 
L 428.333752 95.953619 
z
" clip-path="url(#p050ad6a48a)" style="fill: #4f81bd; stroke: #385d8a; stroke-width: 0.7; stroke-linejoin: miter"/>
   </g>
   <g id="patch_8">
    <path d="M 517.713795 340.696547 
L 551.678211 340.696547 
L 551.678211 132.680489 
L 517.713795 132.680489 
z
" clip-path="url(#p050ad6a48a)" style="fill: #4f81bd; stroke: #385d8a; stroke-width: 0.7; stroke-linejoin: miter"/>
   </g>
   <g id="patch_9">
    <path d="M 607.093838 340.696547 
L 641.058254 340.696547 
L 641.058254 124.347502 
L 607.093838 124.347502 
z
" clip-path="url(#p050ad6a48a)" style="fill: #4f81bd; stroke: #385d8a; stroke-width: 0.7; stroke-linejoin: miter"/>
   </g>
   <g id="patch_10">
    <path d="M 104.777996 340.696547 
L 138.742412 340.696547 
L 138.742412 70.337398 
L 104.777996 70.337398 
z
" clip-path="url(#p050ad6a48a)" style="fill: #c0504d; stroke: #963634; stroke-width: 0.7; stroke-linejoin: miter"/>
   </g>
   <g id="patch_11">
    <path d="M 194.158039 340.696547 
L 228.122455 340.696547 
L 228.122455 76.81861 
L 194.158039 76.81861 
z
" clip-path="url(#p050ad6a48a)" style="fill: #c0504d; stroke: #963634; stroke-width: 0.7; stroke-linejoin: miter"/>
   </g>
   <g id="patch_12">
    <path d="M 283.538082 340.696547 
L 317.502498 340.696547 
L 317.502498 50.276502 
L 283.538082 50.276502 
z
" clip-path="url(#p050ad6a48a)" style="fill: #c0504d; stroke: #963634; stroke-width: 0.7; stroke-linejoin: miter"/>
   </g>
   <g id="patch_13">
    <path d="M 372.918125 340.696547 
L 406.882541 340.696547 
L 406.882541 96.879506 
L 372.918125 96.879506 
z
" clip-path="url(#p050ad6a48a)" style="fill: #c0504d; stroke: #963634; stroke-width: 0.7; stroke-linejoin: miter"/>
   </g>
   <g id="patch_14">
    <path d="M 462.298168 340.696547 
L 496.262584 340.696547 
L 496.262584 96.570877 
L 462.298168 96.570877 
z
" clip-path="url(#p050ad6a48a)" style="fill: #c0504d; stroke: #963634; stroke-width: 0.7; stroke-linejoin: miter"/>
   </g>
   <g id="patch_15">
    <path d="M 551.678211 340.696547 
L 585.642627 340.696547 
L 585.642627 60.152636 
L 551.678211 60.152636 
z
" clip-path="url(#p050ad6a48a)" style="fill: #c0504d; stroke: #963634; stroke-width: 0.7; stroke-linejoin: miter"/>
   </g>
   <g id="patch_16">
    <path d="M 641.058254 340.696547 
L 675.02267 340.696547 
L 675.02267 73.11506 
L 641.058254 73.11506 
z
" clip-path="url(#p050ad6a48a)" style="fill: #c0504d; stroke: #963634; stroke-width: 0.7; stroke-linejoin: miter"/>
   </g>
   <g id="matplotlib.axis_1">
    <g id="xtick_1">
     <g id="line2d_1">
      <defs>
       <path id="md45ad3945a" d="M 0 0 
L 0 3.5 
" style="stroke: #000000; stroke-width: 0.8"/>
      </defs>
      <g>
       <use xlink:href="#md45ad3945a" x="104.777996" y="340.696547" style="stroke: #000000; stroke-width: 0.8"/>
      </g>
     </g>
     <g id="text_1">
      <!-- McDowell, WV -->
      <g transform="translate(45.493177 394.59725) rotate(-35) scale(0.1 -0.1)">
       <defs>
        <path id="DejaVuSans-4d" d="M 628 4666 
L 1569 4666 
L 2759 1491 
L 3956 4666 
L 4897 4666 
L 4897 0 
L 4281 0 
L 4281 4097 
L 3078 897 
L 2444 897 
L 1241 4097 
L 1241 0 
L 628 0 
L 628 4666 
z
" transform="scale(0.015625)"/>
        <path id="DejaVuSans-63" d="M 3122 3366 
L 3122 2828 
Q 2878 2963 2633 3030 
Q 2388 3097 2138 3097 
Q 1578 3097 1268 2742 
Q 959 2388 959 1747 
Q 959 1106 1268 751 
Q 1578 397 2138 397 
Q 2388 397 2633 464 
Q 2878 531 3122 666 
L 3122 134 
Q 2881 22 2623 -34 
Q 2366 -91 2075 -91 
Q 1284 -91 818 406 
Q 353 903 353 1747 
Q 353 2603 823 3093 
Q 1294 3584 2113 3584 
Q 2378 3584 2631 3529 
Q 2884 3475 3122 3366 
z
" transform="scale(0.015625)"/>
        <path id="DejaVuSans-44" d="M 1259 4147 
L 1259 519 
L 2022 519 
Q 2988 519 3436 956 
Q 3884 1394 3884 2338 
Q 3884 3275 3436 3711 
Q 2988 4147 2022 4147 
L 1259 4147 
z
M 628 4666 
L 1925 4666 
Q 3281 4666 3915 4102 
Q 4550 3538 4550 2338 
Q 4550 1131 3912 565 
Q 3275 0 1925 0 
L 628 0 
L 628 4666 
z
" transform="scale(0.015625)"/>
        <path id="DejaVuSans-6f" d="M 1959 3097 
Q 1497 3097 1228 2736 
Q 959 2375 959 1747 
Q 959 1119 1226 758 
Q 1494 397 1959 397 
Q 2419 397 2687 759 
Q 2956 1122 2956 1747 
Q 2956 2369 2687 2733 
Q 2419 3097 1959 3097 
z
M 1959 3584 
Q 2709 3584 3137 3096 
Q 3566 2609 3566 1747 
Q 3566 888 3137 398 
Q 2709 -91 1959 -91 
Q 1206 -91 779 398 
Q 353 888 353 1747 
Q 353 2609 779 3096 
Q 1206 3584 1959 3584 
z
" transform="scale(0.015625)"/>
        <path id="DejaVuSans-77" d="M 269 3500 
L 844 3500 
L 1563 769 
L 2278 3500 
L 2956 3500 
L 3675 769 
L 4391 3500 
L 4966 3500 
L 4050 0 
L 3372 0 
L 2619 2869 
L 1863 0 
L 1184 0 
L 269 3500 
z
" transform="scale(0.015625)"/>
        <path id="DejaVuSans-65" d="M 3597 1894 
L 3597 1613 
L 953 1613 
Q 991 1019 1311 708 
Q 1631 397 2203 397 
Q 2534 397 2845 478 
Q 3156 559 3463 722 
L 3463 178 
Q 3153 47 2828 -22 
Q 2503 -91 2169 -91 
Q 1331 -91 842 396 
Q 353 884 353 1716 
Q 353 2575 817 3079 
Q 1281 3584 2069 3584 
Q 2775 3584 3186 3129 
Q 3597 2675 3597 1894 
z
M 3022 2063 
Q 3016 2534 2758 2815 
Q 2500 3097 2075 3097 
Q 1594 3097 1305 2825 
Q 1016 2553 972 2059 
L 3022 2063 
z
" transform="scale(0.015625)"/>
        <path id="DejaVuSans-6c" d="M 603 4863 
L 1178 4863 
L 1178 0 
L 603 0 
L 603 4863 
z
" transform="scale(0.015625)"/>
        <path id="DejaVuSans-2c" d="M 750 794 
L 1409 794 
L 1409 256 
L 897 -744 
L 494 -744 
L 750 256 
L 750 794 
z
" transform="scale(0.015625)"/>
        <path id="DejaVuSans-20" transform="scale(0.015625)"/>
        <path id="DejaVuSans-57" d="M 213 4666 
L 850 4666 
L 1831 722 
L 2809 4666 
L 3519 4666 
L 4500 722 
L 5478 4666 
L 6119 4666 
L 4947 0 
L 4153 0 
L 3169 4050 
L 2175 0 
L 1381 0 
L 213 4666 
z
" transform="scale(0.015625)"/>
        <path id="DejaVuSans-56" d="M 1831 0 
L 50 4666 
L 709 4666 
L 2188 738 
L 3669 4666 
L 4325 4666 
L 2547 0 
L 1831 0 
z
" transform="scale(0.015625)"/>
       </defs>
       <use xlink:href="#DejaVuSans-4d"/>
       <use xlink:href="#DejaVuSans-63" transform="translate(86.279297 0)"/>
       <use xlink:href="#DejaVuSans-44" transform="translate(141.259766 0)"/>
       <use xlink:href="#DejaVuSans-6f" transform="translate(218.261719 0)"/>
       <use xlink:href="#DejaVuSans-77" transform="translate(279.443359 0)"/>
       <use xlink:href="#DejaVuSans-65" transform="translate(361.230469 0)"/>
       <use xlink:href="#DejaVuSans-6c" transform="translate(422.753906 0)"/>
       <use xlink:href="#DejaVuSans-6c" transform="translate(450.537109 0)"/>
       <use xlink:href="#DejaVuSans-2c" transform="translate(478.320312 0)"/>
       <use xlink:href="#DejaVuSans-20" transform="translate(510.107422 0)"/>
       <use xlink:href="#DejaVuSans-57" transform="translate(541.894531 0)"/>
       <use xlink:href="#DejaVuSans-56" transform="translate(640.771484 0)"/>
      </g>
     </g>
    </g>
    <g id="xtick_2">
     <g id="line2d_2">
      <g>
       <use xlink:href="#md45ad3945a" x="194.158039" y="340.696547" style="stroke: #000000; stroke-width: 0.8"/>
      </g>
     </g>
     <g id="text_2">
      <!-- Mingo, WV -->
      <g transform="translate(149.308215 384.489758) rotate(-35) scale(0.1 -0.1)">
       <defs>
        <path id="DejaVuSans-69" d="M 603 3500 
L 1178 3500 
L 1178 0 
L 603 0 
L 603 3500 
z
M 603 4863 
L 1178 4863 
L 1178 4134 
L 603 4134 
L 603 4863 
z
" transform="scale(0.015625)"/>
        <path id="DejaVuSans-6e" d="M 3513 2113 
L 3513 0 
L 2938 0 
L 2938 2094 
Q 2938 2591 2744 2837 
Q 2550 3084 2163 3084 
Q 1697 3084 1428 2787 
Q 1159 2491 1159 1978 
L 1159 0 
L 581 0 
L 581 3500 
L 1159 3500 
L 1159 2956 
Q 1366 3272 1645 3428 
Q 1925 3584 2291 3584 
Q 2894 3584 3203 3211 
Q 3513 2838 3513 2113 
z
" transform="scale(0.015625)"/>
        <path id="DejaVuSans-67" d="M 2906 1791 
Q 2906 2416 2648 2759 
Q 2391 3103 1925 3103 
Q 1463 3103 1205 2759 
Q 947 2416 947 1791 
Q 947 1169 1205 825 
Q 1463 481 1925 481 
Q 2391 481 2648 825 
Q 2906 1169 2906 1791 
z
M 3481 434 
Q 3481 -459 3084 -895 
Q 2688 -1331 1869 -1331 
Q 1566 -1331 1297 -1286 
Q 1028 -1241 775 -1147 
L 775 -588 
Q 1028 -725 1275 -790 
Q 1522 -856 1778 -856 
Q 2344 -856 2625 -561 
Q 2906 -266 2906 331 
L 2906 616 
Q 2728 306 2450 153 
Q 2172 0 1784 0 
Q 1141 0 747 490 
Q 353 981 353 1791 
Q 353 2603 747 3093 
Q 1141 3584 1784 3584 
Q 2172 3584 2450 3431 
Q 2728 3278 2906 2969 
L 2906 3500 
L 3481 3500 
L 3481 434 
z
" transform="scale(0.015625)"/>
       </defs>
       <use xlink:href="#DejaVuSans-4d"/>
       <use xlink:href="#DejaVuSans-69" transform="translate(86.279297 0)"/>
       <use xlink:href="#DejaVuSans-6e" transform="translate(114.0625 0)"/>
       <use xlink:href="#DejaVuSans-67" transform="translate(177.441406 0)"/>
       <use xlink:href="#DejaVuSans-6f" transform="translate(240.917969 0)"/>
       <use xlink:href="#DejaVuSans-2c" transform="translate(302.099609 0)"/>
       <use xlink:href="#DejaVuSans-20" transform="translate(333.886719 0)"/>
       <use xlink:href="#DejaVuSans-57" transform="translate(365.673828 0)"/>
       <use xlink:href="#DejaVuSans-56" transform="translate(464.550781 0)"/>
      </g>
     </g>
    </g>
    <g id="xtick_3">
     <g id="line2d_3">
      <g>
       <use xlink:href="#md45ad3945a" x="283.538082" y="340.696547" style="stroke: #000000; stroke-width: 0.8"/>
      </g>
     </g>
     <g id="text_3">
      <!-- Humphreys, MS -->
      <g transform="translate(217.80884 399.109683) rotate(-35) scale(0.1 -0.1)">
       <defs>
        <path id="DejaVuSans-48" d="M 628 4666 
L 1259 4666 
L 1259 2753 
L 3553 2753 
L 3553 4666 
L 4184 4666 
L 4184 0 
L 3553 0 
L 3553 2222 
L 1259 2222 
L 1259 0 
L 628 0 
L 628 4666 
z
" transform="scale(0.015625)"/>
        <path id="DejaVuSans-75" d="M 544 1381 
L 544 3500 
L 1119 3500 
L 1119 1403 
Q 1119 906 1312 657 
Q 1506 409 1894 409 
Q 2359 409 2629 706 
Q 2900 1003 2900 1516 
L 2900 3500 
L 3475 3500 
L 3475 0 
L 2900 0 
L 2900 538 
Q 2691 219 2414 64 
Q 2138 -91 1772 -91 
Q 1169 -91 856 284 
Q 544 659 544 1381 
z
M 1991 3584 
L 1991 3584 
z
" transform="scale(0.015625)"/>
        <path id="DejaVuSans-6d" d="M 3328 2828 
Q 3544 3216 3844 3400 
Q 4144 3584 4550 3584 
Q 5097 3584 5394 3201 
Q 5691 2819 5691 2113 
L 5691 0 
L 5113 0 
L 5113 2094 
Q 5113 2597 4934 2840 
Q 4756 3084 4391 3084 
Q 3944 3084 3684 2787 
Q 3425 2491 3425 1978 
L 3425 0 
L 2847 0 
L 2847 2094 
Q 2847 2600 2669 2842 
Q 2491 3084 2119 3084 
Q 1678 3084 1418 2786 
Q 1159 2488 1159 1978 
L 1159 0 
L 581 0 
L 581 3500 
L 1159 3500 
L 1159 2956 
Q 1356 3278 1631 3431 
Q 1906 3584 2284 3584 
Q 2666 3584 2933 3390 
Q 3200 3197 3328 2828 
z
" transform="scale(0.015625)"/>
        <path id="DejaVuSans-70" d="M 1159 525 
L 1159 -1331 
L 581 -1331 
L 581 3500 
L 1159 3500 
L 1159 2969 
Q 1341 3281 1617 3432 
Q 1894 3584 2278 3584 
Q 2916 3584 3314 3078 
Q 3713 2572 3713 1747 
Q 3713 922 3314 415 
Q 2916 -91 2278 -91 
Q 1894 -91 1617 61 
Q 1341 213 1159 525 
z
M 3116 1747 
Q 3116 2381 2855 2742 
Q 2594 3103 2138 3103 
Q 1681 3103 1420 2742 
Q 1159 2381 1159 1747 
Q 1159 1113 1420 752 
Q 1681 391 2138 391 
Q 2594 391 2855 752 
Q 3116 1113 3116 1747 
z
" transform="scale(0.015625)"/>
        <path id="DejaVuSans-68" d="M 3513 2113 
L 3513 0 
L 2938 0 
L 2938 2094 
Q 2938 2591 2744 2837 
Q 2550 3084 2163 3084 
Q 1697 3084 1428 2787 
Q 1159 2491 1159 1978 
L 1159 0 
L 581 0 
L 581 4863 
L 1159 4863 
L 1159 2956 
Q 1366 3272 1645 3428 
Q 1925 3584 2291 3584 
Q 2894 3584 3203 3211 
Q 3513 2838 3513 2113 
z
" transform="scale(0.015625)"/>
        <path id="DejaVuSans-72" d="M 2631 2963 
Q 2534 3019 2420 3045 
Q 2306 3072 2169 3072 
Q 1681 3072 1420 2755 
Q 1159 2438 1159 1844 
L 1159 0 
L 581 0 
L 581 3500 
L 1159 3500 
L 1159 2956 
Q 1341 3275 1631 3429 
Q 1922 3584 2338 3584 
Q 2397 3584 2469 3576 
Q 2541 3569 2628 3553 
L 2631 2963 
z
" transform="scale(0.015625)"/>
        <path id="DejaVuSans-79" d="M 2059 -325 
Q 1816 -950 1584 -1140 
Q 1353 -1331 966 -1331 
L 506 -1331 
L 506 -850 
L 844 -850 
Q 1081 -850 1212 -737 
Q 1344 -625 1503 -206 
L 1606 56 
L 191 3500 
L 800 3500 
L 1894 763 
L 2988 3500 
L 3597 3500 
L 2059 -325 
z
" transform="scale(0.015625)"/>
        <path id="DejaVuSans-73" d="M 2834 3397 
L 2834 2853 
Q 2591 2978 2328 3040 
Q 2066 3103 1784 3103 
Q 1356 3103 1142 2972 
Q 928 2841 928 2578 
Q 928 2378 1081 2264 
Q 1234 2150 1697 2047 
L 1894 2003 
Q 2506 1872 2764 1633 
Q 3022 1394 3022 966 
Q 3022 478 2636 193 
Q 2250 -91 1575 -91 
Q 1294 -91 989 -36 
Q 684 19 347 128 
L 347 722 
Q 666 556 975 473 
Q 1284 391 1588 391 
Q 1994 391 2212 530 
Q 2431 669 2431 922 
Q 2431 1156 2273 1281 
Q 2116 1406 1581 1522 
L 1381 1569 
Q 847 1681 609 1914 
Q 372 2147 372 2553 
Q 372 3047 722 3315 
Q 1072 3584 1716 3584 
Q 2034 3584 2315 3537 
Q 2597 3491 2834 3397 
z
" transform="scale(0.015625)"/>
        <path id="DejaVuSans-53" d="M 3425 4513 
L 3425 3897 
Q 3066 4069 2747 4153 
Q 2428 4238 2131 4238 
Q 1616 4238 1336 4038 
Q 1056 3838 1056 3469 
Q 1056 3159 1242 3001 
Q 1428 2844 1947 2747 
L 2328 2669 
Q 3034 2534 3370 2195 
Q 3706 1856 3706 1288 
Q 3706 609 3251 259 
Q 2797 -91 1919 -91 
Q 1588 -91 1214 -16 
Q 841 59 441 206 
L 441 856 
Q 825 641 1194 531 
Q 1563 422 1919 422 
Q 2459 422 2753 634 
Q 3047 847 3047 1241 
Q 3047 1584 2836 1778 
Q 2625 1972 2144 2069 
L 1759 2144 
Q 1053 2284 737 2584 
Q 422 2884 422 3419 
Q 422 4038 858 4394 
Q 1294 4750 2059 4750 
Q 2388 4750 2728 4690 
Q 3069 4631 3425 4513 
z
" transform="scale(0.015625)"/>
       </defs>
       <use xlink:href="#DejaVuSans-48"/>
       <use xlink:href="#DejaVuSans-75" transform="translate(75.195312 0)"/>
       <use xlink:href="#DejaVuSans-6d" transform="translate(138.574219 0)"/>
       <use xlink:href="#DejaVuSans-70" transform="translate(235.986328 0)"/>
       <use xlink:href="#DejaVuSans-68" transform="translate(299.462891 0)"/>
       <use xlink:href="#DejaVuSans-72" transform="translate(362.841797 0)"/>
       <use xlink:href="#DejaVuSans-65" transform="translate(401.705078 0)"/>
       <use xlink:href="#DejaVuSans-79" transform="translate(463.228516 0)"/>
       <use xlink:href="#DejaVuSans-73" transform="translate(522.408203 0)"/>
       <use xlink:href="#DejaVuSans-2c" transform="translate(574.507812 0)"/>
       <use xlink:href="#DejaVuSans-20" transform="translate(606.294922 0)"/>
       <use xlink:href="#DejaVuSans-4d" transform="translate(638.082031 0)"/>
       <use xlink:href="#DejaVuSans-53" transform="translate(724.361328 0)"/>
      </g>
     </g>
    </g>
    <g id="xtick_4">
     <g id="line2d_4">
      <g>
       <use xlink:href="#md45ad3945a" x="372.918125" y="340.696547" style="stroke: #000000; stroke-width: 0.8"/>
      </g>
     </g>
     <g id="text_4">
      <!-- Calhoun, WV -->
      <g transform="translate(319.213779 390.689761) rotate(-35) scale(0.1 -0.1)">
       <defs>
        <path id="DejaVuSans-43" d="M 4122 4306 
L 4122 3641 
Q 3803 3938 3442 4084 
Q 3081 4231 2675 4231 
Q 1875 4231 1450 3742 
Q 1025 3253 1025 2328 
Q 1025 1406 1450 917 
Q 1875 428 2675 428 
Q 3081 428 3442 575 
Q 3803 722 4122 1019 
L 4122 359 
Q 3791 134 3420 21 
Q 3050 -91 2638 -91 
Q 1578 -91 968 557 
Q 359 1206 359 2328 
Q 359 3453 968 4101 
Q 1578 4750 2638 4750 
Q 3056 4750 3426 4639 
Q 3797 4528 4122 4306 
z
" transform="scale(0.015625)"/>
        <path id="DejaVuSans-61" d="M 2194 1759 
Q 1497 1759 1228 1600 
Q 959 1441 959 1056 
Q 959 750 1161 570 
Q 1363 391 1709 391 
Q 2188 391 2477 730 
Q 2766 1069 2766 1631 
L 2766 1759 
L 2194 1759 
z
M 3341 1997 
L 3341 0 
L 2766 0 
L 2766 531 
Q 2569 213 2275 61 
Q 1981 -91 1556 -91 
Q 1019 -91 701 211 
Q 384 513 384 1019 
Q 384 1609 779 1909 
Q 1175 2209 1959 2209 
L 2766 2209 
L 2766 2266 
Q 2766 2663 2505 2880 
Q 2244 3097 1772 3097 
Q 1472 3097 1187 3025 
Q 903 2953 641 2809 
L 641 3341 
Q 956 3463 1253 3523 
Q 1550 3584 1831 3584 
Q 2591 3584 2966 3190 
Q 3341 2797 3341 1997 
z
" transform="scale(0.015625)"/>
       </defs>
       <use xlink:href="#DejaVuSans-43"/>
       <use xlink:href="#DejaVuSans-61" transform="translate(69.824219 0)"/>
       <use xlink:href="#DejaVuSans-6c" transform="translate(131.103516 0)"/>
       <use xlink:href="#DejaVuSans-68" transform="translate(158.886719 0)"/>
       <use xlink:href="#DejaVuSans-6f" transform="translate(222.265625 0)"/>
       <use xlink:href="#DejaVuSans-75" transform="translate(283.447266 0)"/>
       <use xlink:href="#DejaVuSans-6e" transform="translate(346.826172 0)"/>
       <use xlink:href="#DejaVuSans-2c" transform="translate(410.205078 0)"/>
       <use xlink:href="#DejaVuSans-20" transform="translate(441.992188 0)"/>
       <use xlink:href="#DejaVuSans-57" transform="translate(473.779297 0)"/>
       <use xlink:href="#DejaVuSans-56" transform="translate(572.65625 0)"/>
      </g>
     </g>
    </g>
    <g id="xtick_5">
     <g id="line2d_5">
      <g>
       <use xlink:href="#md45ad3945a" x="462.298168" y="340.696547" style="stroke: #000000; stroke-width: 0.8"/>
      </g>
     </g>
     <g id="text_5">
      <!-- Webster, WV -->
      <g transform="translate(408.450471 390.790136) rotate(-35) scale(0.1 -0.1)">
       <defs>
        <path id="DejaVuSans-62" d="M 3116 1747 
Q 3116 2381 2855 2742 
Q 2594 3103 2138 3103 
Q 1681 3103 1420 2742 
Q 1159 2381 1159 1747 
Q 1159 1113 1420 752 
Q 1681 391 2138 391 
Q 2594 391 2855 752 
Q 3116 1113 3116 1747 
z
M 1159 2969 
Q 1341 3281 1617 3432 
Q 1894 3584 2278 3584 
Q 2916 3584 3314 3078 
Q 3713 2572 3713 1747 
Q 3713 922 3314 415 
Q 2916 -91 2278 -91 
Q 1894 -91 1617 61 
Q 1341 213 1159 525 
L 1159 0 
L 581 0 
L 581 4863 
L 1159 4863 
L 1159 2969 
z
" transform="scale(0.015625)"/>
        <path id="DejaVuSans-74" d="M 1172 4494 
L 1172 3500 
L 2356 3500 
L 2356 3053 
L 1172 3053 
L 1172 1153 
Q 1172 725 1289 603 
Q 1406 481 1766 481 
L 2356 481 
L 2356 0 
L 1766 0 
Q 1100 0 847 248 
Q 594 497 594 1153 
L 594 3053 
L 172 3053 
L 172 3500 
L 594 3500 
L 594 4494 
L 1172 4494 
z
" transform="scale(0.015625)"/>
       </defs>
       <use xlink:href="#DejaVuSans-57"/>
       <use xlink:href="#DejaVuSans-65" transform="translate(93.001953 0)"/>
       <use xlink:href="#DejaVuSans-62" transform="translate(154.525391 0)"/>
       <use xlink:href="#DejaVuSans-73" transform="translate(218.001953 0)"/>
       <use xlink:href="#DejaVuSans-74" transform="translate(270.101562 0)"/>
       <use xlink:href="#DejaVuSans-65" transform="translate(309.310547 0)"/>
       <use xlink:href="#DejaVuSans-72" transform="translate(370.833984 0)"/>
       <use xlink:href="#DejaVuSans-2c" transform="translate(411.947266 0)"/>
       <use xlink:href="#DejaVuSans-20" transform="translate(443.734375 0)"/>
       <use xlink:href="#DejaVuSans-57" transform="translate(475.521484 0)"/>
       <use xlink:href="#DejaVuSans-56" transform="translate(574.398438 0)"/>
      </g>
     </g>
    </g>
    <g id="xtick_6">
     <g id="line2d_6">
      <g>
       <use xlink:href="#md45ad3945a" x="551.678211" y="340.696547" style="stroke: #000000; stroke-width: 0.8"/>
      </g>
     </g>
     <g id="text_6">
      <!-- Sharkey, MS -->
      <g transform="translate(499.896313 389.343648) rotate(-35) scale(0.1 -0.1)">
       <defs>
        <path id="DejaVuSans-6b" d="M 581 4863 
L 1159 4863 
L 1159 1991 
L 2875 3500 
L 3609 3500 
L 1753 1863 
L 3688 0 
L 2938 0 
L 1159 1709 
L 1159 0 
L 581 0 
L 581 4863 
z
" transform="scale(0.015625)"/>
       </defs>
       <use xlink:href="#DejaVuSans-53"/>
       <use xlink:href="#DejaVuSans-68" transform="translate(63.476562 0)"/>
       <use xlink:href="#DejaVuSans-61" transform="translate(126.855469 0)"/>
       <use xlink:href="#DejaVuSans-72" transform="translate(188.134766 0)"/>
       <use xlink:href="#DejaVuSans-6b" transform="translate(229.248047 0)"/>
       <use xlink:href="#DejaVuSans-65" transform="translate(283.533203 0)"/>
       <use xlink:href="#DejaVuSans-79" transform="translate(345.056641 0)"/>
       <use xlink:href="#DejaVuSans-2c" transform="translate(404.236328 0)"/>
       <use xlink:href="#DejaVuSans-20" transform="translate(436.023438 0)"/>
       <use xlink:href="#DejaVuSans-4d" transform="translate(467.810547 0)"/>
       <use xlink:href="#DejaVuSans-53" transform="translate(554.089844 0)"/>
      </g>
     </g>
    </g>
    <g id="xtick_7">
     <g id="line2d_7">
      <g>
       <use xlink:href="#md45ad3945a" x="641.058254" y="340.696547" style="stroke: #000000; stroke-width: 0.8"/>
      </g>
     </g>
     <g id="text_7">
      <!-- Greene, AL -->
      <g transform="translate(594.648202 385.582242) rotate(-35) scale(0.1 -0.1)">
       <defs>
        <path id="DejaVuSans-47" d="M 3809 666 
L 3809 1919 
L 2778 1919 
L 2778 2438 
L 4434 2438 
L 4434 434 
Q 4069 175 3628 42 
Q 3188 -91 2688 -91 
Q 1594 -91 976 548 
Q 359 1188 359 2328 
Q 359 3472 976 4111 
Q 1594 4750 2688 4750 
Q 3144 4750 3555 4637 
Q 3966 4525 4313 4306 
L 4313 3634 
Q 3963 3931 3569 4081 
Q 3175 4231 2741 4231 
Q 1884 4231 1454 3753 
Q 1025 3275 1025 2328 
Q 1025 1384 1454 906 
Q 1884 428 2741 428 
Q 3075 428 3337 486 
Q 3600 544 3809 666 
z
" transform="scale(0.015625)"/>
        <path id="DejaVuSans-41" d="M 2188 4044 
L 1331 1722 
L 3047 1722 
L 2188 4044 
z
M 1831 4666 
L 2547 4666 
L 4325 0 
L 3669 0 
L 3244 1197 
L 1141 1197 
L 716 0 
L 50 0 
L 1831 4666 
z
" transform="scale(0.015625)"/>
        <path id="DejaVuSans-4c" d="M 628 4666 
L 1259 4666 
L 1259 531 
L 3531 531 
L 3531 0 
L 628 0 
L 628 4666 
z
" transform="scale(0.015625)"/>
       </defs>
       <use xlink:href="#DejaVuSans-47"/>
       <use xlink:href="#DejaVuSans-72" transform="translate(77.490234 0)"/>
       <use xlink:href="#DejaVuSans-65" transform="translate(116.353516 0)"/>
       <use xlink:href="#DejaVuSans-65" transform="translate(177.876953 0)"/>
       <use xlink:href="#DejaVuSans-6e" transform="translate(239.400391 0)"/>
       <use xlink:href="#DejaVuSans-65" transform="translate(302.779297 0)"/>
       <use xlink:href="#DejaVuSans-2c" transform="translate(364.302734 0)"/>
       <use xlink:href="#DejaVuSans-20" transform="translate(396.089844 0)"/>
       <use xlink:href="#DejaVuSans-41" transform="translate(427.876953 0)"/>
       <use xlink:href="#DejaVuSans-4c" transform="translate(496.285156 0)"/>
      </g>
     </g>
    </g>
    <g id="text_8">
     <!-- County -->
     <g transform="translate(355.110313 412.411701) scale(0.1 -0.1)">
      <use xlink:href="#DejaVuSans-43"/>
      <use xlink:href="#DejaVuSans-6f" transform="translate(69.824219 0)"/>
      <use xlink:href="#DejaVuSans-75" transform="translate(131.005859 0)"/>
      <use xlink:href="#DejaVuSans-6e" transform="translate(194.384766 0)"/>
      <use xlink:href="#DejaVuSans-74" transform="translate(257.763672 0)"/>
      <use xlink:href="#DejaVuSans-79" transform="translate(296.972656 0)"/>
     </g>
    </g>
   </g>
   <g id="matplotlib.axis_2">
    <g id="ytick_1">
     <g id="line2d_8">
      <path d="M 40.603125 340.696547 
L 705.233125 340.696547 
" clip-path="url(#p050ad6a48a)" style="fill: none; stroke-dasharray: 1.85,0.8; stroke-dashoffset: 0; stroke: #b0b0b0; stroke-opacity: 0.4; stroke-width: 0.5"/>
     </g>
     <g id="line2d_9">
      <defs>
       <path id="m25a8a35f14" d="M 0 0 
L -3.5 0 
" style="stroke: #000000; stroke-width: 0.8"/>
      </defs>
      <g>
       <use xlink:href="#m25a8a35f14" x="40.603125" y="340.696547" style="stroke: #000000; stroke-width: 0.8"/>
      </g>
     </g>
     <g id="text_9">
      <!-- 0 -->
      <g transform="translate(27.240625 344.495766) scale(0.1 -0.1)">
       <defs>
        <path id="DejaVuSans-30" d="M 2034 4250 
Q 1547 4250 1301 3770 
Q 1056 3291 1056 2328 
Q 1056 1369 1301 889 
Q 1547 409 2034 409 
Q 2525 409 2770 889 
Q 3016 1369 3016 2328 
Q 3016 3291 2770 3770 
Q 2525 4250 2034 4250 
z
M 2034 4750 
Q 2819 4750 3233 4129 
Q 3647 3509 3647 2328 
Q 3647 1150 3233 529 
Q 2819 -91 2034 -91 
Q 1250 -91 836 529 
Q 422 1150 422 2328 
Q 422 3509 836 4129 
Q 1250 4750 2034 4750 
z
" transform="scale(0.015625)"/>
       </defs>
       <use xlink:href="#DejaVuSans-30"/>
      </g>
     </g>
    </g>
    <g id="ytick_2">
     <g id="line2d_10">
      <path d="M 40.603125 278.970714 
L 705.233125 278.970714 
" clip-path="url(#p050ad6a48a)" style="fill: none; stroke-dasharray: 1.85,0.8; stroke-dashoffset: 0; stroke: #b0b0b0; stroke-opacity: 0.4; stroke-width: 0.5"/>
     </g>
     <g id="line2d_11">
      <g>
       <use xlink:href="#m25a8a35f14" x="40.603125" y="278.970714" style="stroke: #000000; stroke-width: 0.8"/>
      </g>
     </g>
     <g id="text_10">
      <!-- 10 -->
      <g transform="translate(20.878125 282.769932) scale(0.1 -0.1)">
       <defs>
        <path id="DejaVuSans-31" d="M 794 531 
L 1825 531 
L 1825 4091 
L 703 3866 
L 703 4441 
L 1819 4666 
L 2450 4666 
L 2450 531 
L 3481 531 
L 3481 0 
L 794 0 
L 794 531 
z
" transform="scale(0.015625)"/>
       </defs>
       <use xlink:href="#DejaVuSans-31"/>
       <use xlink:href="#DejaVuSans-30" transform="translate(63.623047 0)"/>
      </g>
     </g>
    </g>
    <g id="ytick_3">
     <g id="line2d_12">
      <path d="M 40.603125 217.244881 
L 705.233125 217.244881 
" clip-path="url(#p050ad6a48a)" style="fill: none; stroke-dasharray: 1.85,0.8; stroke-dashoffset: 0; stroke: #b0b0b0; stroke-opacity: 0.4; stroke-width: 0.5"/>
     </g>
     <g id="line2d_13">
      <g>
       <use xlink:href="#m25a8a35f14" x="40.603125" y="217.244881" style="stroke: #000000; stroke-width: 0.8"/>
      </g>
     </g>
     <g id="text_11">
      <!-- 20 -->
      <g transform="translate(20.878125 221.044099) scale(0.1 -0.1)">
       <defs>
        <path id="DejaVuSans-32" d="M 1228 531 
L 3431 531 
L 3431 0 
L 469 0 
L 469 531 
Q 828 903 1448 1529 
Q 2069 2156 2228 2338 
Q 2531 2678 2651 2914 
Q 2772 3150 2772 3378 
Q 2772 3750 2511 3984 
Q 2250 4219 1831 4219 
Q 1534 4219 1204 4116 
Q 875 4013 500 3803 
L 500 4441 
Q 881 4594 1212 4672 
Q 1544 4750 1819 4750 
Q 2544 4750 2975 4387 
Q 3406 4025 3406 3419 
Q 3406 3131 3298 2873 
Q 3191 2616 2906 2266 
Q 2828 2175 2409 1742 
Q 1991 1309 1228 531 
z
" transform="scale(0.015625)"/>
       </defs>
       <use xlink:href="#DejaVuSans-32"/>
       <use xlink:href="#DejaVuSans-30" transform="translate(63.623047 0)"/>
      </g>
     </g>
    </g>
    <g id="ytick_4">
     <g id="line2d_14">
      <path d="M 40.603125 155.519048 
L 705.233125 155.519048 
" clip-path="url(#p050ad6a48a)" style="fill: none; stroke-dasharray: 1.85,0.8; stroke-dashoffset: 0; stroke: #b0b0b0; stroke-opacity: 0.4; stroke-width: 0.5"/>
     </g>
     <g id="line2d_15">
      <g>
       <use xlink:href="#m25a8a35f14" x="40.603125" y="155.519048" style="stroke: #000000; stroke-width: 0.8"/>
      </g>
     </g>
     <g id="text_12">
      <!-- 30 -->
      <g transform="translate(20.878125 159.318266) scale(0.1 -0.1)">
       <defs>
        <path id="DejaVuSans-33" d="M 2597 2516 
Q 3050 2419 3304 2112 
Q 3559 1806 3559 1356 
Q 3559 666 3084 287 
Q 2609 -91 1734 -91 
Q 1441 -91 1130 -33 
Q 819 25 488 141 
L 488 750 
Q 750 597 1062 519 
Q 1375 441 1716 441 
Q 2309 441 2620 675 
Q 2931 909 2931 1356 
Q 2931 1769 2642 2001 
Q 2353 2234 1838 2234 
L 1294 2234 
L 1294 2753 
L 1863 2753 
Q 2328 2753 2575 2939 
Q 2822 3125 2822 3475 
Q 2822 3834 2567 4026 
Q 2313 4219 1838 4219 
Q 1578 4219 1281 4162 
Q 984 4106 628 3988 
L 628 4550 
Q 988 4650 1302 4700 
Q 1616 4750 1894 4750 
Q 2613 4750 3031 4423 
Q 3450 4097 3450 3541 
Q 3450 3153 3228 2886 
Q 3006 2619 2597 2516 
z
" transform="scale(0.015625)"/>
       </defs>
       <use xlink:href="#DejaVuSans-33"/>
       <use xlink:href="#DejaVuSans-30" transform="translate(63.623047 0)"/>
      </g>
     </g>
    </g>
    <g id="ytick_5">
     <g id="line2d_16">
      <path d="M 40.603125 93.793215 
L 705.233125 93.793215 
" clip-path="url(#p050ad6a48a)" style="fill: none; stroke-dasharray: 1.85,0.8; stroke-dashoffset: 0; stroke: #b0b0b0; stroke-opacity: 0.4; stroke-width: 0.5"/>
     </g>
     <g id="line2d_17">
      <g>
       <use xlink:href="#m25a8a35f14" x="40.603125" y="93.793215" style="stroke: #000000; stroke-width: 0.8"/>
      </g>
     </g>
     <g id="text_13">
      <!-- 40 -->
      <g transform="translate(20.878125 97.592433) scale(0.1 -0.1)">
       <defs>
        <path id="DejaVuSans-34" d="M 2419 4116 
L 825 1625 
L 2419 1625 
L 2419 4116 
z
M 2253 4666 
L 3047 4666 
L 3047 1625 
L 3713 1625 
L 3713 1100 
L 3047 1100 
L 3047 0 
L 2419 0 
L 2419 1100 
L 313 1100 
L 313 1709 
L 2253 4666 
z
" transform="scale(0.015625)"/>
       </defs>
       <use xlink:href="#DejaVuSans-34"/>
       <use xlink:href="#DejaVuSans-30" transform="translate(63.623047 0)"/>
      </g>
     </g>
    </g>
    <g id="text_14">
     <!-- Data Value -->
     <g transform="translate(14.798438 215.484617) rotate(-90) scale(0.1 -0.1)">
      <use xlink:href="#DejaVuSans-44"/>
      <use xlink:href="#DejaVuSans-61" transform="translate(77.001953 0)"/>
      <use xlink:href="#DejaVuSans-74" transform="translate(138.28125 0)"/>
      <use xlink:href="#DejaVuSans-61" transform="translate(177.490234 0)"/>
      <use xlink:href="#DejaVuSans-20" transform="translate(238.769531 0)"/>
      <use xlink:href="#DejaVuSans-56" transform="translate(270.556641 0)"/>
      <use xlink:href="#DejaVuSans-61" transform="translate(331.214844 0)"/>
      <use xlink:href="#DejaVuSans-6c" transform="translate(392.494141 0)"/>
      <use xlink:href="#DejaVuSans-75" transform="translate(420.277344 0)"/>
      <use xlink:href="#DejaVuSans-65" transform="translate(483.65625 0)"/>
     </g>
    </g>
   </g>
   <g id="patch_17">
    <path d="M 40.603125 340.696547 
L 40.603125 35.7555 
" style="fill: none; stroke: #000000; stroke-width: 0.8; stroke-linejoin: miter; stroke-linecap: square"/>
   </g>
   <g id="patch_18">
    <path d="M 40.603125 340.696547 
L 705.233125 340.696547 
" style="fill: none; stroke: #000000; stroke-width: 0.8; stroke-linejoin: miter; stroke-linecap: square"/>
   </g>
   <g id="text_15">
    <!-- County comparison: Arthritis among adults vs No leisure-time physical -->
    <g transform="translate(160.865938 16.318125) scale(0.12 -0.12)">
     <defs>
      <path id="DejaVuSans-3a" d="M 750 794 
L 1409 794 
L 1409 0 
L 750 0 
L 750 794 
z
M 750 3309 
L 1409 3309 
L 1409 2516 
L 750 2516 
L 750 3309 
z
" transform="scale(0.015625)"/>
      <path id="DejaVuSans-64" d="M 2906 2969 
L 2906 4863 
L 3481 4863 
L 3481 0 
L 2906 0 
L 2906 525 
Q 2725 213 2448 61 
Q 2172 -91 1784 -91 
Q 1150 -91 751 415 
Q 353 922 353 1747 
Q 353 2572 751 3078 
Q 1150 3584 1784 3584 
Q 2172 3584 2448 3432 
Q 2725 3281 2906 2969 
z
M 947 1747 
Q 947 1113 1208 752 
Q 1469 391 1925 391 
Q 2381 391 2643 752 
Q 2906 1113 2906 1747 
Q 2906 2381 2643 2742 
Q 2381 3103 1925 3103 
Q 1469 3103 1208 2742 
Q 947 2381 947 1747 
z
" transform="scale(0.015625)"/>
      <path id="DejaVuSans-76" d="M 191 3500 
L 800 3500 
L 1894 563 
L 2988 3500 
L 3597 3500 
L 2284 0 
L 1503 0 
L 191 3500 
z
" transform="scale(0.015625)"/>
      <path id="DejaVuSans-4e" d="M 628 4666 
L 1478 4666 
L 3547 763 
L 3547 4666 
L 4159 4666 
L 4159 0 
L 3309 0 
L 1241 3903 
L 1241 0 
L 628 0 
L 628 4666 
z
" transform="scale(0.015625)"/>
      <path id="DejaVuSans-2d" d="M 313 2009 
L 1997 2009 
L 1997 1497 
L 313 1497 
L 313 2009 
z
" transform="scale(0.015625)"/>
     </defs>
     <use xlink:href="#DejaVuSans-43"/>
     <use xlink:href="#DejaVuSans-6f" transform="translate(69.824219 0)"/>
     <use xlink:href="#DejaVuSans-75" transform="translate(131.005859 0)"/>
     <use xlink:href="#DejaVuSans-6e" transform="translate(194.384766 0)"/>
     <use xlink:href="#DejaVuSans-74" transform="translate(257.763672 0)"/>
     <use xlink:href="#DejaVuSans-79" transform="translate(296.972656 0)"/>
     <use xlink:href="#DejaVuSans-20" transform="translate(356.152344 0)"/>
     <use xlink:href="#DejaVuSans-63" transform="translate(387.939453 0)"/>
     <use xlink:href="#DejaVuSans-6f" transform="translate(442.919922 0)"/>
     <use xlink:href="#DejaVuSans-6d" transform="translate(504.101562 0)"/>
     <use xlink:href="#DejaVuSans-70" transform="translate(601.513672 0)"/>
     <use xlink:href="#DejaVuSans-61" transform="translate(664.990234 0)"/>
     <use xlink:href="#DejaVuSans-72" transform="translate(726.269531 0)"/>
     <use xlink:href="#DejaVuSans-69" transform="translate(767.382812 0)"/>
     <use xlink:href="#DejaVuSans-73" transform="translate(795.166016 0)"/>
     <use xlink:href="#DejaVuSans-6f" transform="translate(847.265625 0)"/>
     <use xlink:href="#DejaVuSans-6e" transform="translate(908.447266 0)"/>
     <use xlink:href="#DejaVuSans-3a" transform="translate(971.826172 0)"/>
     <use xlink:href="#DejaVuSans-20" transform="translate(1005.517578 0)"/>
     <use xlink:href="#DejaVuSans-41" transform="translate(1037.304688 0)"/>
     <use xlink:href="#DejaVuSans-72" transform="translate(1105.712891 0)"/>
     <use xlink:href="#DejaVuSans-74" transform="translate(1146.826172 0)"/>
     <use xlink:href="#DejaVuSans-68" transform="translate(1186.035156 0)"/>
     <use xlink:href="#DejaVuSans-72" transform="translate(1249.414062 0)"/>
     <use xlink:href="#DejaVuSans-69" transform="translate(1290.527344 0)"/>
     <use xlink:href="#DejaVuSans-74" transform="translate(1318.310547 0)"/>
     <use xlink:href="#DejaVuSans-69" transform="translate(1357.519531 0)"/>
     <use xlink:href="#DejaVuSans-73" transform="translate(1385.302734 0)"/>
     <use xlink:href="#DejaVuSans-20" transform="translate(1437.402344 0)"/>
     <use xlink:href="#DejaVuSans-61" transform="translate(1469.189453 0)"/>
     <use xlink:href="#DejaVuSans-6d" transform="translate(1530.46875 0)"/>
     <use xlink:href="#DejaVuSans-6f" transform="translate(1627.880859 0)"/>
     <use xlink:href="#DejaVuSans-6e" transform="translate(1689.0625 0)"/>
     <use xlink:href="#DejaVuSans-67" transform="translate(1752.441406 0)"/>
     <use xlink:href="#DejaVuSans-20" transform="translate(1815.917969 0)"/>
     <use xlink:href="#DejaVuSans-61" transform="translate(1847.705078 0)"/>
     <use xlink:href="#DejaVuSans-64" transform="translate(1908.984375 0)"/>
     <use xlink:href="#DejaVuSans-75" transform="translate(1972.460938 0)"/>
     <use xlink:href="#DejaVuSans-6c" transform="translate(2035.839844 0)"/>
     <use xlink:href="#DejaVuSans-74" transform="translate(2063.623047 0)"/>
     <use xlink:href="#DejaVuSans-73" transform="translate(2102.832031 0)"/>
     <use xlink:href="#DejaVuSans-20" transform="translate(2154.931641 0)"/>
     <use xlink:href="#DejaVuSans-76" transform="translate(2186.71875 0)"/>
     <use xlink:href="#DejaVuSans-73" transform="translate(2245.898438 0)"/>
     <use xlink:href="#DejaVuSans-20" transform="translate(2297.998047 0)"/>
     <use xlink:href="#DejaVuSans-4e" transform="translate(2329.785156 0)"/>
     <use xlink:href="#DejaVuSans-6f" transform="translate(2404.589844 0)"/>
     <use xlink:href="#DejaVuSans-20" transform="translate(2465.771484 0)"/>
     <use xlink:href="#DejaVuSans-6c" transform="translate(2497.558594 0)"/>
     <use xlink:href="#DejaVuSans-65" transform="translate(2525.341797 0)"/>
     <use xlink:href="#DejaVuSans-69" transform="translate(2586.865234 0)"/>
     <use xlink:href="#DejaVuSans-73" transform="translate(2614.648438 0)"/>
     <use xlink:href="#DejaVuSans-75" transform="translate(2666.748047 0)"/>
     <use xlink:href="#DejaVuSans-72" transform="translate(2730.126953 0)"/>
     <use xlink:href="#DejaVuSans-65" transform="translate(2768.990234 0)"/>
     <use xlink:href="#DejaVuSans-2d" transform="translate(2830.513672 0)"/>
     <use xlink:href="#DejaVuSans-74" transform="translate(2866.597656 0)"/>
     <use xlink:href="#DejaVuSans-69" transform="translate(2905.806641 0)"/>
     <use xlink:href="#DejaVuSans-6d" transform="translate(2933.589844 0)"/>
     <use xlink:href="#DejaVuSans-65" transform="translate(3031.001953 0)"/>
     <use xlink:href="#DejaVuSans-20" transform="translate(3092.525391 0)"/>
     <use xlink:href="#DejaVuSans-70" transform="translate(3124.3125 0)"/>
     <use xlink:href="#DejaVuSans-68" transform="translate(3187.789062 0)"/>
     <use xlink:href="#DejaVuSans-79" transform="translate(3251.167969 0)"/>
     <use xlink:href="#DejaVuSans-73" transform="translate(3310.347656 0)"/>
     <use xlink:href="#DejaVuSans-69" transform="translate(3362.447266 0)"/>
     <use xlink:href="#DejaVuSans-63" transform="translate(3390.230469 0)"/>
     <use xlink:href="#DejaVuSans-61" transform="translate(3445.210938 0)"/>
     <use xlink:href="#DejaVuSans-6c" transform="translate(3506.490234 0)"/>
    </g>
    <!-- activity among adults -->
    <g transform="translate(307.750625 29.7555) scale(0.12 -0.12)">
     <use xlink:href="#DejaVuSans-61"/>
     <use xlink:href="#DejaVuSans-63" transform="translate(61.279297 0)"/>
     <use xlink:href="#DejaVuSans-74" transform="translate(116.259766 0)"/>
     <use xlink:href="#DejaVuSans-69" transform="translate(155.46875 0)"/>
     <use xlink:href="#DejaVuSans-76" transform="translate(183.251953 0)"/>
     <use xlink:href="#DejaVuSans-69" transform="translate(242.431641 0)"/>
     <use xlink:href="#DejaVuSans-74" transform="translate(270.214844 0)"/>
     <use xlink:href="#DejaVuSans-79" transform="translate(309.423828 0)"/>
     <use xlink:href="#DejaVuSans-20" transform="translate(368.603516 0)"/>
     <use xlink:href="#DejaVuSans-61" transform="translate(400.390625 0)"/>
     <use xlink:href="#DejaVuSans-6d" transform="translate(461.669922 0)"/>
     <use xlink:href="#DejaVuSans-6f" transform="translate(559.082031 0)"/>
     <use xlink:href="#DejaVuSans-6e" transform="translate(620.263672 0)"/>
     <use xlink:href="#DejaVuSans-67" transform="translate(683.642578 0)"/>
     <use xlink:href="#DejaVuSans-20" transform="translate(747.119141 0)"/>
     <use xlink:href="#DejaVuSans-61" transform="translate(778.90625 0)"/>
     <use xlink:href="#DejaVuSans-64" transform="translate(840.185547 0)"/>
     <use xlink:href="#DejaVuSans-75" transform="translate(903.662109 0)"/>
     <use xlink:href="#DejaVuSans-6c" transform="translate(967.041016 0)"/>
     <use xlink:href="#DejaVuSans-74" transform="translate(994.824219 0)"/>
     <use xlink:href="#DejaVuSans-73" transform="translate(1034.033203 0)"/>
    </g>
   </g>
   <g id="legend_1">
    <g id="patch_19">
     <path d="M 435.994062 52.353937 
L 455.994062 52.353937 
L 455.994062 45.353937 
L 435.994062 45.353937 
z
" style="fill: #4f81bd; stroke: #385d8a; stroke-width: 0.7; stroke-linejoin: miter"/>
    </g>
    <g id="text_16">
     <!-- Arthritis among adults -->
     <g transform="translate(463.994062 52.353937) scale(0.1 -0.1)">
      <use xlink:href="#DejaVuSans-41"/>
      <use xlink:href="#DejaVuSans-72" transform="translate(68.408203 0)"/>
      <use xlink:href="#DejaVuSans-74" transform="translate(109.521484 0)"/>
      <use xlink:href="#DejaVuSans-68" transform="translate(148.730469 0)"/>
      <use xlink:href="#DejaVuSans-72" transform="translate(212.109375 0)"/>
      <use xlink:href="#DejaVuSans-69" transform="translate(253.222656 0)"/>
      <use xlink:href="#DejaVuSans-74" transform="translate(281.005859 0)"/>
      <use xlink:href="#DejaVuSans-69" transform="translate(320.214844 0)"/>
      <use xlink:href="#DejaVuSans-73" transform="translate(347.998047 0)"/>
      <use xlink:href="#DejaVuSans-20" transform="translate(400.097656 0)"/>
      <use xlink:href="#DejaVuSans-61" transform="translate(431.884766 0)"/>
      <use xlink:href="#DejaVuSans-6d" transform="translate(493.164062 0)"/>
      <use xlink:href="#DejaVuSans-6f" transform="translate(590.576172 0)"/>
      <use xlink:href="#DejaVuSans-6e" transform="translate(651.757812 0)"/>
      <use xlink:href="#DejaVuSans-67" transform="translate(715.136719 0)"/>
      <use xlink:href="#DejaVuSans-20" transform="translate(778.613281 0)"/>
      <use xlink:href="#DejaVuSans-61" transform="translate(810.400391 0)"/>
      <use xlink:href="#DejaVuSans-64" transform="translate(871.679688 0)"/>
      <use xlink:href="#DejaVuSans-75" transform="translate(935.15625 0)"/>
      <use xlink:href="#DejaVuSans-6c" transform="translate(998.535156 0)"/>
      <use xlink:href="#DejaVuSans-74" transform="translate(1026.318359 0)"/>
      <use xlink:href="#DejaVuSans-73" transform="translate(1065.527344 0)"/>
     </g>
    </g>
    <g id="patch_20">
     <path d="M 435.994062 67.032062 
L 455.994062 67.032062 
L 455.994062 60.032062 
L 435.994062 60.032062 
z
" style="fill: #c0504d; stroke: #963634; stroke-width: 0.7; stroke-linejoin: miter"/>
    </g>
    <g id="text_17">
     <!-- No leisure-time physical activity among adults -->
     <g transform="translate(463.994062 67.032062) scale(0.1 -0.1)">
      <use xlink:href="#DejaVuSans-4e"/>
      <use xlink:href="#DejaVuSans-6f" transform="translate(74.804688 0)"/>
      <use xlink:href="#DejaVuSans-20" transform="translate(135.986328 0)"/>
      <use xlink:href="#DejaVuSans-6c" transform="translate(167.773438 0)"/>
      <use xlink:href="#DejaVuSans-65" transform="translate(195.556641 0)"/>
      <use xlink:href="#DejaVuSans-69" transform="translate(257.080078 0)"/>
      <use xlink:href="#DejaVuSans-73" transform="translate(284.863281 0)"/>
      <use xlink:href="#DejaVuSans-75" transform="translate(336.962891 0)"/>
      <use xlink:href="#DejaVuSans-72" transform="translate(400.341797 0)"/>
      <use xlink:href="#DejaVuSans-65" transform="translate(439.205078 0)"/>
      <use xlink:href="#DejaVuSans-2d" transform="translate(500.728516 0)"/>
      <use xlink:href="#DejaVuSans-74" transform="translate(536.8125 0)"/>
      <use xlink:href="#DejaVuSans-69" transform="translate(576.021484 0)"/>
      <use xlink:href="#DejaVuSans-6d" transform="translate(603.804688 0)"/>
      <use xlink:href="#DejaVuSans-65" transform="translate(701.216797 0)"/>
      <use xlink:href="#DejaVuSans-20" transform="translate(762.740234 0)"/>
      <use xlink:href="#DejaVuSans-70" transform="translate(794.527344 0)"/>
      <use xlink:href="#DejaVuSans-68" transform="translate(858.003906 0)"/>
      <use xlink:href="#DejaVuSans-79" transform="translate(921.382812 0)"/>
      <use xlink:href="#DejaVuSans-73" transform="translate(980.5625 0)"/>
      <use xlink:href="#DejaVuSans-69" transform="translate(1032.662109 0)"/>
      <use xlink:href="#DejaVuSans-63" transform="translate(1060.445312 0)"/>
      <use xlink:href="#DejaVuSans-61" transform="translate(1115.425781 0)"/>
      <use xlink:href="#DejaVuSans-6c" transform="translate(1176.705078 0)"/>
      <use xlink:href="#DejaVuSans-20" transform="translate(1204.488281 0)"/>
      <use xlink:href="#DejaVuSans-61" transform="translate(1236.275391 0)"/>
      <use xlink:href="#DejaVuSans-63" transform="translate(1297.554688 0)"/>
      <use xlink:href="#DejaVuSans-74" transform="translate(1352.535156 0)"/>
      <use xlink:href="#DejaVuSans-69" transform="translate(1391.744141 0)"/>
      <use xlink:href="#DejaVuSans-76" transform="translate(1419.527344 0)"/>
      <use xlink:href="#DejaVuSans-69" transform="translate(1478.707031 0)"/>
      <use xlink:href="#DejaVuSans-74" transform="translate(1506.490234 0)"/>
      <use xlink:href="#DejaVuSans-79" transform="translate(1545.699219 0)"/>
      <use xlink:href="#DejaVuSans-20" transform="translate(1604.878906 0)"/>
      <use xlink:href="#DejaVuSans-61" transform="translate(1636.666016 0)"/>
      <use xlink:href="#DejaVuSans-6d" transform="translate(1697.945312 0)"/>
      <use xlink:href="#DejaVuSans-6f" transform="translate(1795.357422 0)"/>
      <use xlink:href="#DejaVuSans-6e" transform="translate(1856.539062 0)"/>
      <use xlink:href="#DejaVuSans-67" transform="translate(1919.917969 0)"/>
      <use xlink:href="#DejaVuSans-20" transform="translate(1983.394531 0)"/>
      <use xlink:href="#DejaVuSans-61" transform="translate(2015.181641 0)"/>
      <use xlink:href="#DejaVuSans-64" transform="translate(2076.460938 0)"/>
      <use xlink:href="#DejaVuSans-75" transform="translate(2139.9375 0)"/>
      <use xlink:href="#DejaVuSans-6c" transform="translate(2203.316406 0)"/>
      <use xlink:href="#DejaVuSans-74" transform="translate(2231.099609 0)"/>
      <use xlink:href="#DejaVuSans-73" transform="translate(2270.308594 0)"/>
     </g>
    </g>
   </g>
  </g>
 </g>
 <defs>
  <clipPath id="p050ad6a48a">
   <rect x="40.603125" y="35.7555" width="664.63" height="304.941047"/>
  </clipPath>
 </defs>
</svg>
