<?xml version="1.0" encoding="utf-8" standalone="no"?>
<!DOCTYPE svg PUBLIC "-//W3C//DTD SVG 1.1//EN"
  "http://www.w3.org/Graphics/SVG/1.1/DTD/svg11.dtd">
<svg xmlns:xlink="http://www.w3.org/1999/xlink" width="712.433125pt" height="421.434355pt" viewBox="0 0 712.433125 421.434355" xmlns="http://www.w3.org/2000/svg" version="1.1">
 <metadata>
  <rdf:RDF xmlns:dc="http://purl.org/dc/elements/1.1/" xmlns:cc="http://creativecommons.org/ns#" xmlns:rdf="http://www.w3.org/1999/02/22-rdf-syntax-ns#">
   <cc:Work>
    <dc:type rdf:resource="http://purl.org/dc/dcmitype/StillImage"/>
    <dc:date>2026-04-03T00:52:12.318609</dc:date>
    <dc:format>image/svg+xml</dc:format>
    <dc:creator>
     <cc:Agent>
      <dc:title>Matplotlib v3.10.8, https://matplotlib.org/</dc:title>
     </cc:Agent>
    </dc:creator>
   </cc:Work>
  </rdf:RDF>
 </metadata>
 <defs>
  <style type="text/css">*{stroke-linejoin: round; stroke-linecap: butt}</style>
 </defs>
 <g id="figure_1">
  <g id="patch_1">
   <path d="M 0 421.434355 
L 712.433125 421.434355 
L 712.433125 0 
L 0 0 
z
" style="fill: #ffffff"/>
  </g>
  <g id="axes_1">
   <g id="patch_2">
    <path d="M 40.603125 341.832228 
L 705.233125 341.832228 
L 705.233125 35.7555 
L 40.603125 35.7555 
z
" style="fill: #ffffff"/>
   </g>
   <g id="patch_3">
    <path d="M 70.81358 341.832228 
L 110.674596 341.832228 
L 110.674596 100.892708 
L 70.81358 100.892708 
z
" clip-path="url(#pab3b64afcd)" style="fill: #4f81bd; stroke: #385d8a; stroke-width: 0.7; stroke-linejoin: miter"/>
   </g>
   <g id="patch_4">
    <path d="M 175.710991 341.832228 
L 215.572008 341.832228 
L 215.572008 111.444804 
L 175.710991 111.444804 
z
" clip-path="url(#pab3b64afcd)" style="fill: #4f81bd; stroke: #385d8a; stroke-width: 0.7; stroke-linejoin: miter"/>
   </g>
   <g id="patch_5">
    <path d="M 280.608403 341.832228 
L 320.469419 341.832228 
L 320.469419 182.67145 
L 280.608403 182.67145 
z
" clip-path="url(#pab3b64afcd)" style="fill: #4f81bd; stroke: #385d8a; stroke-width: 0.7; stroke-linejoin: miter"/>
   </g>
   <g id="patch_6">
    <path d="M 385.505814 341.832228 
L 425.366831 341.832228 
L 425.366831 116.720852 
L 385.505814 116.720852 
z
" clip-path="url(#pab3b64afcd)" style="fill: #4f81bd; stroke: #385d8a; stroke-width: 0.7; stroke-linejoin: miter"/>
   </g>
   <g id="patch_7">
    <path d="M 490.403226 341.832228 
L 530.264242 341.832228 
L 530.264242 200.697947 
L 490.403226 200.697947 
z
" clip-path="url(#pab3b64afcd)" style="fill: #4f81bd; stroke: #385d8a; stroke-width: 0.7; stroke-linejoin: miter"/>
   </g>
   <g id="patch_8">
    <path d="M 595.300638 341.832228 
L 635.161654 341.832228 
L 635.161654 183.990462 
L 595.300638 183.990462 
z
" clip-path="url(#pab3b64afcd)" style="fill: #4f81bd; stroke: #385d8a; stroke-width: 0.7; stroke-linejoin: miter"/>
   </g>
   <g id="patch_9">
    <path d="M 110.674596 341.832228 
L 150.535612 341.832228 
L 150.535612 112.324145 
L 110.674596 112.324145 
z
" clip-path="url(#pab3b64afcd)" style="fill: #c0504d; stroke: #963634; stroke-width: 0.7; stroke-linejoin: miter"/>
   </g>
   <g id="patch_10">
    <path d="M 215.572008 341.832228 
L 255.433024 341.832228 
L 255.433024 123.315911 
L 215.572008 123.315911 
z
" clip-path="url(#pab3b64afcd)" style="fill: #c0504d; stroke: #963634; stroke-width: 0.7; stroke-linejoin: miter"/>
   </g>
   <g id="patch_11">
    <path d="M 320.469419 341.832228 
L 360.330436 341.832228 
L 360.330436 60.882678 
L 320.469419 60.882678 
z
" clip-path="url(#pab3b64afcd)" style="fill: #c0504d; stroke: #963634; stroke-width: 0.7; stroke-linejoin: miter"/>
   </g>
   <g id="patch_12">
    <path d="M 425.366831 341.832228 
L 465.227847 341.832228 
L 465.227847 133.868007 
L 425.366831 133.868007 
z
" clip-path="url(#pab3b64afcd)" style="fill: #c0504d; stroke: #963634; stroke-width: 0.7; stroke-linejoin: miter"/>
   </g>
   <g id="patch_13">
    <path d="M 530.264242 341.832228 
L 570.125259 341.832228 
L 570.125259 50.330582 
L 530.264242 50.330582 
z
" clip-path="url(#pab3b64afcd)" style="fill: #c0504d; stroke: #963634; stroke-width: 0.7; stroke-linejoin: miter"/>
   </g>
   <g id="patch_14">
    <path d="M 635.161654 341.832228 
L 675.02267 341.832228 
L 675.02267 75.39181 
L 635.161654 75.39181 
z
" clip-path="url(#pab3b64afcd)" style="fill: #c0504d; stroke: #963634; stroke-width: 0.7; stroke-linejoin: miter"/>
   </g>
   <g id="matplotlib.axis_1">
    <g id="xtick_1">
     <g id="line2d_1">
      <defs>
       <path id="mc6ee6e0214" d="M 0 0 
L 0 3.5 
" style="stroke: #000000; stroke-width: 0.8"/>
      </defs>
      <g>
       <use xlink:href="#mc6ee6e0214" x="110.674596" y="341.832228" style="stroke: #000000; stroke-width: 0.8"/>
      </g>
     </g>
     <g id="text_1">
      <!-- Stewart, GA -->
      <g transform="translate(60.574519 389.301706) rotate(-35) scale(0.1 -0.1)">
       <defs>
        <path id="DejaVuSans-53" d="M 3425 4513 
L 3425 3897 
Q 3066 4069 2747 4153 
Q 2428 4238 2131 4238 
Q 1616 4238 1336 4038 
Q 1056 3838 1056 3469 
Q 1056 3159 1242 3001 
Q 1428 2844 1947 2747 
L 2328 2669 
Q 3034 2534 3370 2195 
Q 3706 1856 3706 1288 
Q 3706 609 3251 259 
Q 2797 -91 1919 -91 
Q 1588 -91 1214 -16 
Q 841 59 441 206 
L 441 856 
Q 825 641 1194 531 
Q 1563 422 1919 422 
Q 2459 422 2753 634 
Q 3047 847 3047 1241 
Q 3047 1584 2836 1778 
Q 2625 1972 2144 2069 
L 1759 2144 
Q 1053 2284 737 2584 
Q 422 2884 422 3419 
Q 422 4038 858 4394 
Q 1294 4750 2059 4750 
Q 2388 4750 2728 4690 
Q 3069 4631 3425 4513 
z
" transform="scale(0.015625)"/>
        <path id="DejaVuSans-74" d="M 1172 4494 
L 1172 3500 
L 2356 3500 
L 2356 3053 
L 1172 3053 
L 1172 1153 
Q 1172 725 1289 603 
Q 1406 481 1766 481 
L 2356 481 
L 2356 0 
L 1766 0 
Q 1100 0 847 248 
Q 594 497 594 1153 
L 594 3053 
L 172 3053 
L 172 3500 
L 594 3500 
L 594 4494 
L 1172 4494 
z
" transform="scale(0.015625)"/>
        <path id="DejaVuSans-65" d="M 3597 1894 
L 3597 1613 
L 953 1613 
Q 991 1019 1311 708 
Q 1631 397 2203 397 
Q 2534 397 2845 478 
Q 3156 559 3463 722 
L 3463 178 
Q 3153 47 2828 -22 
Q 2503 -91 2169 -91 
Q 1331 -91 842 396 
Q 353 884 353 1716 
Q 353 2575 817 3079 
Q 1281 3584 2069 3584 
Q 2775 3584 3186 3129 
Q 3597 2675 3597 1894 
z
M 3022 2063 
Q 3016 2534 2758 2815 
Q 2500 3097 2075 3097 
Q 1594 3097 1305 2825 
Q 1016 2553 972 2059 
L 3022 2063 
z
" transform="scale(0.015625)"/>
        <path id="DejaVuSans-77" d="M 269 3500 
L 844 3500 
L 1563 769 
L 2278 3500 
L 2956 3500 
L 3675 769 
L 4391 3500 
L 4966 3500 
L 4050 0 
L 3372 0 
L 2619 2869 
L 1863 0 
L 1184 0 
L 269 3500 
z
" transform="scale(0.015625)"/>
        <path id="DejaVuSans-61" d="M 2194 1759 
Q 1497 1759 1228 1600 
Q 959 1441 959 1056 
Q 959 750 1161 570 
Q 1363 391 1709 391 
Q 2188 391 2477 730 
Q 2766 1069 2766 1631 
L 2766 1759 
L 2194 1759 
z
M 3341 1997 
L 3341 0 
L 2766 0 
L 2766 531 
Q 2569 213 2275 61 
Q 1981 -91 1556 -91 
Q 1019 -91 701 211 
Q 384 513 384 1019 
Q 384 1609 779 1909 
Q 1175 2209 1959 2209 
L 2766 2209 
L 2766 2266 
Q 2766 2663 2505 2880 
Q 2244 3097 1772 3097 
Q 1472 3097 1187 3025 
Q 903 2953 641 2809 
L 641 3341 
Q 956 3463 1253 3523 
Q 1550 3584 1831 3584 
Q 2591 3584 2966 3190 
Q 3341 2797 3341 1997 
z
" transform="scale(0.015625)"/>
        <path id="DejaVuSans-72" d="M 2631 2963 
Q 2534 3019 2420 3045 
Q 2306 3072 2169 3072 
Q 1681 3072 1420 2755 
Q 1159 2438 1159 1844 
L 1159 0 
L 581 0 
L 581 3500 
L 1159 3500 
L 1159 2956 
Q 1341 3275 1631 3429 
Q 1922 3584 2338 3584 
Q 2397 3584 2469 3576 
Q 2541 3569 2628 3553 
L 2631 2963 
z
" transform="scale(0.015625)"/>
        <path id="DejaVuSans-2c" d="M 750 794 
L 1409 794 
L 1409 256 
L 897 -744 
L 494 -744 
L 750 256 
L 750 794 
z
" transform="scale(0.015625)"/>
        <path id="DejaVuSans-20" transform="scale(0.015625)"/>
        <path id="DejaVuSans-47" d="M 3809 666 
L 3809 1919 
L 2778 1919 
L 2778 2438 
L 4434 2438 
L 4434 434 
Q 4069 175 3628 42 
Q 3188 -91 2688 -91 
Q 1594 -91 976 548 
Q 359 1188 359 2328 
Q 359 3472 976 4111 
Q 1594 4750 2688 4750 
Q 3144 4750 3555 4637 
Q 3966 4525 4313 4306 
L 4313 3634 
Q 3963 3931 3569 4081 
Q 3175 4231 2741 4231 
Q 1884 4231 1454 3753 
Q 1025 3275 1025 2328 
Q 1025 1384 1454 906 
Q 1884 428 2741 428 
Q 3075 428 3337 486 
Q 3600 544 3809 666 
z
" transform="scale(0.015625)"/>
        <path id="DejaVuSans-41" d="M 2188 4044 
L 1331 1722 
L 3047 1722 
L 2188 4044 
z
M 1831 4666 
L 2547 4666 
L 4325 0 
L 3669 0 
L 3244 1197 
L 1141 1197 
L 716 0 
L 50 0 
L 1831 4666 
z
" transform="scale(0.015625)"/>
       </defs>
       <use xlink:href="#DejaVuSans-53"/>
       <use xlink:href="#DejaVuSans-74" transform="translate(63.476562 0)"/>
       <use xlink:href="#DejaVuSans-65" transform="translate(102.685547 0)"/>
       <use xlink:href="#DejaVuSans-77" transform="translate(164.208984 0)"/>
       <use xlink:href="#DejaVuSans-61" transform="translate(245.996094 0)"/>
       <use xlink:href="#DejaVuSans-72" transform="translate(307.275391 0)"/>
       <use xlink:href="#DejaVuSans-74" transform="translate(348.388672 0)"/>
       <use xlink:href="#DejaVuSans-2c" transform="translate(387.597656 0)"/>
       <use xlink:href="#DejaVuSans-20" transform="translate(419.384766 0)"/>
       <use xlink:href="#DejaVuSans-47" transform="translate(451.171875 0)"/>
       <use xlink:href="#DejaVuSans-41" transform="translate(528.662109 0)"/>
      </g>
     </g>
    </g>
    <g id="xtick_2">
     <g id="line2d_2">
      <g>
       <use xlink:href="#mc6ee6e0214" x="215.572008" y="341.832228" style="stroke: #000000; stroke-width: 0.8"/>
      </g>
     </g>
     <g id="text_2">
      <!-- Luna, NM -->
      <g transform="translate(176.152906 381.822807) rotate(-35) scale(0.1 -0.1)">
       <defs>
        <path id="DejaVuSans-4c" d="M 628 4666 
L 1259 4666 
L 1259 531 
L 3531 531 
L 3531 0 
L 628 0 
L 628 4666 
z
" transform="scale(0.015625)"/>
        <path id="DejaVuSans-75" d="M 544 1381 
L 544 3500 
L 1119 3500 
L 1119 1403 
Q 1119 906 1312 657 
Q 1506 409 1894 409 
Q 2359 409 2629 706 
Q 2900 1003 2900 1516 
L 2900 3500 
L 3475 3500 
L 3475 0 
L 2900 0 
L 2900 538 
Q 2691 219 2414 64 
Q 2138 -91 1772 -91 
Q 1169 -91 856 284 
Q 544 659 544 1381 
z
M 1991 3584 
L 1991 3584 
z
" transform="scale(0.015625)"/>
        <path id="DejaVuSans-6e" d="M 3513 2113 
L 3513 0 
L 2938 0 
L 2938 2094 
Q 2938 2591 2744 2837 
Q 2550 3084 2163 3084 
Q 1697 3084 1428 2787 
Q 1159 2491 1159 1978 
L 1159 0 
L 581 0 
L 581 3500 
L 1159 3500 
L 1159 2956 
Q 1366 3272 1645 3428 
Q 1925 3584 2291 3584 
Q 2894 3584 3203 3211 
Q 3513 2838 3513 2113 
z
" transform="scale(0.015625)"/>
        <path id="DejaVuSans-4e" d="M 628 4666 
L 1478 4666 
L 3547 763 
L 3547 4666 
L 4159 4666 
L 4159 0 
L 3309 0 
L 1241 3903 
L 1241 0 
L 628 0 
L 628 4666 
z
" transform="scale(0.015625)"/>
        <path id="DejaVuSans-4d" d="M 628 4666 
L 1569 4666 
L 2759 1491 
L 3956 4666 
L 4897 4666 
L 4897 0 
L 4281 0 
L 4281 4097 
L 3078 897 
L 2444 897 
L 1241 4097 
L 1241 0 
L 628 0 
L 628 4666 
z
" transform="scale(0.015625)"/>
       </defs>
       <use xlink:href="#DejaVuSans-4c"/>
       <use xlink:href="#DejaVuSans-75" transform="translate(53.962891 0)"/>
       <use xlink:href="#DejaVuSans-6e" transform="translate(117.341797 0)"/>
       <use xlink:href="#DejaVuSans-61" transform="translate(180.720703 0)"/>
       <use xlink:href="#DejaVuSans-2c" transform="translate(242 0)"/>
       <use xlink:href="#DejaVuSans-20" transform="translate(273.787109 0)"/>
       <use xlink:href="#DejaVuSans-4e" transform="translate(305.574219 0)"/>
       <use xlink:href="#DejaVuSans-4d" transform="translate(380.378906 0)"/>
      </g>
     </g>
    </g>
    <g id="xtick_3">
     <g id="line2d_3">
      <g>
       <use xlink:href="#mc6ee6e0214" x="320.469419" y="341.832228" style="stroke: #000000; stroke-width: 0.8"/>
      </g>
     </g>
     <g id="text_3">
      <!-- Kusilvak, AK -->
      <g transform="translate(269.510513 389.903065) rotate(-35) scale(0.1 -0.1)">
       <defs>
        <path id="DejaVuSans-4b" d="M 628 4666 
L 1259 4666 
L 1259 2694 
L 3353 4666 
L 4166 4666 
L 1850 2491 
L 4331 0 
L 3500 0 
L 1259 2247 
L 1259 0 
L 628 0 
L 628 4666 
z
" transform="scale(0.015625)"/>
        <path id="DejaVuSans-73" d="M 2834 3397 
L 2834 2853 
Q 2591 2978 2328 3040 
Q 2066 3103 1784 3103 
Q 1356 3103 1142 2972 
Q 928 2841 928 2578 
Q 928 2378 1081 2264 
Q 1234 2150 1697 2047 
L 1894 2003 
Q 2506 1872 2764 1633 
Q 3022 1394 3022 966 
Q 3022 478 2636 193 
Q 2250 -91 1575 -91 
Q 1294 -91 989 -36 
Q 684 19 347 128 
L 347 722 
Q 666 556 975 473 
Q 1284 391 1588 391 
Q 1994 391 2212 530 
Q 2431 669 2431 922 
Q 2431 1156 2273 1281 
Q 2116 1406 1581 1522 
L 1381 1569 
Q 847 1681 609 1914 
Q 372 2147 372 2553 
Q 372 3047 722 3315 
Q 1072 3584 1716 3584 
Q 2034 3584 2315 3537 
Q 2597 3491 2834 3397 
z
" transform="scale(0.015625)"/>
        <path id="DejaVuSans-69" d="M 603 3500 
L 1178 3500 
L 1178 0 
L 603 0 
L 603 3500 
z
M 603 4863 
L 1178 4863 
L 1178 4134 
L 603 4134 
L 603 4863 
z
" transform="scale(0.015625)"/>
        <path id="DejaVuSans-6c" d="M 603 4863 
L 1178 4863 
L 1178 0 
L 603 0 
L 603 4863 
z
" transform="scale(0.015625)"/>
        <path id="DejaVuSans-76" d="M 191 3500 
L 800 3500 
L 1894 563 
L 2988 3500 
L 3597 3500 
L 2284 0 
L 1503 0 
L 191 3500 
z
" transform="scale(0.015625)"/>
        <path id="DejaVuSans-6b" d="M 581 4863 
L 1159 4863 
L 1159 1991 
L 2875 3500 
L 3609 3500 
L 1753 1863 
L 3688 0 
L 2938 0 
L 1159 1709 
L 1159 0 
L 581 0 
L 581 4863 
z
" transform="scale(0.015625)"/>
       </defs>
       <use xlink:href="#DejaVuSans-4b"/>
       <use xlink:href="#DejaVuSans-75" transform="translate(60.576172 0)"/>
       <use xlink:href="#DejaVuSans-73" transform="translate(123.955078 0)"/>
       <use xlink:href="#DejaVuSans-69" transform="translate(176.054688 0)"/>
       <use xlink:href="#DejaVuSans-6c" transform="translate(203.837891 0)"/>
       <use xlink:href="#DejaVuSans-76" transform="translate(231.621094 0)"/>
       <use xlink:href="#DejaVuSans-61" transform="translate(290.800781 0)"/>
       <use xlink:href="#DejaVuSans-6b" transform="translate(352.080078 0)"/>
       <use xlink:href="#DejaVuSans-2c" transform="translate(409.990234 0)"/>
       <use xlink:href="#DejaVuSans-20" transform="translate(441.777344 0)"/>
       <use xlink:href="#DejaVuSans-41" transform="translate(473.564453 0)"/>
       <use xlink:href="#DejaVuSans-4b" transform="translate(541.972656 0)"/>
      </g>
     </g>
    </g>
    <g id="xtick_4">
     <g id="line2d_4">
      <g>
       <use xlink:href="#mc6ee6e0214" x="425.366831" y="341.832228" style="stroke: #000000; stroke-width: 0.8"/>
      </g>
     </g>
     <g id="text_4">
      <!-- Atkinson, GA -->
      <g transform="translate(371.663765 391.824546) rotate(-35) scale(0.1 -0.1)">
       <defs>
        <path id="DejaVuSans-6f" d="M 1959 3097 
Q 1497 3097 1228 2736 
Q 959 2375 959 1747 
Q 959 1119 1226 758 
Q 1494 397 1959 397 
Q 2419 397 2687 759 
Q 2956 1122 2956 1747 
Q 2956 2369 2687 2733 
Q 2419 3097 1959 3097 
z
M 1959 3584 
Q 2709 3584 3137 3096 
Q 3566 2609 3566 1747 
Q 3566 888 3137 398 
Q 2709 -91 1959 -91 
Q 1206 -91 779 398 
Q 353 888 353 1747 
Q 353 2609 779 3096 
Q 1206 3584 1959 3584 
z
" transform="scale(0.015625)"/>
       </defs>
       <use xlink:href="#DejaVuSans-41"/>
       <use xlink:href="#DejaVuSans-74" transform="translate(66.658203 0)"/>
       <use xlink:href="#DejaVuSans-6b" transform="translate(105.867188 0)"/>
       <use xlink:href="#DejaVuSans-69" transform="translate(163.777344 0)"/>
       <use xlink:href="#DejaVuSans-6e" transform="translate(191.560547 0)"/>
       <use xlink:href="#DejaVuSans-73" transform="translate(254.939453 0)"/>
       <use xlink:href="#DejaVuSans-6f" transform="translate(307.039062 0)"/>
       <use xlink:href="#DejaVuSans-6e" transform="translate(368.220703 0)"/>
       <use xlink:href="#DejaVuSans-2c" transform="translate(431.599609 0)"/>
       <use xlink:href="#DejaVuSans-20" transform="translate(463.386719 0)"/>
       <use xlink:href="#DejaVuSans-47" transform="translate(495.173828 0)"/>
       <use xlink:href="#DejaVuSans-41" transform="translate(572.664062 0)"/>
      </g>
     </g>
    </g>
    <g id="xtick_5">
     <g id="line2d_5">
      <g>
       <use xlink:href="#mc6ee6e0214" x="530.264242" y="341.832228" style="stroke: #000000; stroke-width: 0.8"/>
      </g>
     </g>
     <g id="text_5">
      <!-- East Carroll, LA -->
      <g transform="translate(466.524004 398.85265) rotate(-35) scale(0.1 -0.1)">
       <defs>
        <path id="DejaVuSans-45" d="M 628 4666 
L 3578 4666 
L 3578 4134 
L 1259 4134 
L 1259 2753 
L 3481 2753 
L 3481 2222 
L 1259 2222 
L 1259 531 
L 3634 531 
L 3634 0 
L 628 0 
L 628 4666 
z
" transform="scale(0.015625)"/>
        <path id="DejaVuSans-43" d="M 4122 4306 
L 4122 3641 
Q 3803 3938 3442 4084 
Q 3081 4231 2675 4231 
Q 1875 4231 1450 3742 
Q 1025 3253 1025 2328 
Q 1025 1406 1450 917 
Q 1875 428 2675 428 
Q 3081 428 3442 575 
Q 3803 722 4122 1019 
L 4122 359 
Q 3791 134 3420 21 
Q 3050 -91 2638 -91 
Q 1578 -91 968 557 
Q 359 1206 359 2328 
Q 359 3453 968 4101 
Q 1578 4750 2638 4750 
Q 3056 4750 3426 4639 
Q 3797 4528 4122 4306 
z
" transform="scale(0.015625)"/>
       </defs>
       <use xlink:href="#DejaVuSans-45"/>
       <use xlink:href="#DejaVuSans-61" transform="translate(63.183594 0)"/>
       <use xlink:href="#DejaVuSans-73" transform="translate(124.462891 0)"/>
       <use xlink:href="#DejaVuSans-74" transform="translate(176.5625 0)"/>
       <use xlink:href="#DejaVuSans-20" transform="translate(215.771484 0)"/>
       <use xlink:href="#DejaVuSans-43" transform="translate(247.558594 0)"/>
       <use xlink:href="#DejaVuSans-61" transform="translate(317.382812 0)"/>
       <use xlink:href="#DejaVuSans-72" transform="translate(378.662109 0)"/>
       <use xlink:href="#DejaVuSans-72" transform="translate(418.025391 0)"/>
       <use xlink:href="#DejaVuSans-6f" transform="translate(456.888672 0)"/>
       <use xlink:href="#DejaVuSans-6c" transform="translate(518.070312 0)"/>
       <use xlink:href="#DejaVuSans-6c" transform="translate(545.853516 0)"/>
       <use xlink:href="#DejaVuSans-2c" transform="translate(573.636719 0)"/>
       <use xlink:href="#DejaVuSans-20" transform="translate(605.423828 0)"/>
       <use xlink:href="#DejaVuSans-4c" transform="translate(637.210938 0)"/>
       <use xlink:href="#DejaVuSans-41" transform="translate(695.173828 0)"/>
      </g>
     </g>
    </g>
    <g id="xtick_6">
     <g id="line2d_6">
      <g>
       <use xlink:href="#mc6ee6e0214" x="635.161654" y="341.832228" style="stroke: #000000; stroke-width: 0.8"/>
      </g>
     </g>
     <g id="text_6">
      <!-- Bullock, AL -->
      <g transform="translate(588.971749 386.563774) rotate(-35) scale(0.1 -0.1)">
       <defs>
        <path id="DejaVuSans-42" d="M 1259 2228 
L 1259 519 
L 2272 519 
Q 2781 519 3026 730 
Q 3272 941 3272 1375 
Q 3272 1813 3026 2020 
Q 2781 2228 2272 2228 
L 1259 2228 
z
M 1259 4147 
L 1259 2741 
L 2194 2741 
Q 2656 2741 2882 2914 
Q 3109 3088 3109 3444 
Q 3109 3797 2882 3972 
Q 2656 4147 2194 4147 
L 1259 4147 
z
M 628 4666 
L 2241 4666 
Q 2963 4666 3353 4366 
Q 3744 4066 3744 3513 
Q 3744 3084 3544 2831 
Q 3344 2578 2956 2516 
Q 3422 2416 3680 2098 
Q 3938 1781 3938 1306 
Q 3938 681 3513 340 
Q 3088 0 2303 0 
L 628 0 
L 628 4666 
z
" transform="scale(0.015625)"/>
        <path id="DejaVuSans-63" d="M 3122 3366 
L 3122 2828 
Q 2878 2963 2633 3030 
Q 2388 3097 2138 3097 
Q 1578 3097 1268 2742 
Q 959 2388 959 1747 
Q 959 1106 1268 751 
Q 1578 397 2138 397 
Q 2388 397 2633 464 
Q 2878 531 3122 666 
L 3122 134 
Q 2881 22 2623 -34 
Q 2366 -91 2075 -91 
Q 1284 -91 818 406 
Q 353 903 353 1747 
Q 353 2603 823 3093 
Q 1294 3584 2113 3584 
Q 2378 3584 2631 3529 
Q 2884 3475 3122 3366 
z
" transform="scale(0.015625)"/>
       </defs>
       <use xlink:href="#DejaVuSans-42"/>
       <use xlink:href="#DejaVuSans-75" transform="translate(68.603516 0)"/>
       <use xlink:href="#DejaVuSans-6c" transform="translate(131.982422 0)"/>
       <use xlink:href="#DejaVuSans-6c" transform="translate(159.765625 0)"/>
       <use xlink:href="#DejaVuSans-6f" transform="translate(187.548828 0)"/>
       <use xlink:href="#DejaVuSans-63" transform="translate(248.730469 0)"/>
       <use xlink:href="#DejaVuSans-6b" transform="translate(303.710938 0)"/>
       <use xlink:href="#DejaVuSans-2c" transform="translate(361.621094 0)"/>
       <use xlink:href="#DejaVuSans-20" transform="translate(393.408203 0)"/>
       <use xlink:href="#DejaVuSans-41" transform="translate(425.195312 0)"/>
       <use xlink:href="#DejaVuSans-4c" transform="translate(493.603516 0)"/>
      </g>
     </g>
    </g>
    <g id="text_7">
     <!-- County -->
     <g transform="translate(355.110313 412.154667) scale(0.1 -0.1)">
      <defs>
       <path id="DejaVuSans-79" d="M 2059 -325 
Q 1816 -950 1584 -1140 
Q 1353 -1331 966 -1331 
L 506 -1331 
L 506 -850 
L 844 -850 
Q 1081 -850 1212 -737 
Q 1344 -625 1503 -206 
L 1606 56 
L 191 3500 
L 800 3500 
L 1894 763 
L 2988 3500 
L 3597 3500 
L 2059 -325 
z
" transform="scale(0.015625)"/>
      </defs>
      <use xlink:href="#DejaVuSans-43"/>
      <use xlink:href="#DejaVuSans-6f" transform="translate(69.824219 0)"/>
      <use xlink:href="#DejaVuSans-75" transform="translate(131.005859 0)"/>
      <use xlink:href="#DejaVuSans-6e" transform="translate(194.384766 0)"/>
      <use xlink:href="#DejaVuSans-74" transform="translate(257.763672 0)"/>
      <use xlink:href="#DejaVuSans-79" transform="translate(296.972656 0)"/>
     </g>
    </g>
   </g>
   <g id="matplotlib.axis_2">
    <g id="ytick_1">
     <g id="line2d_7">
      <path d="M 40.603125 341.832228 
L 705.233125 341.832228 
" clip-path="url(#pab3b64afcd)" style="fill: none; stroke-dasharray: 1.85,0.8; stroke-dashoffset: 0; stroke: #b0b0b0; stroke-opacity: 0.4; stroke-width: 0.5"/>
     </g>
     <g id="line2d_8">
      <defs>
       <path id="m3226ab6930" d="M 0 0 
L -3.5 0 
" style="stroke: #000000; stroke-width: 0.8"/>
      </defs>
      <g>
       <use xlink:href="#m3226ab6930" x="40.603125" y="341.832228" style="stroke: #000000; stroke-width: 0.8"/>
      </g>
     </g>
     <g id="text_8">
      <!-- 0 -->
      <g transform="translate(27.240625 345.631447) scale(0.1 -0.1)">
       <defs>
        <path id="DejaVuSans-30" d="M 2034 4250 
Q 1547 4250 1301 3770 
Q 1056 3291 1056 2328 
Q 1056 1369 1301 889 
Q 1547 409 2034 409 
Q 2525 409 2770 889 
Q 3016 1369 3016 2328 
Q 3016 3291 2770 3770 
Q 2525 4250 2034 4250 
z
M 2034 4750 
Q 2819 4750 3233 4129 
Q 3647 3509 3647 2328 
Q 3647 1150 3233 529 
Q 2819 -91 2034 -91 
Q 1250 -91 836 529 
Q 422 1150 422 2328 
Q 422 3509 836 4129 
Q 1250 4750 2034 4750 
z
" transform="scale(0.015625)"/>
       </defs>
       <use xlink:href="#DejaVuSans-30"/>
      </g>
     </g>
    </g>
    <g id="ytick_2">
     <g id="line2d_9">
      <path d="M 40.603125 297.865162 
L 705.233125 297.865162 
" clip-path="url(#pab3b64afcd)" style="fill: none; stroke-dasharray: 1.85,0.8; stroke-dashoffset: 0; stroke: #b0b0b0; stroke-opacity: 0.4; stroke-width: 0.5"/>
     </g>
     <g id="line2d_10">
      <g>
       <use xlink:href="#m3226ab6930" x="40.603125" y="297.865162" style="stroke: #000000; stroke-width: 0.8"/>
      </g>
     </g>
     <g id="text_9">
      <!-- 5 -->
      <g transform="translate(27.240625 301.664381) scale(0.1 -0.1)">
       <defs>
        <path id="DejaVuSans-35" d="M 691 4666 
L 3169 4666 
L 3169 4134 
L 1269 4134 
L 1269 2991 
Q 1406 3038 1543 3061 
Q 1681 3084 1819 3084 
Q 2600 3084 3056 2656 
Q 3513 2228 3513 1497 
Q 3513 744 3044 326 
Q 2575 -91 1722 -91 
Q 1428 -91 1123 -41 
Q 819 9 494 109 
L 494 744 
Q 775 591 1075 516 
Q 1375 441 1709 441 
Q 2250 441 2565 725 
Q 2881 1009 2881 1497 
Q 2881 1984 2565 2268 
Q 2250 2553 1709 2553 
Q 1456 2553 1204 2497 
Q 953 2441 691 2322 
L 691 4666 
z
" transform="scale(0.015625)"/>
       </defs>
       <use xlink:href="#DejaVuSans-35"/>
      </g>
     </g>
    </g>
    <g id="ytick_3">
     <g id="line2d_11">
      <path d="M 40.603125 253.898097 
L 705.233125 253.898097 
" clip-path="url(#pab3b64afcd)" style="fill: none; stroke-dasharray: 1.85,0.8; stroke-dashoffset: 0; stroke: #b0b0b0; stroke-opacity: 0.4; stroke-width: 0.5"/>
     </g>
     <g id="line2d_12">
      <g>
       <use xlink:href="#m3226ab6930" x="40.603125" y="253.898097" style="stroke: #000000; stroke-width: 0.8"/>
      </g>
     </g>
     <g id="text_10">
      <!-- 10 -->
      <g transform="translate(20.878125 257.697315) scale(0.1 -0.1)">
       <defs>
        <path id="DejaVuSans-31" d="M 794 531 
L 1825 531 
L 1825 4091 
L 703 3866 
L 703 4441 
L 1819 4666 
L 2450 4666 
L 2450 531 
L 3481 531 
L 3481 0 
L 794 0 
L 794 531 
z
" transform="scale(0.015625)"/>
       </defs>
       <use xlink:href="#DejaVuSans-31"/>
       <use xlink:href="#DejaVuSans-30" transform="translate(63.623047 0)"/>
      </g>
     </g>
    </g>
    <g id="ytick_4">
     <g id="line2d_13">
      <path d="M 40.603125 209.931031 
L 705.233125 209.931031 
" clip-path="url(#pab3b64afcd)" style="fill: none; stroke-dasharray: 1.85,0.8; stroke-dashoffset: 0; stroke: #b0b0b0; stroke-opacity: 0.4; stroke-width: 0.5"/>
     </g>
     <g id="line2d_14">
      <g>
       <use xlink:href="#m3226ab6930" x="40.603125" y="209.931031" style="stroke: #000000; stroke-width: 0.8"/>
      </g>
     </g>
     <g id="text_11">
      <!-- 15 -->
      <g transform="translate(20.878125 213.73025) scale(0.1 -0.1)">
       <use xlink:href="#DejaVuSans-31"/>
       <use xlink:href="#DejaVuSans-35" transform="translate(63.623047 0)"/>
      </g>
     </g>
    </g>
    <g id="ytick_5">
     <g id="line2d_15">
      <path d="M 40.603125 165.963965 
L 705.233125 165.963965 
" clip-path="url(#pab3b64afcd)" style="fill: none; stroke-dasharray: 1.85,0.8; stroke-dashoffset: 0; stroke: #b0b0b0; stroke-opacity: 0.4; stroke-width: 0.5"/>
     </g>
     <g id="line2d_16">
      <g>
       <use xlink:href="#m3226ab6930" x="40.603125" y="165.963965" style="stroke: #000000; stroke-width: 0.8"/>
      </g>
     </g>
     <g id="text_12">
      <!-- 20 -->
      <g transform="translate(20.878125 169.763184) scale(0.1 -0.1)">
       <defs>
        <path id="DejaVuSans-32" d="M 1228 531 
L 3431 531 
L 3431 0 
L 469 0 
L 469 531 
Q 828 903 1448 1529 
Q 2069 2156 2228 2338 
Q 2531 2678 2651 2914 
Q 2772 3150 2772 3378 
Q 2772 3750 2511 3984 
Q 2250 4219 1831 4219 
Q 1534 4219 1204 4116 
Q 875 4013 500 3803 
L 500 4441 
Q 881 4594 1212 4672 
Q 1544 4750 1819 4750 
Q 2544 4750 2975 4387 
Q 3406 4025 3406 3419 
Q 3406 3131 3298 2873 
Q 3191 2616 2906 2266 
Q 2828 2175 2409 1742 
Q 1991 1309 1228 531 
z
" transform="scale(0.015625)"/>
       </defs>
       <use xlink:href="#DejaVuSans-32"/>
       <use xlink:href="#DejaVuSans-30" transform="translate(63.623047 0)"/>
      </g>
     </g>
    </g>
    <g id="ytick_6">
     <g id="line2d_17">
      <path d="M 40.603125 121.996899 
L 705.233125 121.996899 
" clip-path="url(#pab3b64afcd)" style="fill: none; stroke-dasharray: 1.85,0.8; stroke-dashoffset: 0; stroke: #b0b0b0; stroke-opacity: 0.4; stroke-width: 0.5"/>
     </g>
     <g id="line2d_18">
      <g>
       <use xlink:href="#m3226ab6930" x="40.603125" y="121.996899" style="stroke: #000000; stroke-width: 0.8"/>
      </g>
     </g>
     <g id="text_13">
      <!-- 25 -->
      <g transform="translate(20.878125 125.796118) scale(0.1 -0.1)">
       <use xlink:href="#DejaVuSans-32"/>
       <use xlink:href="#DejaVuSans-35" transform="translate(63.623047 0)"/>
      </g>
     </g>
    </g>
    <g id="ytick_7">
     <g id="line2d_19">
      <path d="M 40.603125 78.029834 
L 705.233125 78.029834 
" clip-path="url(#pab3b64afcd)" style="fill: none; stroke-dasharray: 1.85,0.8; stroke-dashoffset: 0; stroke: #b0b0b0; stroke-opacity: 0.4; stroke-width: 0.5"/>
     </g>
     <g id="line2d_20">
      <g>
       <use xlink:href="#m3226ab6930" x="40.603125" y="78.029834" style="stroke: #000000; stroke-width: 0.8"/>
      </g>
     </g>
     <g id="text_14">
      <!-- 30 -->
      <g transform="translate(20.878125 81.829052) scale(0.1 -0.1)">
       <defs>
        <path id="DejaVuSans-33" d="M 2597 2516 
Q 3050 2419 3304 2112 
Q 3559 1806 3559 1356 
Q 3559 666 3084 287 
Q 2609 -91 1734 -91 
Q 1441 -91 1130 -33 
Q 819 25 488 141 
L 488 750 
Q 750 597 1062 519 
Q 1375 441 1716 441 
Q 2309 441 2620 675 
Q 2931 909 2931 1356 
Q 2931 1769 2642 2001 
Q 2353 2234 1838 2234 
L 1294 2234 
L 1294 2753 
L 1863 2753 
Q 2328 2753 2575 2939 
Q 2822 3125 2822 3475 
Q 2822 3834 2567 4026 
Q 2313 4219 1838 4219 
Q 1578 4219 1281 4162 
Q 984 4106 628 3988 
L 628 4550 
Q 988 4650 1302 4700 
Q 1616 4750 1894 4750 
Q 2613 4750 3031 4423 
Q 3450 4097 3450 3541 
Q 3450 3153 3228 2886 
Q 3006 2619 2597 2516 
z
" transform="scale(0.015625)"/>
       </defs>
       <use xlink:href="#DejaVuSans-33"/>
       <use xlink:href="#DejaVuSans-30" transform="translate(63.623047 0)"/>
      </g>
     </g>
    </g>
    <g id="text_15">
     <!-- Percentage -->
     <g transform="translate(14.798438 216.91652) rotate(-90) scale(0.1 -0.1)">
      <defs>
       <path id="DejaVuSans-50" d="M 1259 4147 
L 1259 2394 
L 2053 2394 
Q 2494 2394 2734 2622 
Q 2975 2850 2975 3272 
Q 2975 3691 2734 3919 
Q 2494 4147 2053 4147 
L 1259 4147 
z
M 628 4666 
L 2053 4666 
Q 2838 4666 3239 4311 
Q 3641 3956 3641 3272 
Q 3641 2581 3239 2228 
Q 2838 1875 2053 1875 
L 1259 1875 
L 1259 0 
L 628 0 
L 628 4666 
z
" transform="scale(0.015625)"/>
       <path id="DejaVuSans-67" d="M 2906 1791 
Q 2906 2416 2648 2759 
Q 2391 3103 1925 3103 
Q 1463 3103 1205 2759 
Q 947 2416 947 1791 
Q 947 1169 1205 825 
Q 1463 481 1925 481 
Q 2391 481 2648 825 
Q 2906 1169 2906 1791 
z
M 3481 434 
Q 3481 -459 3084 -895 
Q 2688 -1331 1869 -1331 
Q 1566 -1331 1297 -1286 
Q 1028 -1241 775 -1147 
L 775 -588 
Q 1028 -725 1275 -790 
Q 1522 -856 1778 -856 
Q 2344 -856 2625 -561 
Q 2906 -266 2906 331 
L 2906 616 
Q 2728 306 2450 153 
Q 2172 0 1784 0 
Q 1141 0 747 490 
Q 353 981 353 1791 
Q 353 2603 747 3093 
Q 1141 3584 1784 3584 
Q 2172 3584 2450 3431 
Q 2728 3278 2906 2969 
L 2906 3500 
L 3481 3500 
L 3481 434 
z
" transform="scale(0.015625)"/>
      </defs>
      <use xlink:href="#DejaVuSans-50"/>
      <use xlink:href="#DejaVuSans-65" transform="translate(56.677734 0)"/>
      <use xlink:href="#DejaVuSans-72" transform="translate(118.201172 0)"/>
      <use xlink:href="#DejaVuSans-63" transform="translate(157.064453 0)"/>
      <use xlink:href="#DejaVuSans-65" transform="translate(212.044922 0)"/>
      <use xlink:href="#DejaVuSans-6e" transform="translate(273.568359 0)"/>
      <use xlink:href="#DejaVuSans-74" transform="translate(336.947266 0)"/>
      <use xlink:href="#DejaVuSans-61" transform="translate(376.15625 0)"/>
      <use xlink:href="#DejaVuSans-67" transform="translate(437.435547 0)"/>
      <use xlink:href="#DejaVuSans-65" transform="translate(500.912109 0)"/>
     </g>
    </g>
   </g>
   <g id="patch_15">
    <path d="M 40.603125 341.832228 
L 40.603125 35.7555 
" style="fill: none; stroke: #000000; stroke-width: 0.8; stroke-linejoin: miter; stroke-linecap: square"/>
   </g>
   <g id="patch_16">
    <path d="M 40.603125 341.832228 
L 705.233125 341.832228 
" style="fill: none; stroke: #000000; stroke-width: 0.8; stroke-linejoin: miter; stroke-linecap: square"/>
   </g>
   <g id="text_16">
    <!-- County comparison: Current lack of health insurance among adults aged -->
    <g transform="translate(154.348438 16.318125) scale(0.12 -0.12)">
     <defs>
      <path id="DejaVuSans-6d" d="M 3328 2828 
Q 3544 3216 3844 3400 
Q 4144 3584 4550 3584 
Q 5097 3584 5394 3201 
Q 5691 2819 5691 2113 
L 5691 0 
L 5113 0 
L 5113 2094 
Q 5113 2597 4934 2840 
Q 4756 3084 4391 3084 
Q 3944 3084 3684 2787 
Q 3425 2491 3425 1978 
L 3425 0 
L 2847 0 
L 2847 2094 
Q 2847 2600 2669 2842 
Q 2491 3084 2119 3084 
Q 1678 3084 1418 2786 
Q 1159 2488 1159 1978 
L 1159 0 
L 581 0 
L 581 3500 
L 1159 3500 
L 1159 2956 
Q 1356 3278 1631 3431 
Q 1906 3584 2284 3584 
Q 2666 3584 2933 3390 
Q 3200 3197 3328 2828 
z
" transform="scale(0.015625)"/>
      <path id="DejaVuSans-70" d="M 1159 525 
L 1159 -1331 
L 581 -1331 
L 581 3500 
L 1159 3500 
L 1159 2969 
Q 1341 3281 1617 3432 
Q 1894 3584 2278 3584 
Q 2916 3584 3314 3078 
Q 3713 2572 3713 1747 
Q 3713 922 3314 415 
Q 2916 -91 2278 -91 
Q 1894 -91 1617 61 
Q 1341 213 1159 525 
z
M 3116 1747 
Q 3116 2381 2855 2742 
Q 2594 3103 2138 3103 
Q 1681 3103 1420 2742 
Q 1159 2381 1159 1747 
Q 1159 1113 1420 752 
Q 1681 391 2138 391 
Q 2594 391 2855 752 
Q 3116 1113 3116 1747 
z
" transform="scale(0.015625)"/>
      <path id="DejaVuSans-3a" d="M 750 794 
L 1409 794 
L 1409 0 
L 750 0 
L 750 794 
z
M 750 3309 
L 1409 3309 
L 1409 2516 
L 750 2516 
L 750 3309 
z
" transform="scale(0.015625)"/>
      <path id="DejaVuSans-66" d="M 2375 4863 
L 2375 4384 
L 1825 4384 
Q 1516 4384 1395 4259 
Q 1275 4134 1275 3809 
L 1275 3500 
L 2222 3500 
L 2222 3053 
L 1275 3053 
L 1275 0 
L 697 0 
L 697 3053 
L 147 3053 
L 147 3500 
L 697 3500 
L 697 3744 
Q 697 4328 969 4595 
Q 1241 4863 1831 4863 
L 2375 4863 
z
" transform="scale(0.015625)"/>
      <path id="DejaVuSans-68" d="M 3513 2113 
L 3513 0 
L 2938 0 
L 2938 2094 
Q 2938 2591 2744 2837 
Q 2550 3084 2163 3084 
Q 1697 3084 1428 2787 
Q 1159 2491 1159 1978 
L 1159 0 
L 581 0 
L 581 4863 
L 1159 4863 
L 1159 2956 
Q 1366 3272 1645 3428 
Q 1925 3584 2291 3584 
Q 2894 3584 3203 3211 
Q 3513 2838 3513 2113 
z
" transform="scale(0.015625)"/>
      <path id="DejaVuSans-64" d="M 2906 2969 
L 2906 4863 
L 3481 4863 
L 3481 0 
L 2906 0 
L 2906 525 
Q 2725 213 2448 61 
Q 2172 -91 1784 -91 
Q 1150 -91 751 415 
Q 353 922 353 1747 
Q 353 2572 751 3078 
Q 1150 3584 1784 3584 
Q 2172 3584 2448 3432 
Q 2725 3281 2906 2969 
z
M 947 1747 
Q 947 1113 1208 752 
Q 1469 391 1925 391 
Q 2381 391 2643 752 
Q 2906 1113 2906 1747 
Q 2906 2381 2643 2742 
Q 2381 3103 1925 3103 
Q 1469 3103 1208 2742 
Q 947 2381 947 1747 
z
" transform="scale(0.015625)"/>
     </defs>
     <use xlink:href="#DejaVuSans-43"/>
     <use xlink:href="#DejaVuSans-6f" transform="translate(69.824219 0)"/>
     <use xlink:href="#DejaVuSans-75" transform="translate(131.005859 0)"/>
     <use xlink:href="#DejaVuSans-6e" transform="translate(194.384766 0)"/>
     <use xlink:href="#DejaVuSans-74" transform="translate(257.763672 0)"/>
     <use xlink:href="#DejaVuSans-79" transform="translate(296.972656 0)"/>
     <use xlink:href="#DejaVuSans-20" transform="translate(356.152344 0)"/>
     <use xlink:href="#DejaVuSans-63" transform="translate(387.939453 0)"/>
     <use xlink:href="#DejaVuSans-6f" transform="translate(442.919922 0)"/>
     <use xlink:href="#DejaVuSans-6d" transform="translate(504.101562 0)"/>
     <use xlink:href="#DejaVuSans-70" transform="translate(601.513672 0)"/>
     <use xlink:href="#DejaVuSans-61" transform="translate(664.990234 0)"/>
     <use xlink:href="#DejaVuSans-72" transform="translate(726.269531 0)"/>
     <use xlink:href="#DejaVuSans-69" transform="translate(767.382812 0)"/>
     <use xlink:href="#DejaVuSans-73" transform="translate(795.166016 0)"/>
     <use xlink:href="#DejaVuSans-6f" transform="translate(847.265625 0)"/>
     <use xlink:href="#DejaVuSans-6e" transform="translate(908.447266 0)"/>
     <use xlink:href="#DejaVuSans-3a" transform="translate(971.826172 0)"/>
     <use xlink:href="#DejaVuSans-20" transform="translate(1005.517578 0)"/>
     <use xlink:href="#DejaVuSans-43" transform="translate(1037.304688 0)"/>
     <use xlink:href="#DejaVuSans-75" transform="translate(1107.128906 0)"/>
     <use xlink:href="#DejaVuSans-72" transform="translate(1170.507812 0)"/>
     <use xlink:href="#DejaVuSans-72" transform="translate(1209.871094 0)"/>
     <use xlink:href="#DejaVuSans-65" transform="translate(1248.734375 0)"/>
     <use xlink:href="#DejaVuSans-6e" transform="translate(1310.257812 0)"/>
     <use xlink:href="#DejaVuSans-74" transform="translate(1373.636719 0)"/>
     <use xlink:href="#DejaVuSans-20" transform="translate(1412.845703 0)"/>
     <use xlink:href="#DejaVuSans-6c" transform="translate(1444.632812 0)"/>
     <use xlink:href="#DejaVuSans-61" transform="translate(1472.416016 0)"/>
     <use xlink:href="#DejaVuSans-63" transform="translate(1533.695312 0)"/>
     <use xlink:href="#DejaVuSans-6b" transform="translate(1588.675781 0)"/>
     <use xlink:href="#DejaVuSans-20" transform="translate(1646.585938 0)"/>
     <use xlink:href="#DejaVuSans-6f" transform="translate(1678.373047 0)"/>
     <use xlink:href="#DejaVuSans-66" transform="translate(1739.554688 0)"/>
     <use xlink:href="#DejaVuSans-20" transform="translate(1774.759766 0)"/>
     <use xlink:href="#DejaVuSans-68" transform="translate(1806.546875 0)"/>
     <use xlink:href="#DejaVuSans-65" transform="translate(1869.925781 0)"/>
     <use xlink:href="#DejaVuSans-61" transform="translate(1931.449219 0)"/>
     <use xlink:href="#DejaVuSans-6c" transform="translate(1992.728516 0)"/>
     <use xlink:href="#DejaVuSans-74" transform="translate(2020.511719 0)"/>
     <use xlink:href="#DejaVuSans-68" transform="translate(2059.720703 0)"/>
     <use xlink:href="#DejaVuSans-20" transform="translate(2123.099609 0)"/>
     <use xlink:href="#DejaVuSans-69" transform="translate(2154.886719 0)"/>
     <use xlink:href="#DejaVuSans-6e" transform="translate(2182.669922 0)"/>
     <use xlink:href="#DejaVuSans-73" transform="translate(2246.048828 0)"/>
     <use xlink:href="#DejaVuSans-75" transform="translate(2298.148438 0)"/>
     <use xlink:href="#DejaVuSans-72" transform="translate(2361.527344 0)"/>
     <use xlink:href="#DejaVuSans-61" transform="translate(2402.640625 0)"/>
     <use xlink:href="#DejaVuSans-6e" transform="translate(2463.919922 0)"/>
     <use xlink:href="#DejaVuSans-63" transform="translate(2527.298828 0)"/>
     <use xlink:href="#DejaVuSans-65" transform="translate(2582.279297 0)"/>
     <use xlink:href="#DejaVuSans-20" transform="translate(2643.802734 0)"/>
     <use xlink:href="#DejaVuSans-61" transform="translate(2675.589844 0)"/>
     <use xlink:href="#DejaVuSans-6d" transform="translate(2736.869141 0)"/>
     <use xlink:href="#DejaVuSans-6f" transform="translate(2834.28125 0)"/>
     <use xlink:href="#DejaVuSans-6e" transform="translate(2895.462891 0)"/>
     <use xlink:href="#DejaVuSans-67" transform="translate(2958.841797 0)"/>
     <use xlink:href="#DejaVuSans-20" transform="translate(3022.318359 0)"/>
     <use xlink:href="#DejaVuSans-61" transform="translate(3054.105469 0)"/>
     <use xlink:href="#DejaVuSans-64" transform="translate(3115.384766 0)"/>
     <use xlink:href="#DejaVuSans-75" transform="translate(3178.861328 0)"/>
     <use xlink:href="#DejaVuSans-6c" transform="translate(3242.240234 0)"/>
     <use xlink:href="#DejaVuSans-74" transform="translate(3270.023438 0)"/>
     <use xlink:href="#DejaVuSans-73" transform="translate(3309.232422 0)"/>
     <use xlink:href="#DejaVuSans-20" transform="translate(3361.332031 0)"/>
     <use xlink:href="#DejaVuSans-61" transform="translate(3393.119141 0)"/>
     <use xlink:href="#DejaVuSans-67" transform="translate(3454.398438 0)"/>
     <use xlink:href="#DejaVuSans-65" transform="translate(3517.875 0)"/>
     <use xlink:href="#DejaVuSans-64" transform="translate(3579.398438 0)"/>
    </g>
    <!-- 18-64 years vs Housing insecurity in the past 12 months among adults -->
    <g transform="translate(159.753125 29.7555) scale(0.12 -0.12)">
     <defs>
      <path id="DejaVuSans-38" d="M 2034 2216 
Q 1584 2216 1326 1975 
Q 1069 1734 1069 1313 
Q 1069 891 1326 650 
Q 1584 409 2034 409 
Q 2484 409 2743 651 
Q 3003 894 3003 1313 
Q 3003 1734 2745 1975 
Q 2488 2216 2034 2216 
z
M 1403 2484 
Q 997 2584 770 2862 
Q 544 3141 544 3541 
Q 544 4100 942 4425 
Q 1341 4750 2034 4750 
Q 2731 4750 3128 4425 
Q 3525 4100 3525 3541 
Q 3525 3141 3298 2862 
Q 3072 2584 2669 2484 
Q 3125 2378 3379 2068 
Q 3634 1759 3634 1313 
Q 3634 634 3220 271 
Q 2806 -91 2034 -91 
Q 1263 -91 848 271 
Q 434 634 434 1313 
Q 434 1759 690 2068 
Q 947 2378 1403 2484 
z
M 1172 3481 
Q 1172 3119 1398 2916 
Q 1625 2713 2034 2713 
Q 2441 2713 2670 2916 
Q 2900 3119 2900 3481 
Q 2900 3844 2670 4047 
Q 2441 4250 2034 4250 
Q 1625 4250 1398 4047 
Q 1172 3844 1172 3481 
z
" transform="scale(0.015625)"/>
      <path id="DejaVuSans-2d" d="M 313 2009 
L 1997 2009 
L 1997 1497 
L 313 1497 
L 313 2009 
z
" transform="scale(0.015625)"/>
      <path id="DejaVuSans-36" d="M 2113 2584 
Q 1688 2584 1439 2293 
Q 1191 2003 1191 1497 
Q 1191 994 1439 701 
Q 1688 409 2113 409 
Q 2538 409 2786 701 
Q 3034 994 3034 1497 
Q 3034 2003 2786 2293 
Q 2538 2584 2113 2584 
z
M 3366 4563 
L 3366 3988 
Q 3128 4100 2886 4159 
Q 2644 4219 2406 4219 
Q 1781 4219 1451 3797 
Q 1122 3375 1075 2522 
Q 1259 2794 1537 2939 
Q 1816 3084 2150 3084 
Q 2853 3084 3261 2657 
Q 3669 2231 3669 1497 
Q 3669 778 3244 343 
Q 2819 -91 2113 -91 
Q 1303 -91 875 529 
Q 447 1150 447 2328 
Q 447 3434 972 4092 
Q 1497 4750 2381 4750 
Q 2619 4750 2861 4703 
Q 3103 4656 3366 4563 
z
" transform="scale(0.015625)"/>
      <path id="DejaVuSans-34" d="M 2419 4116 
L 825 1625 
L 2419 1625 
L 2419 4116 
z
M 2253 4666 
L 3047 4666 
L 3047 1625 
L 3713 1625 
L 3713 1100 
L 3047 1100 
L 3047 0 
L 2419 0 
L 2419 1100 
L 313 1100 
L 313 1709 
L 2253 4666 
z
" transform="scale(0.015625)"/>
      <path id="DejaVuSans-48" d="M 628 4666 
L 1259 4666 
L 1259 2753 
L 3553 2753 
L 3553 4666 
L 4184 4666 
L 4184 0 
L 3553 0 
L 3553 2222 
L 1259 2222 
L 1259 0 
L 628 0 
L 628 4666 
z
" transform="scale(0.015625)"/>
     </defs>
     <use xlink:href="#DejaVuSans-31"/>
     <use xlink:href="#DejaVuSans-38" transform="translate(63.623047 0)"/>
     <use xlink:href="#DejaVuSans-2d" transform="translate(127.246094 0)"/>
     <use xlink:href="#DejaVuSans-36" transform="translate(163.330078 0)"/>
     <use xlink:href="#DejaVuSans-34" transform="translate(226.953125 0)"/>
     <use xlink:href="#DejaVuSans-20" transform="translate(290.576172 0)"/>
     <use xlink:href="#DejaVuSans-79" transform="translate(322.363281 0)"/>
     <use xlink:href="#DejaVuSans-65" transform="translate(381.542969 0)"/>
     <use xlink:href="#DejaVuSans-61" transform="translate(443.066406 0)"/>
     <use xlink:href="#DejaVuSans-72" transform="translate(504.345703 0)"/>
     <use xlink:href="#DejaVuSans-73" transform="translate(545.458984 0)"/>
     <use xlink:href="#DejaVuSans-20" transform="translate(597.558594 0)"/>
     <use xlink:href="#DejaVuSans-76" transform="translate(629.345703 0)"/>
     <use xlink:href="#DejaVuSans-73" transform="translate(688.525391 0)"/>
     <use xlink:href="#DejaVuSans-20" transform="translate(740.625 0)"/>
     <use xlink:href="#DejaVuSans-48" transform="translate(772.412109 0)"/>
     <use xlink:href="#DejaVuSans-6f" transform="translate(847.607422 0)"/>
     <use xlink:href="#DejaVuSans-75" transform="translate(908.789062 0)"/>
     <use xlink:href="#DejaVuSans-73" transform="translate(972.167969 0)"/>
     <use xlink:href="#DejaVuSans-69" transform="translate(1024.267578 0)"/>
     <use xlink:href="#DejaVuSans-6e" transform="translate(1052.050781 0)"/>
     <use xlink:href="#DejaVuSans-67" transform="translate(1115.429688 0)"/>
     <use xlink:href="#DejaVuSans-20" transform="translate(1178.90625 0)"/>
     <use xlink:href="#DejaVuSans-69" transform="translate(1210.693359 0)"/>
     <use xlink:href="#DejaVuSans-6e" transform="translate(1238.476562 0)"/>
     <use xlink:href="#DejaVuSans-73" transform="translate(1301.855469 0)"/>
     <use xlink:href="#DejaVuSans-65" transform="translate(1353.955078 0)"/>
     <use xlink:href="#DejaVuSans-63" transform="translate(1415.478516 0)"/>
     <use xlink:href="#DejaVuSans-75" transform="translate(1470.458984 0)"/>
     <use xlink:href="#DejaVuSans-72" transform="translate(1533.837891 0)"/>
     <use xlink:href="#DejaVuSans-69" transform="translate(1574.951172 0)"/>
     <use xlink:href="#DejaVuSans-74" transform="translate(1602.734375 0)"/>
     <use xlink:href="#DejaVuSans-79" transform="translate(1641.943359 0)"/>
     <use xlink:href="#DejaVuSans-20" transform="translate(1701.123047 0)"/>
     <use xlink:href="#DejaVuSans-69" transform="translate(1732.910156 0)"/>
     <use xlink:href="#DejaVuSans-6e" transform="translate(1760.693359 0)"/>
     <use xlink:href="#DejaVuSans-20" transform="translate(1824.072266 0)"/>
     <use xlink:href="#DejaVuSans-74" transform="translate(1855.859375 0)"/>
     <use xlink:href="#DejaVuSans-68" transform="translate(1895.068359 0)"/>
     <use xlink:href="#DejaVuSans-65" transform="translate(1958.447266 0)"/>
     <use xlink:href="#DejaVuSans-20" transform="translate(2019.970703 0)"/>
     <use xlink:href="#DejaVuSans-70" transform="translate(2051.757812 0)"/>
     <use xlink:href="#DejaVuSans-61" transform="translate(2115.234375 0)"/>
     <use xlink:href="#DejaVuSans-73" transform="translate(2176.513672 0)"/>
     <use xlink:href="#DejaVuSans-74" transform="translate(2228.613281 0)"/>
     <use xlink:href="#DejaVuSans-20" transform="translate(2267.822266 0)"/>
     <use xlink:href="#DejaVuSans-31" transform="translate(2299.609375 0)"/>
     <use xlink:href="#DejaVuSans-32" transform="translate(2363.232422 0)"/>
     <use xlink:href="#DejaVuSans-20" transform="translate(2426.855469 0)"/>
     <use xlink:href="#DejaVuSans-6d" transform="translate(2458.642578 0)"/>
     <use xlink:href="#DejaVuSans-6f" transform="translate(2556.054688 0)"/>
     <use xlink:href="#DejaVuSans-6e" transform="translate(2617.236328 0)"/>
     <use xlink:href="#DejaVuSans-74" transform="translate(2680.615234 0)"/>
     <use xlink:href="#DejaVuSans-68" transform="translate(2719.824219 0)"/>
     <use xlink:href="#DejaVuSans-73" transform="translate(2783.203125 0)"/>
     <use xlink:href="#DejaVuSans-20" transform="translate(2835.302734 0)"/>
     <use xlink:href="#DejaVuSans-61" transform="translate(2867.089844 0)"/>
     <use xlink:href="#DejaVuSans-6d" transform="translate(2928.369141 0)"/>
     <use xlink:href="#DejaVuSans-6f" transform="translate(3025.78125 0)"/>
     <use xlink:href="#DejaVuSans-6e" transform="translate(3086.962891 0)"/>
     <use xlink:href="#DejaVuSans-67" transform="translate(3150.341797 0)"/>
     <use xlink:href="#DejaVuSans-20" transform="translate(3213.818359 0)"/>
     <use xlink:href="#DejaVuSans-61" transform="translate(3245.605469 0)"/>
     <use xlink:href="#DejaVuSans-64" transform="translate(3306.884766 0)"/>
     <use xlink:href="#DejaVuSans-75" transform="translate(3370.361328 0)"/>
     <use xlink:href="#DejaVuSans-6c" transform="translate(3433.740234 0)"/>
     <use xlink:href="#DejaVuSans-74" transform="translate(3461.523438 0)"/>
     <use xlink:href="#DejaVuSans-73" transform="translate(3500.732422 0)"/>
    </g>
   </g>
   <g id="legend_1">
    <g id="patch_17">
     <path d="M 49.603125 52.353937 
L 69.603125 52.353937 
L 69.603125 45.353937 
L 49.603125 45.353937 
z
" style="fill: #4f81bd; stroke: #385d8a; stroke-width: 0.7; stroke-linejoin: miter"/>
    </g>
    <g id="text_17">
     <!-- Current lack of health insurance among adults aged 18-64 years -->
     <g transform="translate(77.603125 52.353937) scale(0.1 -0.1)">
      <use xlink:href="#DejaVuSans-43"/>
      <use xlink:href="#DejaVuSans-75" transform="translate(69.824219 0)"/>
      <use xlink:href="#DejaVuSans-72" transform="translate(133.203125 0)"/>
      <use xlink:href="#DejaVuSans-72" transform="translate(172.566406 0)"/>
      <use xlink:href="#DejaVuSans-65" transform="translate(211.429688 0)"/>
      <use xlink:href="#DejaVuSans-6e" transform="translate(272.953125 0)"/>
      <use xlink:href="#DejaVuSans-74" transform="translate(336.332031 0)"/>
      <use xlink:href="#DejaVuSans-20" transform="translate(375.541016 0)"/>
      <use xlink:href="#DejaVuSans-6c" transform="translate(407.328125 0)"/>
      <use xlink:href="#DejaVuSans-61" transform="translate(435.111328 0)"/>
      <use xlink:href="#DejaVuSans-63" transform="translate(496.390625 0)"/>
      <use xlink:href="#DejaVuSans-6b" transform="translate(551.371094 0)"/>
      <use xlink:href="#DejaVuSans-20" transform="translate(609.28125 0)"/>
      <use xlink:href="#DejaVuSans-6f" transform="translate(641.068359 0)"/>
      <use xlink:href="#DejaVuSans-66" transform="translate(702.25 0)"/>
      <use xlink:href="#DejaVuSans-20" transform="translate(737.455078 0)"/>
      <use xlink:href="#DejaVuSans-68" transform="translate(769.242188 0)"/>
      <use xlink:href="#DejaVuSans-65" transform="translate(832.621094 0)"/>
      <use xlink:href="#DejaVuSans-61" transform="translate(894.144531 0)"/>
      <use xlink:href="#DejaVuSans-6c" transform="translate(955.423828 0)"/>
      <use xlink:href="#DejaVuSans-74" transform="translate(983.207031 0)"/>
      <use xlink:href="#DejaVuSans-68" transform="translate(1022.416016 0)"/>
      <use xlink:href="#DejaVuSans-20" transform="translate(1085.794922 0)"/>
      <use xlink:href="#DejaVuSans-69" transform="translate(1117.582031 0)"/>
      <use xlink:href="#DejaVuSans-6e" transform="translate(1145.365234 0)"/>
      <use xlink:href="#DejaVuSans-73" transform="translate(1208.744141 0)"/>
      <use xlink:href="#DejaVuSans-75" transform="translate(1260.84375 0)"/>
      <use xlink:href="#DejaVuSans-72" transform="translate(1324.222656 0)"/>
      <use xlink:href="#DejaVuSans-61" transform="translate(1365.335938 0)"/>
      <use xlink:href="#DejaVuSans-6e" transform="translate(1426.615234 0)"/>
      <use xlink:href="#DejaVuSans-63" transform="translate(1489.994141 0)"/>
      <use xlink:href="#DejaVuSans-65" transform="translate(1544.974609 0)"/>
      <use xlink:href="#DejaVuSans-20" transform="translate(1606.498047 0)"/>
      <use xlink:href="#DejaVuSans-61" transform="translate(1638.285156 0)"/>
      <use xlink:href="#DejaVuSans-6d" transform="translate(1699.564453 0)"/>
      <use xlink:href="#DejaVuSans-6f" transform="translate(1796.976562 0)"/>
      <use xlink:href="#DejaVuSans-6e" transform="translate(1858.158203 0)"/>
      <use xlink:href="#DejaVuSans-67" transform="translate(1921.537109 0)"/>
      <use xlink:href="#DejaVuSans-20" transform="translate(1985.013672 0)"/>
      <use xlink:href="#DejaVuSans-61" transform="translate(2016.800781 0)"/>
      <use xlink:href="#DejaVuSans-64" transform="translate(2078.080078 0)"/>
      <use xlink:href="#DejaVuSans-75" transform="translate(2141.556641 0)"/>
      <use xlink:href="#DejaVuSans-6c" transform="translate(2204.935547 0)"/>
      <use xlink:href="#DejaVuSans-74" transform="translate(2232.71875 0)"/>
      <use xlink:href="#DejaVuSans-73" transform="translate(2271.927734 0)"/>
      <use xlink:href="#DejaVuSans-20" transform="translate(2324.027344 0)"/>
      <use xlink:href="#DejaVuSans-61" transform="translate(2355.814453 0)"/>
      <use xlink:href="#DejaVuSans-67" transform="translate(2417.09375 0)"/>
      <use xlink:href="#DejaVuSans-65" transform="translate(2480.570312 0)"/>
      <use xlink:href="#DejaVuSans-64" transform="translate(2542.09375 0)"/>
      <use xlink:href="#DejaVuSans-20" transform="translate(2605.570312 0)"/>
      <use xlink:href="#DejaVuSans-31" transform="translate(2637.357422 0)"/>
      <use xlink:href="#DejaVuSans-38" transform="translate(2700.980469 0)"/>
      <use xlink:href="#DejaVuSans-2d" transform="translate(2764.603516 0)"/>
      <use xlink:href="#DejaVuSans-36" transform="translate(2800.6875 0)"/>
      <use xlink:href="#DejaVuSans-34" transform="translate(2864.310547 0)"/>
      <use xlink:href="#DejaVuSans-20" transform="translate(2927.933594 0)"/>
      <use xlink:href="#DejaVuSans-79" transform="translate(2959.720703 0)"/>
      <use xlink:href="#DejaVuSans-65" transform="translate(3018.900391 0)"/>
      <use xlink:href="#DejaVuSans-61" transform="translate(3080.423828 0)"/>
      <use xlink:href="#DejaVuSans-72" transform="translate(3141.703125 0)"/>
      <use xlink:href="#DejaVuSans-73" transform="translate(3182.816406 0)"/>
     </g>
    </g>
    <g id="patch_18">
     <path d="M 49.603125 67.032062 
L 69.603125 67.032062 
L 69.603125 60.032062 
L 49.603125 60.032062 
z
" style="fill: #c0504d; stroke: #963634; stroke-width: 0.7; stroke-linejoin: miter"/>
    </g>
    <g id="text_18">
     <!-- Housing insecurity in the past 12 months among adults -->
     <g transform="translate(77.603125 67.032062) scale(0.1 -0.1)">
      <use xlink:href="#DejaVuSans-48"/>
      <use xlink:href="#DejaVuSans-6f" transform="translate(75.195312 0)"/>
      <use xlink:href="#DejaVuSans-75" transform="translate(136.376953 0)"/>
      <use xlink:href="#DejaVuSans-73" transform="translate(199.755859 0)"/>
      <use xlink:href="#DejaVuSans-69" transform="translate(251.855469 0)"/>
      <use xlink:href="#DejaVuSans-6e" transform="translate(279.638672 0)"/>
      <use xlink:href="#DejaVuSans-67" transform="translate(343.017578 0)"/>
      <use xlink:href="#DejaVuSans-20" transform="translate(406.494141 0)"/>
      <use xlink:href="#DejaVuSans-69" transform="translate(438.28125 0)"/>
      <use xlink:href="#DejaVuSans-6e" transform="translate(466.064453 0)"/>
      <use xlink:href="#DejaVuSans-73" transform="translate(529.443359 0)"/>
      <use xlink:href="#DejaVuSans-65" transform="translate(581.542969 0)"/>
      <use xlink:href="#DejaVuSans-63" transform="translate(643.066406 0)"/>
      <use xlink:href="#DejaVuSans-75" transform="translate(698.046875 0)"/>
      <use xlink:href="#DejaVuSans-72" transform="translate(761.425781 0)"/>
      <use xlink:href="#DejaVuSans-69" transform="translate(802.539062 0)"/>
      <use xlink:href="#DejaVuSans-74" transform="translate(830.322266 0)"/>
      <use xlink:href="#DejaVuSans-79" transform="translate(869.53125 0)"/>
      <use xlink:href="#DejaVuSans-20" transform="translate(928.710938 0)"/>
      <use xlink:href="#DejaVuSans-69" transform="translate(960.498047 0)"/>
      <use xlink:href="#DejaVuSans-6e" transform="translate(988.28125 0)"/>
      <use xlink:href="#DejaVuSans-20" transform="translate(1051.660156 0)"/>
      <use xlink:href="#DejaVuSans-74" transform="translate(1083.447266 0)"/>
      <use xlink:href="#DejaVuSans-68" transform="translate(1122.65625 0)"/>
      <use xlink:href="#DejaVuSans-65" transform="translate(1186.035156 0)"/>
      <use xlink:href="#DejaVuSans-20" transform="translate(1247.558594 0)"/>
      <use xlink:href="#DejaVuSans-70" transform="translate(1279.345703 0)"/>
      <use xlink:href="#DejaVuSans-61" transform="translate(1342.822266 0)"/>
      <use xlink:href="#DejaVuSans-73" transform="translate(1404.101562 0)"/>
      <use xlink:href="#DejaVuSans-74" transform="translate(1456.201172 0)"/>
      <use xlink:href="#DejaVuSans-20" transform="translate(1495.410156 0)"/>
      <use xlink:href="#DejaVuSans-31" transform="translate(1527.197266 0)"/>
      <use xlink:href="#DejaVuSans-32" transform="translate(1590.820312 0)"/>
      <use xlink:href="#DejaVuSans-20" transform="translate(1654.443359 0)"/>
      <use xlink:href="#DejaVuSans-6d" transform="translate(1686.230469 0)"/>
      <use xlink:href="#DejaVuSans-6f" transform="translate(1783.642578 0)"/>
      <use xlink:href="#DejaVuSans-6e" transform="translate(1844.824219 0)"/>
      <use xlink:href="#DejaVuSans-74" transform="translate(1908.203125 0)"/>
      <use xlink:href="#DejaVuSans-68" transform="translate(1947.412109 0)"/>
      <use xlink:href="#DejaVuSans-73" transform="translate(2010.791016 0)"/>
      <use xlink:href="#DejaVuSans-20" transform="translate(2062.890625 0)"/>
      <use xlink:href="#DejaVuSans-61" transform="translate(2094.677734 0)"/>
      <use xlink:href="#DejaVuSans-6d" transform="translate(2155.957031 0)"/>
      <use xlink:href="#DejaVuSans-6f" transform="translate(2253.369141 0)"/>
      <use xlink:href="#DejaVuSans-6e" transform="translate(2314.550781 0)"/>
      <use xlink:href="#DejaVuSans-67" transform="translate(2377.929688 0)"/>
      <use xlink:href="#DejaVuSans-20" transform="translate(2441.40625 0)"/>
      <use xlink:href="#DejaVuSans-61" transform="translate(2473.193359 0)"/>
      <use xlink:href="#DejaVuSans-64" transform="translate(2534.472656 0)"/>
      <use xlink:href="#DejaVuSans-75" transform="translate(2597.949219 0)"/>
      <use xlink:href="#DejaVuSans-6c" transform="translate(2661.328125 0)"/>
      <use xlink:href="#DejaVuSans-74" transform="translate(2689.111328 0)"/>
      <use xlink:href="#DejaVuSans-73" transform="translate(2728.320312 0)"/>
     </g>
    </g>
   </g>
  </g>
 </g>
 <defs>
  <clipPath id="pab3b64afcd">
   <rect x="40.603125" y="35.7555" width="664.63" height="306.076728"/>
  </clipPath>
 </defs>
</svg>
