<?xml version="1.0" encoding="utf-8" standalone="no"?>
<!DOCTYPE svg PUBLIC "-//W3C//DTD SVG 1.1//EN"
  "http://www.w3.org/Graphics/SVG/1.1/DTD/svg11.dtd">
<svg xmlns:xlink="http://www.w3.org/1999/xlink" width="798.833125pt" height="421.691389pt" viewBox="0 0 798.833125 421.691389" xmlns="http://www.w3.org/2000/svg" version="1.1">
 <metadata>
  <rdf:RDF xmlns:dc="http://purl.org/dc/elements/1.1/" xmlns:cc="http://creativecommons.org/ns#" xmlns:rdf="http://www.w3.org/1999/02/22-rdf-syntax-ns#">
   <cc:Work>
    <dc:type rdf:resource="http://purl.org/dc/dcmitype/StillImage"/>
    <dc:date>2026-03-21T21:52:03.176014</dc:date>
    <dc:format>image/svg+xml</dc:format>
    <dc:creator>
     <cc:Agent>
      <dc:title>Matplotlib v3.10.8, https://matplotlib.org/</dc:title>
     </cc:Agent>
    </dc:creator>
   </cc:Work>
  </rdf:RDF>
 </metadata>
 <defs>
  <style type="text/css">*{stroke-linejoin: round; stroke-linecap: butt}</style>
 </defs>
 <g id="figure_1">
  <g id="patch_1">
   <path d="M 0 421.691389 
L 798.833125 421.691389 
L 798.833125 0 
L 0 0 
z
" style="fill: #ffffff"/>
  </g>
  <g id="axes_1">
   <g id="patch_2">
    <path d="M 40.603125 340.696547 
L 791.633125 340.696547 
L 791.633125 35.7555 
L 40.603125 35.7555 
z
" style="fill: #ffffff"/>
   </g>
   <g id="patch_3">
    <path d="M 74.740852 340.696547 
L 108.174709 340.696547 
L 108.174709 60.575085 
L 74.740852 60.575085 
z
" clip-path="url(#pa2f825cb0b)" style="fill: #4f81bd; stroke: #385d8a; stroke-width: 0.7; stroke-linejoin: miter"/>
   </g>
   <g id="patch_4">
    <path d="M 162.724685 340.696547 
L 196.158542 340.696547 
L 196.158542 99.709701 
L 162.724685 99.709701 
z
" clip-path="url(#pa2f825cb0b)" style="fill: #4f81bd; stroke: #385d8a; stroke-width: 0.7; stroke-linejoin: miter"/>
   </g>
   <g id="patch_5">
    <path d="M 250.708519 340.696547 
L 284.142375 340.696547 
L 284.142375 111.553072 
L 250.708519 111.553072 
z
" clip-path="url(#pa2f825cb0b)" style="fill: #4f81bd; stroke: #385d8a; stroke-width: 0.7; stroke-linejoin: miter"/>
   </g>
   <g id="patch_6">
    <path d="M 338.692352 340.696547 
L 372.126208 340.696547 
L 372.126208 124.94123 
L 338.692352 124.94123 
z
" clip-path="url(#pa2f825cb0b)" style="fill: #4f81bd; stroke: #385d8a; stroke-width: 0.7; stroke-linejoin: miter"/>
   </g>
   <g id="patch_7">
    <path d="M 426.676185 340.696547 
L 460.110042 340.696547 
L 460.110042 92.500693 
L 426.676185 92.500693 
z
" clip-path="url(#pa2f825cb0b)" style="fill: #4f81bd; stroke: #385d8a; stroke-width: 0.7; stroke-linejoin: miter"/>
   </g>
   <g id="patch_8">
    <path d="M 514.660018 340.696547 
L 548.093875 340.696547 
L 548.093875 121.336726 
L 514.660018 121.336726 
z
" clip-path="url(#pa2f825cb0b)" style="fill: #4f81bd; stroke: #385d8a; stroke-width: 0.7; stroke-linejoin: miter"/>
   </g>
   <g id="patch_9">
    <path d="M 602.643851 340.696547 
L 636.077708 340.696547 
L 636.077708 113.097859 
L 602.643851 113.097859 
z
" clip-path="url(#pa2f825cb0b)" style="fill: #4f81bd; stroke: #385d8a; stroke-width: 0.7; stroke-linejoin: miter"/>
   </g>
   <g id="patch_10">
    <path d="M 690.627685 340.696547 
L 724.061541 340.696547 
L 724.061541 128.545734 
L 690.627685 128.545734 
z
" clip-path="url(#pa2f825cb0b)" style="fill: #4f81bd; stroke: #385d8a; stroke-width: 0.7; stroke-linejoin: miter"/>
   </g>
   <g id="patch_11">
    <path d="M 108.174709 340.696547 
L 141.608565 340.696547 
L 141.608565 94.56041 
L 108.174709 94.56041 
z
" clip-path="url(#pa2f825cb0b)" style="fill: #c0504d; stroke: #963634; stroke-width: 0.7; stroke-linejoin: miter"/>
   </g>
   <g id="patch_12">
    <path d="M 196.158542 340.696547 
L 229.592399 340.696547 
L 229.592399 66.239306 
L 196.158542 66.239306 
z
" clip-path="url(#pa2f825cb0b)" style="fill: #c0504d; stroke: #963634; stroke-width: 0.7; stroke-linejoin: miter"/>
   </g>
   <g id="patch_13">
    <path d="M 284.142375 340.696547 
L 317.576232 340.696547 
L 317.576232 55.940723 
L 284.142375 55.940723 
z
" clip-path="url(#pa2f825cb0b)" style="fill: #c0504d; stroke: #963634; stroke-width: 0.7; stroke-linejoin: miter"/>
   </g>
   <g id="patch_14">
    <path d="M 372.126208 340.696547 
L 405.560065 340.696547 
L 405.560065 50.276502 
L 372.126208 50.276502 
z
" clip-path="url(#pa2f825cb0b)" style="fill: #c0504d; stroke: #963634; stroke-width: 0.7; stroke-linejoin: miter"/>
   </g>
   <g id="patch_15">
    <path d="M 460.110042 340.696547 
L 493.543898 340.696547 
L 493.543898 89.926047 
L 460.110042 89.926047 
z
" clip-path="url(#pa2f825cb0b)" style="fill: #c0504d; stroke: #963634; stroke-width: 0.7; stroke-linejoin: miter"/>
   </g>
   <g id="patch_16">
    <path d="M 548.093875 340.696547 
L 581.527731 340.696547 
L 581.527731 64.179589 
L 548.093875 64.179589 
z
" clip-path="url(#pa2f825cb0b)" style="fill: #c0504d; stroke: #963634; stroke-width: 0.7; stroke-linejoin: miter"/>
   </g>
   <g id="patch_17">
    <path d="M 636.077708 340.696547 
L 669.511565 340.696547 
L 669.511565 74.478173 
L 636.077708 74.478173 
z
" clip-path="url(#pa2f825cb0b)" style="fill: #c0504d; stroke: #963634; stroke-width: 0.7; stroke-linejoin: miter"/>
   </g>
   <g id="patch_18">
    <path d="M 724.061541 340.696547 
L 757.495398 340.696547 
L 757.495398 61.604944 
L 724.061541 61.604944 
z
" clip-path="url(#pa2f825cb0b)" style="fill: #c0504d; stroke: #963634; stroke-width: 0.7; stroke-linejoin: miter"/>
   </g>
   <g id="matplotlib.axis_1">
    <g id="xtick_1">
     <g id="line2d_1">
      <defs>
       <path id="mcf1ad6e02a" d="M 0 0 
L 0 3.5 
" style="stroke: #000000; stroke-width: 0.8"/>
      </defs>
      <g>
       <use xlink:href="#mcf1ad6e02a" x="108.174709" y="340.696547" style="stroke: #000000; stroke-width: 0.8"/>
      </g>
     </g>
     <g id="text_1">
      <!-- Kusilvak, AK -->
      <g transform="translate(57.215803 388.767383) rotate(-35) scale(0.1 -0.1)">
       <defs>
        <path id="DejaVuSans-4b" d="M 628 4666 
L 1259 4666 
L 1259 2694 
L 3353 4666 
L 4166 4666 
L 1850 2491 
L 4331 0 
L 3500 0 
L 1259 2247 
L 1259 0 
L 628 0 
L 628 4666 
z
" transform="scale(0.015625)"/>
        <path id="DejaVuSans-75" d="M 544 1381 
L 544 3500 
L 1119 3500 
L 1119 1403 
Q 1119 906 1312 657 
Q 1506 409 1894 409 
Q 2359 409 2629 706 
Q 2900 1003 2900 1516 
L 2900 3500 
L 3475 3500 
L 3475 0 
L 2900 0 
L 2900 538 
Q 2691 219 2414 64 
Q 2138 -91 1772 -91 
Q 1169 -91 856 284 
Q 544 659 544 1381 
z
M 1991 3584 
L 1991 3584 
z
" transform="scale(0.015625)"/>
        <path id="DejaVuSans-73" d="M 2834 3397 
L 2834 2853 
Q 2591 2978 2328 3040 
Q 2066 3103 1784 3103 
Q 1356 3103 1142 2972 
Q 928 2841 928 2578 
Q 928 2378 1081 2264 
Q 1234 2150 1697 2047 
L 1894 2003 
Q 2506 1872 2764 1633 
Q 3022 1394 3022 966 
Q 3022 478 2636 193 
Q 2250 -91 1575 -91 
Q 1294 -91 989 -36 
Q 684 19 347 128 
L 347 722 
Q 666 556 975 473 
Q 1284 391 1588 391 
Q 1994 391 2212 530 
Q 2431 669 2431 922 
Q 2431 1156 2273 1281 
Q 2116 1406 1581 1522 
L 1381 1569 
Q 847 1681 609 1914 
Q 372 2147 372 2553 
Q 372 3047 722 3315 
Q 1072 3584 1716 3584 
Q 2034 3584 2315 3537 
Q 2597 3491 2834 3397 
z
" transform="scale(0.015625)"/>
        <path id="DejaVuSans-69" d="M 603 3500 
L 1178 3500 
L 1178 0 
L 603 0 
L 603 3500 
z
M 603 4863 
L 1178 4863 
L 1178 4134 
L 603 4134 
L 603 4863 
z
" transform="scale(0.015625)"/>
        <path id="DejaVuSans-6c" d="M 603 4863 
L 1178 4863 
L 1178 0 
L 603 0 
L 603 4863 
z
" transform="scale(0.015625)"/>
        <path id="DejaVuSans-76" d="M 191 3500 
L 800 3500 
L 1894 563 
L 2988 3500 
L 3597 3500 
L 2284 0 
L 1503 0 
L 191 3500 
z
" transform="scale(0.015625)"/>
        <path id="DejaVuSans-61" d="M 2194 1759 
Q 1497 1759 1228 1600 
Q 959 1441 959 1056 
Q 959 750 1161 570 
Q 1363 391 1709 391 
Q 2188 391 2477 730 
Q 2766 1069 2766 1631 
L 2766 1759 
L 2194 1759 
z
M 3341 1997 
L 3341 0 
L 2766 0 
L 2766 531 
Q 2569 213 2275 61 
Q 1981 -91 1556 -91 
Q 1019 -91 701 211 
Q 384 513 384 1019 
Q 384 1609 779 1909 
Q 1175 2209 1959 2209 
L 2766 2209 
L 2766 2266 
Q 2766 2663 2505 2880 
Q 2244 3097 1772 3097 
Q 1472 3097 1187 3025 
Q 903 2953 641 2809 
L 641 3341 
Q 956 3463 1253 3523 
Q 1550 3584 1831 3584 
Q 2591 3584 2966 3190 
Q 3341 2797 3341 1997 
z
" transform="scale(0.015625)"/>
        <path id="DejaVuSans-6b" d="M 581 4863 
L 1159 4863 
L 1159 1991 
L 2875 3500 
L 3609 3500 
L 1753 1863 
L 3688 0 
L 2938 0 
L 1159 1709 
L 1159 0 
L 581 0 
L 581 4863 
z
" transform="scale(0.015625)"/>
        <path id="DejaVuSans-2c" d="M 750 794 
L 1409 794 
L 1409 256 
L 897 -744 
L 494 -744 
L 750 256 
L 750 794 
z
" transform="scale(0.015625)"/>
        <path id="DejaVuSans-20" transform="scale(0.015625)"/>
        <path id="DejaVuSans-41" d="M 2188 4044 
L 1331 1722 
L 3047 1722 
L 2188 4044 
z
M 1831 4666 
L 2547 4666 
L 4325 0 
L 3669 0 
L 3244 1197 
L 1141 1197 
L 716 0 
L 50 0 
L 1831 4666 
z
" transform="scale(0.015625)"/>
       </defs>
       <use xlink:href="#DejaVuSans-4b"/>
       <use xlink:href="#DejaVuSans-75" transform="translate(60.576172 0)"/>
       <use xlink:href="#DejaVuSans-73" transform="translate(123.955078 0)"/>
       <use xlink:href="#DejaVuSans-69" transform="translate(176.054688 0)"/>
       <use xlink:href="#DejaVuSans-6c" transform="translate(203.837891 0)"/>
       <use xlink:href="#DejaVuSans-76" transform="translate(231.621094 0)"/>
       <use xlink:href="#DejaVuSans-61" transform="translate(290.800781 0)"/>
       <use xlink:href="#DejaVuSans-6b" transform="translate(352.080078 0)"/>
       <use xlink:href="#DejaVuSans-2c" transform="translate(409.990234 0)"/>
       <use xlink:href="#DejaVuSans-20" transform="translate(441.777344 0)"/>
       <use xlink:href="#DejaVuSans-41" transform="translate(473.564453 0)"/>
       <use xlink:href="#DejaVuSans-4b" transform="translate(541.972656 0)"/>
      </g>
     </g>
    </g>
    <g id="xtick_2">
     <g id="line2d_2">
      <g>
       <use xlink:href="#mcf1ad6e02a" x="196.158542" y="340.696547" style="stroke: #000000; stroke-width: 0.8"/>
      </g>
     </g>
     <g id="text_2">
      <!-- East Carroll, LA -->
      <g transform="translate(132.418304 397.716968) rotate(-35) scale(0.1 -0.1)">
       <defs>
        <path id="DejaVuSans-45" d="M 628 4666 
L 3578 4666 
L 3578 4134 
L 1259 4134 
L 1259 2753 
L 3481 2753 
L 3481 2222 
L 1259 2222 
L 1259 531 
L 3634 531 
L 3634 0 
L 628 0 
L 628 4666 
z
" transform="scale(0.015625)"/>
        <path id="DejaVuSans-74" d="M 1172 4494 
L 1172 3500 
L 2356 3500 
L 2356 3053 
L 1172 3053 
L 1172 1153 
Q 1172 725 1289 603 
Q 1406 481 1766 481 
L 2356 481 
L 2356 0 
L 1766 0 
Q 1100 0 847 248 
Q 594 497 594 1153 
L 594 3053 
L 172 3053 
L 172 3500 
L 594 3500 
L 594 4494 
L 1172 4494 
z
" transform="scale(0.015625)"/>
        <path id="DejaVuSans-43" d="M 4122 4306 
L 4122 3641 
Q 3803 3938 3442 4084 
Q 3081 4231 2675 4231 
Q 1875 4231 1450 3742 
Q 1025 3253 1025 2328 
Q 1025 1406 1450 917 
Q 1875 428 2675 428 
Q 3081 428 3442 575 
Q 3803 722 4122 1019 
L 4122 359 
Q 3791 134 3420 21 
Q 3050 -91 2638 -91 
Q 1578 -91 968 557 
Q 359 1206 359 2328 
Q 359 3453 968 4101 
Q 1578 4750 2638 4750 
Q 3056 4750 3426 4639 
Q 3797 4528 4122 4306 
z
" transform="scale(0.015625)"/>
        <path id="DejaVuSans-72" d="M 2631 2963 
Q 2534 3019 2420 3045 
Q 2306 3072 2169 3072 
Q 1681 3072 1420 2755 
Q 1159 2438 1159 1844 
L 1159 0 
L 581 0 
L 581 3500 
L 1159 3500 
L 1159 2956 
Q 1341 3275 1631 3429 
Q 1922 3584 2338 3584 
Q 2397 3584 2469 3576 
Q 2541 3569 2628 3553 
L 2631 2963 
z
" transform="scale(0.015625)"/>
        <path id="DejaVuSans-6f" d="M 1959 3097 
Q 1497 3097 1228 2736 
Q 959 2375 959 1747 
Q 959 1119 1226 758 
Q 1494 397 1959 397 
Q 2419 397 2687 759 
Q 2956 1122 2956 1747 
Q 2956 2369 2687 2733 
Q 2419 3097 1959 3097 
z
M 1959 3584 
Q 2709 3584 3137 3096 
Q 3566 2609 3566 1747 
Q 3566 888 3137 398 
Q 2709 -91 1959 -91 
Q 1206 -91 779 398 
Q 353 888 353 1747 
Q 353 2609 779 3096 
Q 1206 3584 1959 3584 
z
" transform="scale(0.015625)"/>
        <path id="DejaVuSans-4c" d="M 628 4666 
L 1259 4666 
L 1259 531 
L 3531 531 
L 3531 0 
L 628 0 
L 628 4666 
z
" transform="scale(0.015625)"/>
       </defs>
       <use xlink:href="#DejaVuSans-45"/>
       <use xlink:href="#DejaVuSans-61" transform="translate(63.183594 0)"/>
       <use xlink:href="#DejaVuSans-73" transform="translate(124.462891 0)"/>
       <use xlink:href="#DejaVuSans-74" transform="translate(176.5625 0)"/>
       <use xlink:href="#DejaVuSans-20" transform="translate(215.771484 0)"/>
       <use xlink:href="#DejaVuSans-43" transform="translate(247.558594 0)"/>
       <use xlink:href="#DejaVuSans-61" transform="translate(317.382812 0)"/>
       <use xlink:href="#DejaVuSans-72" transform="translate(378.662109 0)"/>
       <use xlink:href="#DejaVuSans-72" transform="translate(418.025391 0)"/>
       <use xlink:href="#DejaVuSans-6f" transform="translate(456.888672 0)"/>
       <use xlink:href="#DejaVuSans-6c" transform="translate(518.070312 0)"/>
       <use xlink:href="#DejaVuSans-6c" transform="translate(545.853516 0)"/>
       <use xlink:href="#DejaVuSans-2c" transform="translate(573.636719 0)"/>
       <use xlink:href="#DejaVuSans-20" transform="translate(605.423828 0)"/>
       <use xlink:href="#DejaVuSans-4c" transform="translate(637.210938 0)"/>
       <use xlink:href="#DejaVuSans-41" transform="translate(695.173828 0)"/>
      </g>
     </g>
    </g>
    <g id="xtick_3">
     <g id="line2d_3">
      <g>
       <use xlink:href="#mcf1ad6e02a" x="284.142375" y="340.696547" style="stroke: #000000; stroke-width: 0.8"/>
      </g>
     </g>
     <g id="text_3">
      <!-- Humphreys, MS -->
      <g transform="translate(218.413134 399.109683) rotate(-35) scale(0.1 -0.1)">
       <defs>
        <path id="DejaVuSans-48" d="M 628 4666 
L 1259 4666 
L 1259 2753 
L 3553 2753 
L 3553 4666 
L 4184 4666 
L 4184 0 
L 3553 0 
L 3553 2222 
L 1259 2222 
L 1259 0 
L 628 0 
L 628 4666 
z
" transform="scale(0.015625)"/>
        <path id="DejaVuSans-6d" d="M 3328 2828 
Q 3544 3216 3844 3400 
Q 4144 3584 4550 3584 
Q 5097 3584 5394 3201 
Q 5691 2819 5691 2113 
L 5691 0 
L 5113 0 
L 5113 2094 
Q 5113 2597 4934 2840 
Q 4756 3084 4391 3084 
Q 3944 3084 3684 2787 
Q 3425 2491 3425 1978 
L 3425 0 
L 2847 0 
L 2847 2094 
Q 2847 2600 2669 2842 
Q 2491 3084 2119 3084 
Q 1678 3084 1418 2786 
Q 1159 2488 1159 1978 
L 1159 0 
L 581 0 
L 581 3500 
L 1159 3500 
L 1159 2956 
Q 1356 3278 1631 3431 
Q 1906 3584 2284 3584 
Q 2666 3584 2933 3390 
Q 3200 3197 3328 2828 
z
" transform="scale(0.015625)"/>
        <path id="DejaVuSans-70" d="M 1159 525 
L 1159 -1331 
L 581 -1331 
L 581 3500 
L 1159 3500 
L 1159 2969 
Q 1341 3281 1617 3432 
Q 1894 3584 2278 3584 
Q 2916 3584 3314 3078 
Q 3713 2572 3713 1747 
Q 3713 922 3314 415 
Q 2916 -91 2278 -91 
Q 1894 -91 1617 61 
Q 1341 213 1159 525 
z
M 3116 1747 
Q 3116 2381 2855 2742 
Q 2594 3103 2138 3103 
Q 1681 3103 1420 2742 
Q 1159 2381 1159 1747 
Q 1159 1113 1420 752 
Q 1681 391 2138 391 
Q 2594 391 2855 752 
Q 3116 1113 3116 1747 
z
" transform="scale(0.015625)"/>
        <path id="DejaVuSans-68" d="M 3513 2113 
L 3513 0 
L 2938 0 
L 2938 2094 
Q 2938 2591 2744 2837 
Q 2550 3084 2163 3084 
Q 1697 3084 1428 2787 
Q 1159 2491 1159 1978 
L 1159 0 
L 581 0 
L 581 4863 
L 1159 4863 
L 1159 2956 
Q 1366 3272 1645 3428 
Q 1925 3584 2291 3584 
Q 2894 3584 3203 3211 
Q 3513 2838 3513 2113 
z
" transform="scale(0.015625)"/>
        <path id="DejaVuSans-65" d="M 3597 1894 
L 3597 1613 
L 953 1613 
Q 991 1019 1311 708 
Q 1631 397 2203 397 
Q 2534 397 2845 478 
Q 3156 559 3463 722 
L 3463 178 
Q 3153 47 2828 -22 
Q 2503 -91 2169 -91 
Q 1331 -91 842 396 
Q 353 884 353 1716 
Q 353 2575 817 3079 
Q 1281 3584 2069 3584 
Q 2775 3584 3186 3129 
Q 3597 2675 3597 1894 
z
M 3022 2063 
Q 3016 2534 2758 2815 
Q 2500 3097 2075 3097 
Q 1594 3097 1305 2825 
Q 1016 2553 972 2059 
L 3022 2063 
z
" transform="scale(0.015625)"/>
        <path id="DejaVuSans-79" d="M 2059 -325 
Q 1816 -950 1584 -1140 
Q 1353 -1331 966 -1331 
L 506 -1331 
L 506 -850 
L 844 -850 
Q 1081 -850 1212 -737 
Q 1344 -625 1503 -206 
L 1606 56 
L 191 3500 
L 800 3500 
L 1894 763 
L 2988 3500 
L 3597 3500 
L 2059 -325 
z
" transform="scale(0.015625)"/>
        <path id="DejaVuSans-4d" d="M 628 4666 
L 1569 4666 
L 2759 1491 
L 3956 4666 
L 4897 4666 
L 4897 0 
L 4281 0 
L 4281 4097 
L 3078 897 
L 2444 897 
L 1241 4097 
L 1241 0 
L 628 0 
L 628 4666 
z
" transform="scale(0.015625)"/>
        <path id="DejaVuSans-53" d="M 3425 4513 
L 3425 3897 
Q 3066 4069 2747 4153 
Q 2428 4238 2131 4238 
Q 1616 4238 1336 4038 
Q 1056 3838 1056 3469 
Q 1056 3159 1242 3001 
Q 1428 2844 1947 2747 
L 2328 2669 
Q 3034 2534 3370 2195 
Q 3706 1856 3706 1288 
Q 3706 609 3251 259 
Q 2797 -91 1919 -91 
Q 1588 -91 1214 -16 
Q 841 59 441 206 
L 441 856 
Q 825 641 1194 531 
Q 1563 422 1919 422 
Q 2459 422 2753 634 
Q 3047 847 3047 1241 
Q 3047 1584 2836 1778 
Q 2625 1972 2144 2069 
L 1759 2144 
Q 1053 2284 737 2584 
Q 422 2884 422 3419 
Q 422 4038 858 4394 
Q 1294 4750 2059 4750 
Q 2388 4750 2728 4690 
Q 3069 4631 3425 4513 
z
" transform="scale(0.015625)"/>
       </defs>
       <use xlink:href="#DejaVuSans-48"/>
       <use xlink:href="#DejaVuSans-75" transform="translate(75.195312 0)"/>
       <use xlink:href="#DejaVuSans-6d" transform="translate(138.574219 0)"/>
       <use xlink:href="#DejaVuSans-70" transform="translate(235.986328 0)"/>
       <use xlink:href="#DejaVuSans-68" transform="translate(299.462891 0)"/>
       <use xlink:href="#DejaVuSans-72" transform="translate(362.841797 0)"/>
       <use xlink:href="#DejaVuSans-65" transform="translate(401.705078 0)"/>
       <use xlink:href="#DejaVuSans-79" transform="translate(463.228516 0)"/>
       <use xlink:href="#DejaVuSans-73" transform="translate(522.408203 0)"/>
       <use xlink:href="#DejaVuSans-2c" transform="translate(574.507812 0)"/>
       <use xlink:href="#DejaVuSans-20" transform="translate(606.294922 0)"/>
       <use xlink:href="#DejaVuSans-4d" transform="translate(638.082031 0)"/>
       <use xlink:href="#DejaVuSans-53" transform="translate(724.361328 0)"/>
      </g>
     </g>
    </g>
    <g id="xtick_4">
     <g id="line2d_4">
      <g>
       <use xlink:href="#mcf1ad6e02a" x="372.126208" y="340.696547" style="stroke: #000000; stroke-width: 0.8"/>
      </g>
     </g>
     <g id="text_4">
      <!-- Greene, AL -->
      <g transform="translate(325.716156 385.582242) rotate(-35) scale(0.1 -0.1)">
       <defs>
        <path id="DejaVuSans-47" d="M 3809 666 
L 3809 1919 
L 2778 1919 
L 2778 2438 
L 4434 2438 
L 4434 434 
Q 4069 175 3628 42 
Q 3188 -91 2688 -91 
Q 1594 -91 976 548 
Q 359 1188 359 2328 
Q 359 3472 976 4111 
Q 1594 4750 2688 4750 
Q 3144 4750 3555 4637 
Q 3966 4525 4313 4306 
L 4313 3634 
Q 3963 3931 3569 4081 
Q 3175 4231 2741 4231 
Q 1884 4231 1454 3753 
Q 1025 3275 1025 2328 
Q 1025 1384 1454 906 
Q 1884 428 2741 428 
Q 3075 428 3337 486 
Q 3600 544 3809 666 
z
" transform="scale(0.015625)"/>
        <path id="DejaVuSans-6e" d="M 3513 2113 
L 3513 0 
L 2938 0 
L 2938 2094 
Q 2938 2591 2744 2837 
Q 2550 3084 2163 3084 
Q 1697 3084 1428 2787 
Q 1159 2491 1159 1978 
L 1159 0 
L 581 0 
L 581 3500 
L 1159 3500 
L 1159 2956 
Q 1366 3272 1645 3428 
Q 1925 3584 2291 3584 
Q 2894 3584 3203 3211 
Q 3513 2838 3513 2113 
z
" transform="scale(0.015625)"/>
       </defs>
       <use xlink:href="#DejaVuSans-47"/>
       <use xlink:href="#DejaVuSans-72" transform="translate(77.490234 0)"/>
       <use xlink:href="#DejaVuSans-65" transform="translate(116.353516 0)"/>
       <use xlink:href="#DejaVuSans-65" transform="translate(177.876953 0)"/>
       <use xlink:href="#DejaVuSans-6e" transform="translate(239.400391 0)"/>
       <use xlink:href="#DejaVuSans-65" transform="translate(302.779297 0)"/>
       <use xlink:href="#DejaVuSans-2c" transform="translate(364.302734 0)"/>
       <use xlink:href="#DejaVuSans-20" transform="translate(396.089844 0)"/>
       <use xlink:href="#DejaVuSans-41" transform="translate(427.876953 0)"/>
       <use xlink:href="#DejaVuSans-4c" transform="translate(496.285156 0)"/>
      </g>
     </g>
    </g>
    <g id="xtick_5">
     <g id="line2d_5">
      <g>
       <use xlink:href="#mcf1ad6e02a" x="460.110042" y="340.696547" style="stroke: #000000; stroke-width: 0.8"/>
      </g>
     </g>
     <g id="text_5">
      <!-- Sioux, ND -->
      <g transform="translate(418.746734 382.048473) rotate(-35) scale(0.1 -0.1)">
       <defs>
        <path id="DejaVuSans-78" d="M 3513 3500 
L 2247 1797 
L 3578 0 
L 2900 0 
L 1881 1375 
L 863 0 
L 184 0 
L 1544 1831 
L 300 3500 
L 978 3500 
L 1906 2253 
L 2834 3500 
L 3513 3500 
z
" transform="scale(0.015625)"/>
        <path id="DejaVuSans-4e" d="M 628 4666 
L 1478 4666 
L 3547 763 
L 3547 4666 
L 4159 4666 
L 4159 0 
L 3309 0 
L 1241 3903 
L 1241 0 
L 628 0 
L 628 4666 
z
" transform="scale(0.015625)"/>
        <path id="DejaVuSans-44" d="M 1259 4147 
L 1259 519 
L 2022 519 
Q 2988 519 3436 956 
Q 3884 1394 3884 2338 
Q 3884 3275 3436 3711 
Q 2988 4147 2022 4147 
L 1259 4147 
z
M 628 4666 
L 1925 4666 
Q 3281 4666 3915 4102 
Q 4550 3538 4550 2338 
Q 4550 1131 3912 565 
Q 3275 0 1925 0 
L 628 0 
L 628 4666 
z
" transform="scale(0.015625)"/>
       </defs>
       <use xlink:href="#DejaVuSans-53"/>
       <use xlink:href="#DejaVuSans-69" transform="translate(63.476562 0)"/>
       <use xlink:href="#DejaVuSans-6f" transform="translate(91.259766 0)"/>
       <use xlink:href="#DejaVuSans-75" transform="translate(152.441406 0)"/>
       <use xlink:href="#DejaVuSans-78" transform="translate(215.820312 0)"/>
       <use xlink:href="#DejaVuSans-2c" transform="translate(275 0)"/>
       <use xlink:href="#DejaVuSans-20" transform="translate(306.787109 0)"/>
       <use xlink:href="#DejaVuSans-4e" transform="translate(338.574219 0)"/>
       <use xlink:href="#DejaVuSans-44" transform="translate(413.378906 0)"/>
      </g>
     </g>
    </g>
    <g id="xtick_6">
     <g id="line2d_6">
      <g>
       <use xlink:href="#mcf1ad6e02a" x="548.093875" y="340.696547" style="stroke: #000000; stroke-width: 0.8"/>
      </g>
     </g>
     <g id="text_6">
      <!-- Bullock, AL -->
      <g transform="translate(501.903969 385.428093) rotate(-35) scale(0.1 -0.1)">
       <defs>
        <path id="DejaVuSans-42" d="M 1259 2228 
L 1259 519 
L 2272 519 
Q 2781 519 3026 730 
Q 3272 941 3272 1375 
Q 3272 1813 3026 2020 
Q 2781 2228 2272 2228 
L 1259 2228 
z
M 1259 4147 
L 1259 2741 
L 2194 2741 
Q 2656 2741 2882 2914 
Q 3109 3088 3109 3444 
Q 3109 3797 2882 3972 
Q 2656 4147 2194 4147 
L 1259 4147 
z
M 628 4666 
L 2241 4666 
Q 2963 4666 3353 4366 
Q 3744 4066 3744 3513 
Q 3744 3084 3544 2831 
Q 3344 2578 2956 2516 
Q 3422 2416 3680 2098 
Q 3938 1781 3938 1306 
Q 3938 681 3513 340 
Q 3088 0 2303 0 
L 628 0 
L 628 4666 
z
" transform="scale(0.015625)"/>
        <path id="DejaVuSans-63" d="M 3122 3366 
L 3122 2828 
Q 2878 2963 2633 3030 
Q 2388 3097 2138 3097 
Q 1578 3097 1268 2742 
Q 959 2388 959 1747 
Q 959 1106 1268 751 
Q 1578 397 2138 397 
Q 2388 397 2633 464 
Q 2878 531 3122 666 
L 3122 134 
Q 2881 22 2623 -34 
Q 2366 -91 2075 -91 
Q 1284 -91 818 406 
Q 353 903 353 1747 
Q 353 2603 823 3093 
Q 1294 3584 2113 3584 
Q 2378 3584 2631 3529 
Q 2884 3475 3122 3366 
z
" transform="scale(0.015625)"/>
       </defs>
       <use xlink:href="#DejaVuSans-42"/>
       <use xlink:href="#DejaVuSans-75" transform="translate(68.603516 0)"/>
       <use xlink:href="#DejaVuSans-6c" transform="translate(131.982422 0)"/>
       <use xlink:href="#DejaVuSans-6c" transform="translate(159.765625 0)"/>
       <use xlink:href="#DejaVuSans-6f" transform="translate(187.548828 0)"/>
       <use xlink:href="#DejaVuSans-63" transform="translate(248.730469 0)"/>
       <use xlink:href="#DejaVuSans-6b" transform="translate(303.710938 0)"/>
       <use xlink:href="#DejaVuSans-2c" transform="translate(361.621094 0)"/>
       <use xlink:href="#DejaVuSans-20" transform="translate(393.408203 0)"/>
       <use xlink:href="#DejaVuSans-41" transform="translate(425.195312 0)"/>
       <use xlink:href="#DejaVuSans-4c" transform="translate(493.603516 0)"/>
      </g>
     </g>
    </g>
    <g id="xtick_7">
     <g id="line2d_7">
      <g>
       <use xlink:href="#mcf1ad6e02a" x="636.077708" y="340.696547" style="stroke: #000000; stroke-width: 0.8"/>
      </g>
     </g>
     <g id="text_7">
      <!-- Holmes, MS -->
      <g transform="translate(586.675191 387.677588) rotate(-35) scale(0.1 -0.1)">
       <use xlink:href="#DejaVuSans-48"/>
       <use xlink:href="#DejaVuSans-6f" transform="translate(75.195312 0)"/>
       <use xlink:href="#DejaVuSans-6c" transform="translate(136.376953 0)"/>
       <use xlink:href="#DejaVuSans-6d" transform="translate(164.160156 0)"/>
       <use xlink:href="#DejaVuSans-65" transform="translate(261.572266 0)"/>
       <use xlink:href="#DejaVuSans-73" transform="translate(323.095703 0)"/>
       <use xlink:href="#DejaVuSans-2c" transform="translate(375.195312 0)"/>
       <use xlink:href="#DejaVuSans-20" transform="translate(406.982422 0)"/>
       <use xlink:href="#DejaVuSans-4d" transform="translate(438.769531 0)"/>
       <use xlink:href="#DejaVuSans-53" transform="translate(525.048828 0)"/>
      </g>
     </g>
    </g>
    <g id="xtick_8">
     <g id="line2d_8">
      <g>
       <use xlink:href="#mcf1ad6e02a" x="724.061541" y="340.696547" style="stroke: #000000; stroke-width: 0.8"/>
      </g>
     </g>
     <g id="text_8">
      <!-- Sharkey, MS -->
      <g transform="translate(672.279643 389.343648) rotate(-35) scale(0.1 -0.1)">
       <use xlink:href="#DejaVuSans-53"/>
       <use xlink:href="#DejaVuSans-68" transform="translate(63.476562 0)"/>
       <use xlink:href="#DejaVuSans-61" transform="translate(126.855469 0)"/>
       <use xlink:href="#DejaVuSans-72" transform="translate(188.134766 0)"/>
       <use xlink:href="#DejaVuSans-6b" transform="translate(229.248047 0)"/>
       <use xlink:href="#DejaVuSans-65" transform="translate(283.533203 0)"/>
       <use xlink:href="#DejaVuSans-79" transform="translate(345.056641 0)"/>
       <use xlink:href="#DejaVuSans-2c" transform="translate(404.236328 0)"/>
       <use xlink:href="#DejaVuSans-20" transform="translate(436.023438 0)"/>
       <use xlink:href="#DejaVuSans-4d" transform="translate(467.810547 0)"/>
       <use xlink:href="#DejaVuSans-53" transform="translate(554.089844 0)"/>
      </g>
     </g>
    </g>
    <g id="text_9">
     <!-- County -->
     <g transform="translate(398.310313 412.411701) scale(0.1 -0.1)">
      <use xlink:href="#DejaVuSans-43"/>
      <use xlink:href="#DejaVuSans-6f" transform="translate(69.824219 0)"/>
      <use xlink:href="#DejaVuSans-75" transform="translate(131.005859 0)"/>
      <use xlink:href="#DejaVuSans-6e" transform="translate(194.384766 0)"/>
      <use xlink:href="#DejaVuSans-74" transform="translate(257.763672 0)"/>
      <use xlink:href="#DejaVuSans-79" transform="translate(296.972656 0)"/>
     </g>
    </g>
   </g>
   <g id="matplotlib.axis_2">
    <g id="ytick_1">
     <g id="line2d_9">
      <path d="M 40.603125 340.696547 
L 791.633125 340.696547 
" clip-path="url(#pa2f825cb0b)" style="fill: none; stroke-dasharray: 1.85,0.8; stroke-dashoffset: 0; stroke: #b0b0b0; stroke-opacity: 0.4; stroke-width: 0.5"/>
     </g>
     <g id="line2d_10">
      <defs>
       <path id="mf78467d153" d="M 0 0 
L -3.5 0 
" style="stroke: #000000; stroke-width: 0.8"/>
      </defs>
      <g>
       <use xlink:href="#mf78467d153" x="40.603125" y="340.696547" style="stroke: #000000; stroke-width: 0.8"/>
      </g>
     </g>
     <g id="text_10">
      <!-- 0 -->
      <g transform="translate(27.240625 344.495766) scale(0.1 -0.1)">
       <defs>
        <path id="DejaVuSans-30" d="M 2034 4250 
Q 1547 4250 1301 3770 
Q 1056 3291 1056 2328 
Q 1056 1369 1301 889 
Q 1547 409 2034 409 
Q 2525 409 2770 889 
Q 3016 1369 3016 2328 
Q 3016 3291 2770 3770 
Q 2525 4250 2034 4250 
z
M 2034 4750 
Q 2819 4750 3233 4129 
Q 3647 3509 3647 2328 
Q 3647 1150 3233 529 
Q 2819 -91 2034 -91 
Q 1250 -91 836 529 
Q 422 1150 422 2328 
Q 422 3509 836 4129 
Q 1250 4750 2034 4750 
z
" transform="scale(0.015625)"/>
       </defs>
       <use xlink:href="#DejaVuSans-30"/>
      </g>
     </g>
    </g>
    <g id="ytick_2">
     <g id="line2d_11">
      <path d="M 40.603125 289.203631 
L 791.633125 289.203631 
" clip-path="url(#pa2f825cb0b)" style="fill: none; stroke-dasharray: 1.85,0.8; stroke-dashoffset: 0; stroke: #b0b0b0; stroke-opacity: 0.4; stroke-width: 0.5"/>
     </g>
     <g id="line2d_12">
      <g>
       <use xlink:href="#mf78467d153" x="40.603125" y="289.203631" style="stroke: #000000; stroke-width: 0.8"/>
      </g>
     </g>
     <g id="text_11">
      <!-- 5 -->
      <g transform="translate(27.240625 293.00285) scale(0.1 -0.1)">
       <defs>
        <path id="DejaVuSans-35" d="M 691 4666 
L 3169 4666 
L 3169 4134 
L 1269 4134 
L 1269 2991 
Q 1406 3038 1543 3061 
Q 1681 3084 1819 3084 
Q 2600 3084 3056 2656 
Q 3513 2228 3513 1497 
Q 3513 744 3044 326 
Q 2575 -91 1722 -91 
Q 1428 -91 1123 -41 
Q 819 9 494 109 
L 494 744 
Q 775 591 1075 516 
Q 1375 441 1709 441 
Q 2250 441 2565 725 
Q 2881 1009 2881 1497 
Q 2881 1984 2565 2268 
Q 2250 2553 1709 2553 
Q 1456 2553 1204 2497 
Q 953 2441 691 2322 
L 691 4666 
z
" transform="scale(0.015625)"/>
       </defs>
       <use xlink:href="#DejaVuSans-35"/>
      </g>
     </g>
    </g>
    <g id="ytick_3">
     <g id="line2d_13">
      <path d="M 40.603125 237.710715 
L 791.633125 237.710715 
" clip-path="url(#pa2f825cb0b)" style="fill: none; stroke-dasharray: 1.85,0.8; stroke-dashoffset: 0; stroke: #b0b0b0; stroke-opacity: 0.4; stroke-width: 0.5"/>
     </g>
     <g id="line2d_14">
      <g>
       <use xlink:href="#mf78467d153" x="40.603125" y="237.710715" style="stroke: #000000; stroke-width: 0.8"/>
      </g>
     </g>
     <g id="text_12">
      <!-- 10 -->
      <g transform="translate(20.878125 241.509934) scale(0.1 -0.1)">
       <defs>
        <path id="DejaVuSans-31" d="M 794 531 
L 1825 531 
L 1825 4091 
L 703 3866 
L 703 4441 
L 1819 4666 
L 2450 4666 
L 2450 531 
L 3481 531 
L 3481 0 
L 794 0 
L 794 531 
z
" transform="scale(0.015625)"/>
       </defs>
       <use xlink:href="#DejaVuSans-31"/>
       <use xlink:href="#DejaVuSans-30" transform="translate(63.623047 0)"/>
      </g>
     </g>
    </g>
    <g id="ytick_4">
     <g id="line2d_15">
      <path d="M 40.603125 186.2178 
L 791.633125 186.2178 
" clip-path="url(#pa2f825cb0b)" style="fill: none; stroke-dasharray: 1.85,0.8; stroke-dashoffset: 0; stroke: #b0b0b0; stroke-opacity: 0.4; stroke-width: 0.5"/>
     </g>
     <g id="line2d_16">
      <g>
       <use xlink:href="#mf78467d153" x="40.603125" y="186.2178" style="stroke: #000000; stroke-width: 0.8"/>
      </g>
     </g>
     <g id="text_13">
      <!-- 15 -->
      <g transform="translate(20.878125 190.017018) scale(0.1 -0.1)">
       <use xlink:href="#DejaVuSans-31"/>
       <use xlink:href="#DejaVuSans-35" transform="translate(63.623047 0)"/>
      </g>
     </g>
    </g>
    <g id="ytick_5">
     <g id="line2d_17">
      <path d="M 40.603125 134.724884 
L 791.633125 134.724884 
" clip-path="url(#pa2f825cb0b)" style="fill: none; stroke-dasharray: 1.85,0.8; stroke-dashoffset: 0; stroke: #b0b0b0; stroke-opacity: 0.4; stroke-width: 0.5"/>
     </g>
     <g id="line2d_18">
      <g>
       <use xlink:href="#mf78467d153" x="40.603125" y="134.724884" style="stroke: #000000; stroke-width: 0.8"/>
      </g>
     </g>
     <g id="text_14">
      <!-- 20 -->
      <g transform="translate(20.878125 138.524103) scale(0.1 -0.1)">
       <defs>
        <path id="DejaVuSans-32" d="M 1228 531 
L 3431 531 
L 3431 0 
L 469 0 
L 469 531 
Q 828 903 1448 1529 
Q 2069 2156 2228 2338 
Q 2531 2678 2651 2914 
Q 2772 3150 2772 3378 
Q 2772 3750 2511 3984 
Q 2250 4219 1831 4219 
Q 1534 4219 1204 4116 
Q 875 4013 500 3803 
L 500 4441 
Q 881 4594 1212 4672 
Q 1544 4750 1819 4750 
Q 2544 4750 2975 4387 
Q 3406 4025 3406 3419 
Q 3406 3131 3298 2873 
Q 3191 2616 2906 2266 
Q 2828 2175 2409 1742 
Q 1991 1309 1228 531 
z
" transform="scale(0.015625)"/>
       </defs>
       <use xlink:href="#DejaVuSans-32"/>
       <use xlink:href="#DejaVuSans-30" transform="translate(63.623047 0)"/>
      </g>
     </g>
    </g>
    <g id="ytick_6">
     <g id="line2d_19">
      <path d="M 40.603125 83.231968 
L 791.633125 83.231968 
" clip-path="url(#pa2f825cb0b)" style="fill: none; stroke-dasharray: 1.85,0.8; stroke-dashoffset: 0; stroke: #b0b0b0; stroke-opacity: 0.4; stroke-width: 0.5"/>
     </g>
     <g id="line2d_20">
      <g>
       <use xlink:href="#mf78467d153" x="40.603125" y="83.231968" style="stroke: #000000; stroke-width: 0.8"/>
      </g>
     </g>
     <g id="text_15">
      <!-- 25 -->
      <g transform="translate(20.878125 87.031187) scale(0.1 -0.1)">
       <use xlink:href="#DejaVuSans-32"/>
       <use xlink:href="#DejaVuSans-35" transform="translate(63.623047 0)"/>
      </g>
     </g>
    </g>
    <g id="text_16">
     <!-- Data Value -->
     <g transform="translate(14.798438 215.484617) rotate(-90) scale(0.1 -0.1)">
      <defs>
       <path id="DejaVuSans-56" d="M 1831 0 
L 50 4666 
L 709 4666 
L 2188 738 
L 3669 4666 
L 4325 4666 
L 2547 0 
L 1831 0 
z
" transform="scale(0.015625)"/>
      </defs>
      <use xlink:href="#DejaVuSans-44"/>
      <use xlink:href="#DejaVuSans-61" transform="translate(77.001953 0)"/>
      <use xlink:href="#DejaVuSans-74" transform="translate(138.28125 0)"/>
      <use xlink:href="#DejaVuSans-61" transform="translate(177.490234 0)"/>
      <use xlink:href="#DejaVuSans-20" transform="translate(238.769531 0)"/>
      <use xlink:href="#DejaVuSans-56" transform="translate(270.556641 0)"/>
      <use xlink:href="#DejaVuSans-61" transform="translate(331.214844 0)"/>
      <use xlink:href="#DejaVuSans-6c" transform="translate(392.494141 0)"/>
      <use xlink:href="#DejaVuSans-75" transform="translate(420.277344 0)"/>
      <use xlink:href="#DejaVuSans-65" transform="translate(483.65625 0)"/>
     </g>
    </g>
   </g>
   <g id="patch_19">
    <path d="M 40.603125 340.696547 
L 40.603125 35.7555 
" style="fill: none; stroke: #000000; stroke-width: 0.8; stroke-linejoin: miter; stroke-linecap: square"/>
   </g>
   <g id="patch_20">
    <path d="M 40.603125 340.696547 
L 791.633125 340.696547 
" style="fill: none; stroke: #000000; stroke-width: 0.8; stroke-linejoin: miter; stroke-linecap: square"/>
   </g>
   <g id="text_17">
    <!-- County comparison: Lack of reliable transportation in the past 12 -->
    <g transform="translate(219.94625 16.318125) scale(0.12 -0.12)">
     <defs>
      <path id="DejaVuSans-3a" d="M 750 794 
L 1409 794 
L 1409 0 
L 750 0 
L 750 794 
z
M 750 3309 
L 1409 3309 
L 1409 2516 
L 750 2516 
L 750 3309 
z
" transform="scale(0.015625)"/>
      <path id="DejaVuSans-66" d="M 2375 4863 
L 2375 4384 
L 1825 4384 
Q 1516 4384 1395 4259 
Q 1275 4134 1275 3809 
L 1275 3500 
L 2222 3500 
L 2222 3053 
L 1275 3053 
L 1275 0 
L 697 0 
L 697 3053 
L 147 3053 
L 147 3500 
L 697 3500 
L 697 3744 
Q 697 4328 969 4595 
Q 1241 4863 1831 4863 
L 2375 4863 
z
" transform="scale(0.015625)"/>
      <path id="DejaVuSans-62" d="M 3116 1747 
Q 3116 2381 2855 2742 
Q 2594 3103 2138 3103 
Q 1681 3103 1420 2742 
Q 1159 2381 1159 1747 
Q 1159 1113 1420 752 
Q 1681 391 2138 391 
Q 2594 391 2855 752 
Q 3116 1113 3116 1747 
z
M 1159 2969 
Q 1341 3281 1617 3432 
Q 1894 3584 2278 3584 
Q 2916 3584 3314 3078 
Q 3713 2572 3713 1747 
Q 3713 922 3314 415 
Q 2916 -91 2278 -91 
Q 1894 -91 1617 61 
Q 1341 213 1159 525 
L 1159 0 
L 581 0 
L 581 4863 
L 1159 4863 
L 1159 2969 
z
" transform="scale(0.015625)"/>
     </defs>
     <use xlink:href="#DejaVuSans-43"/>
     <use xlink:href="#DejaVuSans-6f" transform="translate(69.824219 0)"/>
     <use xlink:href="#DejaVuSans-75" transform="translate(131.005859 0)"/>
     <use xlink:href="#DejaVuSans-6e" transform="translate(194.384766 0)"/>
     <use xlink:href="#DejaVuSans-74" transform="translate(257.763672 0)"/>
     <use xlink:href="#DejaVuSans-79" transform="translate(296.972656 0)"/>
     <use xlink:href="#DejaVuSans-20" transform="translate(356.152344 0)"/>
     <use xlink:href="#DejaVuSans-63" transform="translate(387.939453 0)"/>
     <use xlink:href="#DejaVuSans-6f" transform="translate(442.919922 0)"/>
     <use xlink:href="#DejaVuSans-6d" transform="translate(504.101562 0)"/>
     <use xlink:href="#DejaVuSans-70" transform="translate(601.513672 0)"/>
     <use xlink:href="#DejaVuSans-61" transform="translate(664.990234 0)"/>
     <use xlink:href="#DejaVuSans-72" transform="translate(726.269531 0)"/>
     <use xlink:href="#DejaVuSans-69" transform="translate(767.382812 0)"/>
     <use xlink:href="#DejaVuSans-73" transform="translate(795.166016 0)"/>
     <use xlink:href="#DejaVuSans-6f" transform="translate(847.265625 0)"/>
     <use xlink:href="#DejaVuSans-6e" transform="translate(908.447266 0)"/>
     <use xlink:href="#DejaVuSans-3a" transform="translate(971.826172 0)"/>
     <use xlink:href="#DejaVuSans-20" transform="translate(1005.517578 0)"/>
     <use xlink:href="#DejaVuSans-4c" transform="translate(1037.304688 0)"/>
     <use xlink:href="#DejaVuSans-61" transform="translate(1093.017578 0)"/>
     <use xlink:href="#DejaVuSans-63" transform="translate(1154.296875 0)"/>
     <use xlink:href="#DejaVuSans-6b" transform="translate(1209.277344 0)"/>
     <use xlink:href="#DejaVuSans-20" transform="translate(1267.1875 0)"/>
     <use xlink:href="#DejaVuSans-6f" transform="translate(1298.974609 0)"/>
     <use xlink:href="#DejaVuSans-66" transform="translate(1360.15625 0)"/>
     <use xlink:href="#DejaVuSans-20" transform="translate(1395.361328 0)"/>
     <use xlink:href="#DejaVuSans-72" transform="translate(1427.148438 0)"/>
     <use xlink:href="#DejaVuSans-65" transform="translate(1466.011719 0)"/>
     <use xlink:href="#DejaVuSans-6c" transform="translate(1527.535156 0)"/>
     <use xlink:href="#DejaVuSans-69" transform="translate(1555.318359 0)"/>
     <use xlink:href="#DejaVuSans-61" transform="translate(1583.101562 0)"/>
     <use xlink:href="#DejaVuSans-62" transform="translate(1644.380859 0)"/>
     <use xlink:href="#DejaVuSans-6c" transform="translate(1707.857422 0)"/>
     <use xlink:href="#DejaVuSans-65" transform="translate(1735.640625 0)"/>
     <use xlink:href="#DejaVuSans-20" transform="translate(1797.164062 0)"/>
     <use xlink:href="#DejaVuSans-74" transform="translate(1828.951172 0)"/>
     <use xlink:href="#DejaVuSans-72" transform="translate(1868.160156 0)"/>
     <use xlink:href="#DejaVuSans-61" transform="translate(1909.273438 0)"/>
     <use xlink:href="#DejaVuSans-6e" transform="translate(1970.552734 0)"/>
     <use xlink:href="#DejaVuSans-73" transform="translate(2033.931641 0)"/>
     <use xlink:href="#DejaVuSans-70" transform="translate(2086.03125 0)"/>
     <use xlink:href="#DejaVuSans-6f" transform="translate(2149.507812 0)"/>
     <use xlink:href="#DejaVuSans-72" transform="translate(2210.689453 0)"/>
     <use xlink:href="#DejaVuSans-74" transform="translate(2251.802734 0)"/>
     <use xlink:href="#DejaVuSans-61" transform="translate(2291.011719 0)"/>
     <use xlink:href="#DejaVuSans-74" transform="translate(2352.291016 0)"/>
     <use xlink:href="#DejaVuSans-69" transform="translate(2391.5 0)"/>
     <use xlink:href="#DejaVuSans-6f" transform="translate(2419.283203 0)"/>
     <use xlink:href="#DejaVuSans-6e" transform="translate(2480.464844 0)"/>
     <use xlink:href="#DejaVuSans-20" transform="translate(2543.84375 0)"/>
     <use xlink:href="#DejaVuSans-69" transform="translate(2575.630859 0)"/>
     <use xlink:href="#DejaVuSans-6e" transform="translate(2603.414062 0)"/>
     <use xlink:href="#DejaVuSans-20" transform="translate(2666.792969 0)"/>
     <use xlink:href="#DejaVuSans-74" transform="translate(2698.580078 0)"/>
     <use xlink:href="#DejaVuSans-68" transform="translate(2737.789062 0)"/>
     <use xlink:href="#DejaVuSans-65" transform="translate(2801.167969 0)"/>
     <use xlink:href="#DejaVuSans-20" transform="translate(2862.691406 0)"/>
     <use xlink:href="#DejaVuSans-70" transform="translate(2894.478516 0)"/>
     <use xlink:href="#DejaVuSans-61" transform="translate(2957.955078 0)"/>
     <use xlink:href="#DejaVuSans-73" transform="translate(3019.234375 0)"/>
     <use xlink:href="#DejaVuSans-74" transform="translate(3071.333984 0)"/>
     <use xlink:href="#DejaVuSans-20" transform="translate(3110.542969 0)"/>
     <use xlink:href="#DejaVuSans-31" transform="translate(3142.330078 0)"/>
     <use xlink:href="#DejaVuSans-32" transform="translate(3205.953125 0)"/>
    </g>
    <!-- months among adults vs Mobility disability among adults -->
    <g transform="translate(244.4675 29.7555) scale(0.12 -0.12)">
     <defs>
      <path id="DejaVuSans-67" d="M 2906 1791 
Q 2906 2416 2648 2759 
Q 2391 3103 1925 3103 
Q 1463 3103 1205 2759 
Q 947 2416 947 1791 
Q 947 1169 1205 825 
Q 1463 481 1925 481 
Q 2391 481 2648 825 
Q 2906 1169 2906 1791 
z
M 3481 434 
Q 3481 -459 3084 -895 
Q 2688 -1331 1869 -1331 
Q 1566 -1331 1297 -1286 
Q 1028 -1241 775 -1147 
L 775 -588 
Q 1028 -725 1275 -790 
Q 1522 -856 1778 -856 
Q 2344 -856 2625 -561 
Q 2906 -266 2906 331 
L 2906 616 
Q 2728 306 2450 153 
Q 2172 0 1784 0 
Q 1141 0 747 490 
Q 353 981 353 1791 
Q 353 2603 747 3093 
Q 1141 3584 1784 3584 
Q 2172 3584 2450 3431 
Q 2728 3278 2906 2969 
L 2906 3500 
L 3481 3500 
L 3481 434 
z
" transform="scale(0.015625)"/>
      <path id="DejaVuSans-64" d="M 2906 2969 
L 2906 4863 
L 3481 4863 
L 3481 0 
L 2906 0 
L 2906 525 
Q 2725 213 2448 61 
Q 2172 -91 1784 -91 
Q 1150 -91 751 415 
Q 353 922 353 1747 
Q 353 2572 751 3078 
Q 1150 3584 1784 3584 
Q 2172 3584 2448 3432 
Q 2725 3281 2906 2969 
z
M 947 1747 
Q 947 1113 1208 752 
Q 1469 391 1925 391 
Q 2381 391 2643 752 
Q 2906 1113 2906 1747 
Q 2906 2381 2643 2742 
Q 2381 3103 1925 3103 
Q 1469 3103 1208 2742 
Q 947 2381 947 1747 
z
" transform="scale(0.015625)"/>
     </defs>
     <use xlink:href="#DejaVuSans-6d"/>
     <use xlink:href="#DejaVuSans-6f" transform="translate(97.412109 0)"/>
     <use xlink:href="#DejaVuSans-6e" transform="translate(158.59375 0)"/>
     <use xlink:href="#DejaVuSans-74" transform="translate(221.972656 0)"/>
     <use xlink:href="#DejaVuSans-68" transform="translate(261.181641 0)"/>
     <use xlink:href="#DejaVuSans-73" transform="translate(324.560547 0)"/>
     <use xlink:href="#DejaVuSans-20" transform="translate(376.660156 0)"/>
     <use xlink:href="#DejaVuSans-61" transform="translate(408.447266 0)"/>
     <use xlink:href="#DejaVuSans-6d" transform="translate(469.726562 0)"/>
     <use xlink:href="#DejaVuSans-6f" transform="translate(567.138672 0)"/>
     <use xlink:href="#DejaVuSans-6e" transform="translate(628.320312 0)"/>
     <use xlink:href="#DejaVuSans-67" transform="translate(691.699219 0)"/>
     <use xlink:href="#DejaVuSans-20" transform="translate(755.175781 0)"/>
     <use xlink:href="#DejaVuSans-61" transform="translate(786.962891 0)"/>
     <use xlink:href="#DejaVuSans-64" transform="translate(848.242188 0)"/>
     <use xlink:href="#DejaVuSans-75" transform="translate(911.71875 0)"/>
     <use xlink:href="#DejaVuSans-6c" transform="translate(975.097656 0)"/>
     <use xlink:href="#DejaVuSans-74" transform="translate(1002.880859 0)"/>
     <use xlink:href="#DejaVuSans-73" transform="translate(1042.089844 0)"/>
     <use xlink:href="#DejaVuSans-20" transform="translate(1094.189453 0)"/>
     <use xlink:href="#DejaVuSans-76" transform="translate(1125.976562 0)"/>
     <use xlink:href="#DejaVuSans-73" transform="translate(1185.15625 0)"/>
     <use xlink:href="#DejaVuSans-20" transform="translate(1237.255859 0)"/>
     <use xlink:href="#DejaVuSans-4d" transform="translate(1269.042969 0)"/>
     <use xlink:href="#DejaVuSans-6f" transform="translate(1355.322266 0)"/>
     <use xlink:href="#DejaVuSans-62" transform="translate(1416.503906 0)"/>
     <use xlink:href="#DejaVuSans-69" transform="translate(1479.980469 0)"/>
     <use xlink:href="#DejaVuSans-6c" transform="translate(1507.763672 0)"/>
     <use xlink:href="#DejaVuSans-69" transform="translate(1535.546875 0)"/>
     <use xlink:href="#DejaVuSans-74" transform="translate(1563.330078 0)"/>
     <use xlink:href="#DejaVuSans-79" transform="translate(1602.539062 0)"/>
     <use xlink:href="#DejaVuSans-20" transform="translate(1661.71875 0)"/>
     <use xlink:href="#DejaVuSans-64" transform="translate(1693.505859 0)"/>
     <use xlink:href="#DejaVuSans-69" transform="translate(1756.982422 0)"/>
     <use xlink:href="#DejaVuSans-73" transform="translate(1784.765625 0)"/>
     <use xlink:href="#DejaVuSans-61" transform="translate(1836.865234 0)"/>
     <use xlink:href="#DejaVuSans-62" transform="translate(1898.144531 0)"/>
     <use xlink:href="#DejaVuSans-69" transform="translate(1961.621094 0)"/>
     <use xlink:href="#DejaVuSans-6c" transform="translate(1989.404297 0)"/>
     <use xlink:href="#DejaVuSans-69" transform="translate(2017.1875 0)"/>
     <use xlink:href="#DejaVuSans-74" transform="translate(2044.970703 0)"/>
     <use xlink:href="#DejaVuSans-79" transform="translate(2084.179688 0)"/>
     <use xlink:href="#DejaVuSans-20" transform="translate(2143.359375 0)"/>
     <use xlink:href="#DejaVuSans-61" transform="translate(2175.146484 0)"/>
     <use xlink:href="#DejaVuSans-6d" transform="translate(2236.425781 0)"/>
     <use xlink:href="#DejaVuSans-6f" transform="translate(2333.837891 0)"/>
     <use xlink:href="#DejaVuSans-6e" transform="translate(2395.019531 0)"/>
     <use xlink:href="#DejaVuSans-67" transform="translate(2458.398438 0)"/>
     <use xlink:href="#DejaVuSans-20" transform="translate(2521.875 0)"/>
     <use xlink:href="#DejaVuSans-61" transform="translate(2553.662109 0)"/>
     <use xlink:href="#DejaVuSans-64" transform="translate(2614.941406 0)"/>
     <use xlink:href="#DejaVuSans-75" transform="translate(2678.417969 0)"/>
     <use xlink:href="#DejaVuSans-6c" transform="translate(2741.796875 0)"/>
     <use xlink:href="#DejaVuSans-74" transform="translate(2769.580078 0)"/>
     <use xlink:href="#DejaVuSans-73" transform="translate(2808.789062 0)"/>
    </g>
   </g>
   <g id="legend_1">
    <g id="patch_21">
     <path d="M 418.815938 52.353937 
L 438.815938 52.353937 
L 438.815938 45.353937 
L 418.815938 45.353937 
z
" style="fill: #4f81bd; stroke: #385d8a; stroke-width: 0.7; stroke-linejoin: miter"/>
    </g>
    <g id="text_18">
     <!-- Lack of reliable transportation in the past 12 months among adults -->
     <g transform="translate(446.815938 52.353937) scale(0.1 -0.1)">
      <use xlink:href="#DejaVuSans-4c"/>
      <use xlink:href="#DejaVuSans-61" transform="translate(55.712891 0)"/>
      <use xlink:href="#DejaVuSans-63" transform="translate(116.992188 0)"/>
      <use xlink:href="#DejaVuSans-6b" transform="translate(171.972656 0)"/>
      <use xlink:href="#DejaVuSans-20" transform="translate(229.882812 0)"/>
      <use xlink:href="#DejaVuSans-6f" transform="translate(261.669922 0)"/>
      <use xlink:href="#DejaVuSans-66" transform="translate(322.851562 0)"/>
      <use xlink:href="#DejaVuSans-20" transform="translate(358.056641 0)"/>
      <use xlink:href="#DejaVuSans-72" transform="translate(389.84375 0)"/>
      <use xlink:href="#DejaVuSans-65" transform="translate(428.707031 0)"/>
      <use xlink:href="#DejaVuSans-6c" transform="translate(490.230469 0)"/>
      <use xlink:href="#DejaVuSans-69" transform="translate(518.013672 0)"/>
      <use xlink:href="#DejaVuSans-61" transform="translate(545.796875 0)"/>
      <use xlink:href="#DejaVuSans-62" transform="translate(607.076172 0)"/>
      <use xlink:href="#DejaVuSans-6c" transform="translate(670.552734 0)"/>
      <use xlink:href="#DejaVuSans-65" transform="translate(698.335938 0)"/>
      <use xlink:href="#DejaVuSans-20" transform="translate(759.859375 0)"/>
      <use xlink:href="#DejaVuSans-74" transform="translate(791.646484 0)"/>
      <use xlink:href="#DejaVuSans-72" transform="translate(830.855469 0)"/>
      <use xlink:href="#DejaVuSans-61" transform="translate(871.96875 0)"/>
      <use xlink:href="#DejaVuSans-6e" transform="translate(933.248047 0)"/>
      <use xlink:href="#DejaVuSans-73" transform="translate(996.626953 0)"/>
      <use xlink:href="#DejaVuSans-70" transform="translate(1048.726562 0)"/>
      <use xlink:href="#DejaVuSans-6f" transform="translate(1112.203125 0)"/>
      <use xlink:href="#DejaVuSans-72" transform="translate(1173.384766 0)"/>
      <use xlink:href="#DejaVuSans-74" transform="translate(1214.498047 0)"/>
      <use xlink:href="#DejaVuSans-61" transform="translate(1253.707031 0)"/>
      <use xlink:href="#DejaVuSans-74" transform="translate(1314.986328 0)"/>
      <use xlink:href="#DejaVuSans-69" transform="translate(1354.195312 0)"/>
      <use xlink:href="#DejaVuSans-6f" transform="translate(1381.978516 0)"/>
      <use xlink:href="#DejaVuSans-6e" transform="translate(1443.160156 0)"/>
      <use xlink:href="#DejaVuSans-20" transform="translate(1506.539062 0)"/>
      <use xlink:href="#DejaVuSans-69" transform="translate(1538.326172 0)"/>
      <use xlink:href="#DejaVuSans-6e" transform="translate(1566.109375 0)"/>
      <use xlink:href="#DejaVuSans-20" transform="translate(1629.488281 0)"/>
      <use xlink:href="#DejaVuSans-74" transform="translate(1661.275391 0)"/>
      <use xlink:href="#DejaVuSans-68" transform="translate(1700.484375 0)"/>
      <use xlink:href="#DejaVuSans-65" transform="translate(1763.863281 0)"/>
      <use xlink:href="#DejaVuSans-20" transform="translate(1825.386719 0)"/>
      <use xlink:href="#DejaVuSans-70" transform="translate(1857.173828 0)"/>
      <use xlink:href="#DejaVuSans-61" transform="translate(1920.650391 0)"/>
      <use xlink:href="#DejaVuSans-73" transform="translate(1981.929688 0)"/>
      <use xlink:href="#DejaVuSans-74" transform="translate(2034.029297 0)"/>
      <use xlink:href="#DejaVuSans-20" transform="translate(2073.238281 0)"/>
      <use xlink:href="#DejaVuSans-31" transform="translate(2105.025391 0)"/>
      <use xlink:href="#DejaVuSans-32" transform="translate(2168.648438 0)"/>
      <use xlink:href="#DejaVuSans-20" transform="translate(2232.271484 0)"/>
      <use xlink:href="#DejaVuSans-6d" transform="translate(2264.058594 0)"/>
      <use xlink:href="#DejaVuSans-6f" transform="translate(2361.470703 0)"/>
      <use xlink:href="#DejaVuSans-6e" transform="translate(2422.652344 0)"/>
      <use xlink:href="#DejaVuSans-74" transform="translate(2486.03125 0)"/>
      <use xlink:href="#DejaVuSans-68" transform="translate(2525.240234 0)"/>
      <use xlink:href="#DejaVuSans-73" transform="translate(2588.619141 0)"/>
      <use xlink:href="#DejaVuSans-20" transform="translate(2640.71875 0)"/>
      <use xlink:href="#DejaVuSans-61" transform="translate(2672.505859 0)"/>
      <use xlink:href="#DejaVuSans-6d" transform="translate(2733.785156 0)"/>
      <use xlink:href="#DejaVuSans-6f" transform="translate(2831.197266 0)"/>
      <use xlink:href="#DejaVuSans-6e" transform="translate(2892.378906 0)"/>
      <use xlink:href="#DejaVuSans-67" transform="translate(2955.757812 0)"/>
      <use xlink:href="#DejaVuSans-20" transform="translate(3019.234375 0)"/>
      <use xlink:href="#DejaVuSans-61" transform="translate(3051.021484 0)"/>
      <use xlink:href="#DejaVuSans-64" transform="translate(3112.300781 0)"/>
      <use xlink:href="#DejaVuSans-75" transform="translate(3175.777344 0)"/>
      <use xlink:href="#DejaVuSans-6c" transform="translate(3239.15625 0)"/>
      <use xlink:href="#DejaVuSans-74" transform="translate(3266.939453 0)"/>
      <use xlink:href="#DejaVuSans-73" transform="translate(3306.148438 0)"/>
     </g>
    </g>
    <g id="patch_22">
     <path d="M 418.815938 67.032062 
L 438.815938 67.032062 
L 438.815938 60.032062 
L 418.815938 60.032062 
z
" style="fill: #c0504d; stroke: #963634; stroke-width: 0.7; stroke-linejoin: miter"/>
    </g>
    <g id="text_19">
     <!-- Mobility disability among adults -->
     <g transform="translate(446.815938 67.032062) scale(0.1 -0.1)">
      <use xlink:href="#DejaVuSans-4d"/>
      <use xlink:href="#DejaVuSans-6f" transform="translate(86.279297 0)"/>
      <use xlink:href="#DejaVuSans-62" transform="translate(147.460938 0)"/>
      <use xlink:href="#DejaVuSans-69" transform="translate(210.9375 0)"/>
      <use xlink:href="#DejaVuSans-6c" transform="translate(238.720703 0)"/>
      <use xlink:href="#DejaVuSans-69" transform="translate(266.503906 0)"/>
      <use xlink:href="#DejaVuSans-74" transform="translate(294.287109 0)"/>
      <use xlink:href="#DejaVuSans-79" transform="translate(333.496094 0)"/>
      <use xlink:href="#DejaVuSans-20" transform="translate(392.675781 0)"/>
      <use xlink:href="#DejaVuSans-64" transform="translate(424.462891 0)"/>
      <use xlink:href="#DejaVuSans-69" transform="translate(487.939453 0)"/>
      <use xlink:href="#DejaVuSans-73" transform="translate(515.722656 0)"/>
      <use xlink:href="#DejaVuSans-61" transform="translate(567.822266 0)"/>
      <use xlink:href="#DejaVuSans-62" transform="translate(629.101562 0)"/>
      <use xlink:href="#DejaVuSans-69" transform="translate(692.578125 0)"/>
      <use xlink:href="#DejaVuSans-6c" transform="translate(720.361328 0)"/>
      <use xlink:href="#DejaVuSans-69" transform="translate(748.144531 0)"/>
      <use xlink:href="#DejaVuSans-74" transform="translate(775.927734 0)"/>
      <use xlink:href="#DejaVuSans-79" transform="translate(815.136719 0)"/>
      <use xlink:href="#DejaVuSans-20" transform="translate(874.316406 0)"/>
      <use xlink:href="#DejaVuSans-61" transform="translate(906.103516 0)"/>
      <use xlink:href="#DejaVuSans-6d" transform="translate(967.382812 0)"/>
      <use xlink:href="#DejaVuSans-6f" transform="translate(1064.794922 0)"/>
      <use xlink:href="#DejaVuSans-6e" transform="translate(1125.976562 0)"/>
      <use xlink:href="#DejaVuSans-67" transform="translate(1189.355469 0)"/>
      <use xlink:href="#DejaVuSans-20" transform="translate(1252.832031 0)"/>
      <use xlink:href="#DejaVuSans-61" transform="translate(1284.619141 0)"/>
      <use xlink:href="#DejaVuSans-64" transform="translate(1345.898438 0)"/>
      <use xlink:href="#DejaVuSans-75" transform="translate(1409.375 0)"/>
      <use xlink:href="#DejaVuSans-6c" transform="translate(1472.753906 0)"/>
      <use xlink:href="#DejaVuSans-74" transform="translate(1500.537109 0)"/>
      <use xlink:href="#DejaVuSans-73" transform="translate(1539.746094 0)"/>
     </g>
    </g>
   </g>
  </g>
 </g>
 <defs>
  <clipPath id="pa2f825cb0b">
   <rect x="40.603125" y="35.7555" width="751.03" height="304.941047"/>
  </clipPath>
 </defs>
</svg>
