<?xml version="1.0" encoding="utf-8" standalone="no"?>
<!DOCTYPE svg PUBLIC "-//W3C//DTD SVG 1.1//EN"
  "http://www.w3.org/Graphics/SVG/1.1/DTD/svg11.dtd">
<svg xmlns:xlink="http://www.w3.org/1999/xlink" width="856.343125pt" height="422.895368pt" viewBox="0 0 856.343125 422.895368" xmlns="http://www.w3.org/2000/svg" version="1.1">
 <metadata>
  <rdf:RDF xmlns:dc="http://purl.org/dc/elements/1.1/" xmlns:cc="http://creativecommons.org/ns#" xmlns:rdf="http://www.w3.org/1999/02/22-rdf-syntax-ns#">
   <cc:Work>
    <dc:type rdf:resource="http://purl.org/dc/dcmitype/StillImage"/>
    <dc:date>2026-04-03T00:52:30.006536</dc:date>
    <dc:format>image/svg+xml</dc:format>
    <dc:creator>
     <cc:Agent>
      <dc:title>Matplotlib v3.10.8, https://matplotlib.org/</dc:title>
     </cc:Agent>
    </dc:creator>
   </cc:Work>
  </rdf:RDF>
 </metadata>
 <defs>
  <style type="text/css">*{stroke-linejoin: round; stroke-linecap: butt}</style>
 </defs>
 <g id="figure_1">
  <g id="patch_1">
   <path d="M 0 422.895368 
L 856.343125 422.895368 
L 856.343125 0 
L 0 0 
z
" style="fill: #ffffff"/>
  </g>
  <g id="axes_1">
   <g id="patch_2">
    <path d="M 40.603125 336.092168 
L 849.143125 336.092168 
L 849.143125 22.318125 
L 40.603125 22.318125 
z
" style="fill: #ffffff"/>
   </g>
   <g id="patch_3">
    <path d="M 77.354943 336.092168 
L 137.357912 336.092168 
L 137.357912 37.259746 
L 77.354943 37.259746 
z
" clip-path="url(#p1f279c40b8)" style="fill: #4472c4; stroke: #2f528f; stroke-width: 0.7; stroke-linejoin: miter"/>
   </g>
   <g id="patch_4">
    <path d="M 152.358654 336.092168 
L 212.361622 336.092168 
L 212.361622 52.342771 
L 152.358654 52.342771 
z
" clip-path="url(#p1f279c40b8)" style="fill: #4472c4; stroke: #2f528f; stroke-width: 0.7; stroke-linejoin: miter"/>
   </g>
   <g id="patch_5">
    <path d="M 227.362364 336.092168 
L 287.365333 336.092168 
L 287.365333 61.769661 
L 227.362364 61.769661 
z
" clip-path="url(#p1f279c40b8)" style="fill: #4472c4; stroke: #2f528f; stroke-width: 0.7; stroke-linejoin: miter"/>
   </g>
   <g id="patch_6">
    <path d="M 302.366075 336.092168 
L 362.369043 336.092168 
L 362.369043 66.483106 
L 302.366075 66.483106 
z
" clip-path="url(#p1f279c40b8)" style="fill: #4472c4; stroke: #2f528f; stroke-width: 0.7; stroke-linejoin: miter"/>
   </g>
   <g id="patch_7">
    <path d="M 377.369785 336.092168 
L 437.372754 336.092168 
L 437.372754 68.368484 
L 377.369785 68.368484 
z
" clip-path="url(#p1f279c40b8)" style="fill: #4472c4; stroke: #2f528f; stroke-width: 0.7; stroke-linejoin: miter"/>
   </g>
   <g id="patch_8">
    <path d="M 452.373496 336.092168 
L 512.376465 336.092168 
L 512.376465 74.967307 
L 452.373496 74.967307 
z
" clip-path="url(#p1f279c40b8)" style="fill: #4472c4; stroke: #2f528f; stroke-width: 0.7; stroke-linejoin: miter"/>
   </g>
   <g id="patch_9">
    <path d="M 527.377207 336.092168 
L 587.380175 336.092168 
L 587.380175 76.852685 
L 527.377207 76.852685 
z
" clip-path="url(#p1f279c40b8)" style="fill: #4472c4; stroke: #2f528f; stroke-width: 0.7; stroke-linejoin: miter"/>
   </g>
   <g id="patch_10">
    <path d="M 602.380917 336.092168 
L 662.383886 336.092168 
L 662.383886 80.623441 
L 602.380917 80.623441 
z
" clip-path="url(#p1f279c40b8)" style="fill: #4472c4; stroke: #2f528f; stroke-width: 0.7; stroke-linejoin: miter"/>
   </g>
   <g id="patch_11">
    <path d="M 677.384628 336.092168 
L 737.387596 336.092168 
L 737.387596 88.164954 
L 677.384628 88.164954 
z
" clip-path="url(#p1f279c40b8)" style="fill: #4472c4; stroke: #2f528f; stroke-width: 0.7; stroke-linejoin: miter"/>
   </g>
   <g id="patch_12">
    <path d="M 752.388338 336.092168 
L 812.391307 336.092168 
L 812.391307 90.993021 
L 752.388338 90.993021 
z
" clip-path="url(#p1f279c40b8)" style="fill: #4472c4; stroke: #2f528f; stroke-width: 0.7; stroke-linejoin: miter"/>
   </g>
   <g id="matplotlib.axis_1">
    <g id="xtick_1">
     <g id="line2d_1">
      <defs>
       <path id="m7b1710a432" d="M 0 0 
L 0 3.5 
" style="stroke: #000000; stroke-width: 0.8"/>
      </defs>
      <g>
       <use xlink:href="#m7b1710a432" x="107.356427" y="336.092168" style="stroke: #000000; stroke-width: 0.8"/>
      </g>
     </g>
     <g id="text_1">
      <!-- Hancock, TN -->
      <g transform="translate(54.690101 385.358553) rotate(-35) scale(0.1 -0.1)">
       <defs>
        <path id="DejaVuSans-48" d="M 628 4666 
L 1259 4666 
L 1259 2753 
L 3553 2753 
L 3553 4666 
L 4184 4666 
L 4184 0 
L 3553 0 
L 3553 2222 
L 1259 2222 
L 1259 0 
L 628 0 
L 628 4666 
z
" transform="scale(0.015625)"/>
        <path id="DejaVuSans-61" d="M 2194 1759 
Q 1497 1759 1228 1600 
Q 959 1441 959 1056 
Q 959 750 1161 570 
Q 1363 391 1709 391 
Q 2188 391 2477 730 
Q 2766 1069 2766 1631 
L 2766 1759 
L 2194 1759 
z
M 3341 1997 
L 3341 0 
L 2766 0 
L 2766 531 
Q 2569 213 2275 61 
Q 1981 -91 1556 -91 
Q 1019 -91 701 211 
Q 384 513 384 1019 
Q 384 1609 779 1909 
Q 1175 2209 1959 2209 
L 2766 2209 
L 2766 2266 
Q 2766 2663 2505 2880 
Q 2244 3097 1772 3097 
Q 1472 3097 1187 3025 
Q 903 2953 641 2809 
L 641 3341 
Q 956 3463 1253 3523 
Q 1550 3584 1831 3584 
Q 2591 3584 2966 3190 
Q 3341 2797 3341 1997 
z
" transform="scale(0.015625)"/>
        <path id="DejaVuSans-6e" d="M 3513 2113 
L 3513 0 
L 2938 0 
L 2938 2094 
Q 2938 2591 2744 2837 
Q 2550 3084 2163 3084 
Q 1697 3084 1428 2787 
Q 1159 2491 1159 1978 
L 1159 0 
L 581 0 
L 581 3500 
L 1159 3500 
L 1159 2956 
Q 1366 3272 1645 3428 
Q 1925 3584 2291 3584 
Q 2894 3584 3203 3211 
Q 3513 2838 3513 2113 
z
" transform="scale(0.015625)"/>
        <path id="DejaVuSans-63" d="M 3122 3366 
L 3122 2828 
Q 2878 2963 2633 3030 
Q 2388 3097 2138 3097 
Q 1578 3097 1268 2742 
Q 959 2388 959 1747 
Q 959 1106 1268 751 
Q 1578 397 2138 397 
Q 2388 397 2633 464 
Q 2878 531 3122 666 
L 3122 134 
Q 2881 22 2623 -34 
Q 2366 -91 2075 -91 
Q 1284 -91 818 406 
Q 353 903 353 1747 
Q 353 2603 823 3093 
Q 1294 3584 2113 3584 
Q 2378 3584 2631 3529 
Q 2884 3475 3122 3366 
z
" transform="scale(0.015625)"/>
        <path id="DejaVuSans-6f" d="M 1959 3097 
Q 1497 3097 1228 2736 
Q 959 2375 959 1747 
Q 959 1119 1226 758 
Q 1494 397 1959 397 
Q 2419 397 2687 759 
Q 2956 1122 2956 1747 
Q 2956 2369 2687 2733 
Q 2419 3097 1959 3097 
z
M 1959 3584 
Q 2709 3584 3137 3096 
Q 3566 2609 3566 1747 
Q 3566 888 3137 398 
Q 2709 -91 1959 -91 
Q 1206 -91 779 398 
Q 353 888 353 1747 
Q 353 2609 779 3096 
Q 1206 3584 1959 3584 
z
" transform="scale(0.015625)"/>
        <path id="DejaVuSans-6b" d="M 581 4863 
L 1159 4863 
L 1159 1991 
L 2875 3500 
L 3609 3500 
L 1753 1863 
L 3688 0 
L 2938 0 
L 1159 1709 
L 1159 0 
L 581 0 
L 581 4863 
z
" transform="scale(0.015625)"/>
        <path id="DejaVuSans-2c" d="M 750 794 
L 1409 794 
L 1409 256 
L 897 -744 
L 494 -744 
L 750 256 
L 750 794 
z
" transform="scale(0.015625)"/>
        <path id="DejaVuSans-20" transform="scale(0.015625)"/>
        <path id="DejaVuSans-54" d="M -19 4666 
L 3928 4666 
L 3928 4134 
L 2272 4134 
L 2272 0 
L 1638 0 
L 1638 4134 
L -19 4134 
L -19 4666 
z
" transform="scale(0.015625)"/>
        <path id="DejaVuSans-4e" d="M 628 4666 
L 1478 4666 
L 3547 763 
L 3547 4666 
L 4159 4666 
L 4159 0 
L 3309 0 
L 1241 3903 
L 1241 0 
L 628 0 
L 628 4666 
z
" transform="scale(0.015625)"/>
       </defs>
       <use xlink:href="#DejaVuSans-48"/>
       <use xlink:href="#DejaVuSans-61" transform="translate(75.195312 0)"/>
       <use xlink:href="#DejaVuSans-6e" transform="translate(136.474609 0)"/>
       <use xlink:href="#DejaVuSans-63" transform="translate(199.853516 0)"/>
       <use xlink:href="#DejaVuSans-6f" transform="translate(254.833984 0)"/>
       <use xlink:href="#DejaVuSans-63" transform="translate(316.015625 0)"/>
       <use xlink:href="#DejaVuSans-6b" transform="translate(370.996094 0)"/>
       <use xlink:href="#DejaVuSans-2c" transform="translate(428.90625 0)"/>
       <use xlink:href="#DejaVuSans-20" transform="translate(460.693359 0)"/>
       <use xlink:href="#DejaVuSans-54" transform="translate(492.480469 0)"/>
       <use xlink:href="#DejaVuSans-4e" transform="translate(553.564453 0)"/>
      </g>
     </g>
    </g>
    <g id="xtick_2">
     <g id="line2d_2">
      <g>
       <use xlink:href="#m7b1710a432" x="182.360138" y="336.092168" style="stroke: #000000; stroke-width: 0.8"/>
      </g>
     </g>
     <g id="text_2">
      <!-- McDowell, WV -->
      <g transform="translate(123.075319 389.992871) rotate(-35) scale(0.1 -0.1)">
       <defs>
        <path id="DejaVuSans-4d" d="M 628 4666 
L 1569 4666 
L 2759 1491 
L 3956 4666 
L 4897 4666 
L 4897 0 
L 4281 0 
L 4281 4097 
L 3078 897 
L 2444 897 
L 1241 4097 
L 1241 0 
L 628 0 
L 628 4666 
z
" transform="scale(0.015625)"/>
        <path id="DejaVuSans-44" d="M 1259 4147 
L 1259 519 
L 2022 519 
Q 2988 519 3436 956 
Q 3884 1394 3884 2338 
Q 3884 3275 3436 3711 
Q 2988 4147 2022 4147 
L 1259 4147 
z
M 628 4666 
L 1925 4666 
Q 3281 4666 3915 4102 
Q 4550 3538 4550 2338 
Q 4550 1131 3912 565 
Q 3275 0 1925 0 
L 628 0 
L 628 4666 
z
" transform="scale(0.015625)"/>
        <path id="DejaVuSans-77" d="M 269 3500 
L 844 3500 
L 1563 769 
L 2278 3500 
L 2956 3500 
L 3675 769 
L 4391 3500 
L 4966 3500 
L 4050 0 
L 3372 0 
L 2619 2869 
L 1863 0 
L 1184 0 
L 269 3500 
z
" transform="scale(0.015625)"/>
        <path id="DejaVuSans-65" d="M 3597 1894 
L 3597 1613 
L 953 1613 
Q 991 1019 1311 708 
Q 1631 397 2203 397 
Q 2534 397 2845 478 
Q 3156 559 3463 722 
L 3463 178 
Q 3153 47 2828 -22 
Q 2503 -91 2169 -91 
Q 1331 -91 842 396 
Q 353 884 353 1716 
Q 353 2575 817 3079 
Q 1281 3584 2069 3584 
Q 2775 3584 3186 3129 
Q 3597 2675 3597 1894 
z
M 3022 2063 
Q 3016 2534 2758 2815 
Q 2500 3097 2075 3097 
Q 1594 3097 1305 2825 
Q 1016 2553 972 2059 
L 3022 2063 
z
" transform="scale(0.015625)"/>
        <path id="DejaVuSans-6c" d="M 603 4863 
L 1178 4863 
L 1178 0 
L 603 0 
L 603 4863 
z
" transform="scale(0.015625)"/>
        <path id="DejaVuSans-57" d="M 213 4666 
L 850 4666 
L 1831 722 
L 2809 4666 
L 3519 4666 
L 4500 722 
L 5478 4666 
L 6119 4666 
L 4947 0 
L 4153 0 
L 3169 4050 
L 2175 0 
L 1381 0 
L 213 4666 
z
" transform="scale(0.015625)"/>
        <path id="DejaVuSans-56" d="M 1831 0 
L 50 4666 
L 709 4666 
L 2188 738 
L 3669 4666 
L 4325 4666 
L 2547 0 
L 1831 0 
z
" transform="scale(0.015625)"/>
       </defs>
       <use xlink:href="#DejaVuSans-4d"/>
       <use xlink:href="#DejaVuSans-63" transform="translate(86.279297 0)"/>
       <use xlink:href="#DejaVuSans-44" transform="translate(141.259766 0)"/>
       <use xlink:href="#DejaVuSans-6f" transform="translate(218.261719 0)"/>
       <use xlink:href="#DejaVuSans-77" transform="translate(279.443359 0)"/>
       <use xlink:href="#DejaVuSans-65" transform="translate(361.230469 0)"/>
       <use xlink:href="#DejaVuSans-6c" transform="translate(422.753906 0)"/>
       <use xlink:href="#DejaVuSans-6c" transform="translate(450.537109 0)"/>
       <use xlink:href="#DejaVuSans-2c" transform="translate(478.320312 0)"/>
       <use xlink:href="#DejaVuSans-20" transform="translate(510.107422 0)"/>
       <use xlink:href="#DejaVuSans-57" transform="translate(541.894531 0)"/>
       <use xlink:href="#DejaVuSans-56" transform="translate(640.771484 0)"/>
      </g>
     </g>
    </g>
    <g id="xtick_3">
     <g id="line2d_3">
      <g>
       <use xlink:href="#m7b1710a432" x="257.363849" y="336.092168" style="stroke: #000000; stroke-width: 0.8"/>
      </g>
     </g>
     <g id="text_3">
      <!-- Mingo, WV -->
      <g transform="translate(212.514025 379.885379) rotate(-35) scale(0.1 -0.1)">
       <defs>
        <path id="DejaVuSans-69" d="M 603 3500 
L 1178 3500 
L 1178 0 
L 603 0 
L 603 3500 
z
M 603 4863 
L 1178 4863 
L 1178 4134 
L 603 4134 
L 603 4863 
z
" transform="scale(0.015625)"/>
        <path id="DejaVuSans-67" d="M 2906 1791 
Q 2906 2416 2648 2759 
Q 2391 3103 1925 3103 
Q 1463 3103 1205 2759 
Q 947 2416 947 1791 
Q 947 1169 1205 825 
Q 1463 481 1925 481 
Q 2391 481 2648 825 
Q 2906 1169 2906 1791 
z
M 3481 434 
Q 3481 -459 3084 -895 
Q 2688 -1331 1869 -1331 
Q 1566 -1331 1297 -1286 
Q 1028 -1241 775 -1147 
L 775 -588 
Q 1028 -725 1275 -790 
Q 1522 -856 1778 -856 
Q 2344 -856 2625 -561 
Q 2906 -266 2906 331 
L 2906 616 
Q 2728 306 2450 153 
Q 2172 0 1784 0 
Q 1141 0 747 490 
Q 353 981 353 1791 
Q 353 2603 747 3093 
Q 1141 3584 1784 3584 
Q 2172 3584 2450 3431 
Q 2728 3278 2906 2969 
L 2906 3500 
L 3481 3500 
L 3481 434 
z
" transform="scale(0.015625)"/>
       </defs>
       <use xlink:href="#DejaVuSans-4d"/>
       <use xlink:href="#DejaVuSans-69" transform="translate(86.279297 0)"/>
       <use xlink:href="#DejaVuSans-6e" transform="translate(114.0625 0)"/>
       <use xlink:href="#DejaVuSans-67" transform="translate(177.441406 0)"/>
       <use xlink:href="#DejaVuSans-6f" transform="translate(240.917969 0)"/>
       <use xlink:href="#DejaVuSans-2c" transform="translate(302.099609 0)"/>
       <use xlink:href="#DejaVuSans-20" transform="translate(333.886719 0)"/>
       <use xlink:href="#DejaVuSans-57" transform="translate(365.673828 0)"/>
       <use xlink:href="#DejaVuSans-56" transform="translate(464.550781 0)"/>
      </g>
     </g>
    </g>
    <g id="xtick_4">
     <g id="line2d_4">
      <g>
       <use xlink:href="#m7b1710a432" x="332.367559" y="336.092168" style="stroke: #000000; stroke-width: 0.8"/>
      </g>
     </g>
     <g id="text_4">
      <!-- Oglala Lakota, SD -->
      <g transform="translate(258.343123 400.313662) rotate(-35) scale(0.1 -0.1)">
       <defs>
        <path id="DejaVuSans-4f" d="M 2522 4238 
Q 1834 4238 1429 3725 
Q 1025 3213 1025 2328 
Q 1025 1447 1429 934 
Q 1834 422 2522 422 
Q 3209 422 3611 934 
Q 4013 1447 4013 2328 
Q 4013 3213 3611 3725 
Q 3209 4238 2522 4238 
z
M 2522 4750 
Q 3503 4750 4090 4092 
Q 4678 3434 4678 2328 
Q 4678 1225 4090 567 
Q 3503 -91 2522 -91 
Q 1538 -91 948 565 
Q 359 1222 359 2328 
Q 359 3434 948 4092 
Q 1538 4750 2522 4750 
z
" transform="scale(0.015625)"/>
        <path id="DejaVuSans-4c" d="M 628 4666 
L 1259 4666 
L 1259 531 
L 3531 531 
L 3531 0 
L 628 0 
L 628 4666 
z
" transform="scale(0.015625)"/>
        <path id="DejaVuSans-74" d="M 1172 4494 
L 1172 3500 
L 2356 3500 
L 2356 3053 
L 1172 3053 
L 1172 1153 
Q 1172 725 1289 603 
Q 1406 481 1766 481 
L 2356 481 
L 2356 0 
L 1766 0 
Q 1100 0 847 248 
Q 594 497 594 1153 
L 594 3053 
L 172 3053 
L 172 3500 
L 594 3500 
L 594 4494 
L 1172 4494 
z
" transform="scale(0.015625)"/>
        <path id="DejaVuSans-53" d="M 3425 4513 
L 3425 3897 
Q 3066 4069 2747 4153 
Q 2428 4238 2131 4238 
Q 1616 4238 1336 4038 
Q 1056 3838 1056 3469 
Q 1056 3159 1242 3001 
Q 1428 2844 1947 2747 
L 2328 2669 
Q 3034 2534 3370 2195 
Q 3706 1856 3706 1288 
Q 3706 609 3251 259 
Q 2797 -91 1919 -91 
Q 1588 -91 1214 -16 
Q 841 59 441 206 
L 441 856 
Q 825 641 1194 531 
Q 1563 422 1919 422 
Q 2459 422 2753 634 
Q 3047 847 3047 1241 
Q 3047 1584 2836 1778 
Q 2625 1972 2144 2069 
L 1759 2144 
Q 1053 2284 737 2584 
Q 422 2884 422 3419 
Q 422 4038 858 4394 
Q 1294 4750 2059 4750 
Q 2388 4750 2728 4690 
Q 3069 4631 3425 4513 
z
" transform="scale(0.015625)"/>
       </defs>
       <use xlink:href="#DejaVuSans-4f"/>
       <use xlink:href="#DejaVuSans-67" transform="translate(78.710938 0)"/>
       <use xlink:href="#DejaVuSans-6c" transform="translate(142.1875 0)"/>
       <use xlink:href="#DejaVuSans-61" transform="translate(169.970703 0)"/>
       <use xlink:href="#DejaVuSans-6c" transform="translate(231.25 0)"/>
       <use xlink:href="#DejaVuSans-61" transform="translate(259.033203 0)"/>
       <use xlink:href="#DejaVuSans-20" transform="translate(320.3125 0)"/>
       <use xlink:href="#DejaVuSans-4c" transform="translate(352.099609 0)"/>
       <use xlink:href="#DejaVuSans-61" transform="translate(407.8125 0)"/>
       <use xlink:href="#DejaVuSans-6b" transform="translate(469.091797 0)"/>
       <use xlink:href="#DejaVuSans-6f" transform="translate(523.376953 0)"/>
       <use xlink:href="#DejaVuSans-74" transform="translate(584.558594 0)"/>
       <use xlink:href="#DejaVuSans-61" transform="translate(623.767578 0)"/>
       <use xlink:href="#DejaVuSans-2c" transform="translate(685.046875 0)"/>
       <use xlink:href="#DejaVuSans-20" transform="translate(716.833984 0)"/>
       <use xlink:href="#DejaVuSans-53" transform="translate(748.621094 0)"/>
       <use xlink:href="#DejaVuSans-44" transform="translate(812.097656 0)"/>
      </g>
     </g>
    </g>
    <g id="xtick_5">
     <g id="line2d_5">
      <g>
       <use xlink:href="#m7b1710a432" x="407.37127" y="336.092168" style="stroke: #000000; stroke-width: 0.8"/>
      </g>
     </g>
     <g id="text_5">
      <!-- Calhoun, WV -->
      <g transform="translate(353.666924 386.085382) rotate(-35) scale(0.1 -0.1)">
       <defs>
        <path id="DejaVuSans-43" d="M 4122 4306 
L 4122 3641 
Q 3803 3938 3442 4084 
Q 3081 4231 2675 4231 
Q 1875 4231 1450 3742 
Q 1025 3253 1025 2328 
Q 1025 1406 1450 917 
Q 1875 428 2675 428 
Q 3081 428 3442 575 
Q 3803 722 4122 1019 
L 4122 359 
Q 3791 134 3420 21 
Q 3050 -91 2638 -91 
Q 1578 -91 968 557 
Q 359 1206 359 2328 
Q 359 3453 968 4101 
Q 1578 4750 2638 4750 
Q 3056 4750 3426 4639 
Q 3797 4528 4122 4306 
z
" transform="scale(0.015625)"/>
        <path id="DejaVuSans-68" d="M 3513 2113 
L 3513 0 
L 2938 0 
L 2938 2094 
Q 2938 2591 2744 2837 
Q 2550 3084 2163 3084 
Q 1697 3084 1428 2787 
Q 1159 2491 1159 1978 
L 1159 0 
L 581 0 
L 581 4863 
L 1159 4863 
L 1159 2956 
Q 1366 3272 1645 3428 
Q 1925 3584 2291 3584 
Q 2894 3584 3203 3211 
Q 3513 2838 3513 2113 
z
" transform="scale(0.015625)"/>
        <path id="DejaVuSans-75" d="M 544 1381 
L 544 3500 
L 1119 3500 
L 1119 1403 
Q 1119 906 1312 657 
Q 1506 409 1894 409 
Q 2359 409 2629 706 
Q 2900 1003 2900 1516 
L 2900 3500 
L 3475 3500 
L 3475 0 
L 2900 0 
L 2900 538 
Q 2691 219 2414 64 
Q 2138 -91 1772 -91 
Q 1169 -91 856 284 
Q 544 659 544 1381 
z
M 1991 3584 
L 1991 3584 
z
" transform="scale(0.015625)"/>
       </defs>
       <use xlink:href="#DejaVuSans-43"/>
       <use xlink:href="#DejaVuSans-61" transform="translate(69.824219 0)"/>
       <use xlink:href="#DejaVuSans-6c" transform="translate(131.103516 0)"/>
       <use xlink:href="#DejaVuSans-68" transform="translate(158.886719 0)"/>
       <use xlink:href="#DejaVuSans-6f" transform="translate(222.265625 0)"/>
       <use xlink:href="#DejaVuSans-75" transform="translate(283.447266 0)"/>
       <use xlink:href="#DejaVuSans-6e" transform="translate(346.826172 0)"/>
       <use xlink:href="#DejaVuSans-2c" transform="translate(410.205078 0)"/>
       <use xlink:href="#DejaVuSans-20" transform="translate(441.992188 0)"/>
       <use xlink:href="#DejaVuSans-57" transform="translate(473.779297 0)"/>
       <use xlink:href="#DejaVuSans-56" transform="translate(572.65625 0)"/>
      </g>
     </g>
    </g>
    <g id="xtick_6">
     <g id="line2d_6">
      <g>
       <use xlink:href="#m7b1710a432" x="482.37498" y="336.092168" style="stroke: #000000; stroke-width: 0.8"/>
      </g>
     </g>
     <g id="text_6">
      <!-- Lake, TN -->
      <g transform="translate(445.772994 374.110181) rotate(-35) scale(0.1 -0.1)">
       <use xlink:href="#DejaVuSans-4c"/>
       <use xlink:href="#DejaVuSans-61" transform="translate(55.712891 0)"/>
       <use xlink:href="#DejaVuSans-6b" transform="translate(116.992188 0)"/>
       <use xlink:href="#DejaVuSans-65" transform="translate(171.277344 0)"/>
       <use xlink:href="#DejaVuSans-2c" transform="translate(232.800781 0)"/>
       <use xlink:href="#DejaVuSans-20" transform="translate(264.587891 0)"/>
       <use xlink:href="#DejaVuSans-54" transform="translate(296.375 0)"/>
       <use xlink:href="#DejaVuSans-4e" transform="translate(357.458984 0)"/>
      </g>
     </g>
    </g>
    <g id="xtick_7">
     <g id="line2d_7">
      <g>
       <use xlink:href="#m7b1710a432" x="557.378691" y="336.092168" style="stroke: #000000; stroke-width: 0.8"/>
      </g>
     </g>
     <g id="text_7">
      <!-- Todd, SD -->
      <g transform="translate(520.447763 374.340508) rotate(-35) scale(0.1 -0.1)">
       <defs>
        <path id="DejaVuSans-64" d="M 2906 2969 
L 2906 4863 
L 3481 4863 
L 3481 0 
L 2906 0 
L 2906 525 
Q 2725 213 2448 61 
Q 2172 -91 1784 -91 
Q 1150 -91 751 415 
Q 353 922 353 1747 
Q 353 2572 751 3078 
Q 1150 3584 1784 3584 
Q 2172 3584 2448 3432 
Q 2725 3281 2906 2969 
z
M 947 1747 
Q 947 1113 1208 752 
Q 1469 391 1925 391 
Q 2381 391 2643 752 
Q 2906 1113 2906 1747 
Q 2906 2381 2643 2742 
Q 2381 3103 1925 3103 
Q 1469 3103 1208 2742 
Q 947 2381 947 1747 
z
" transform="scale(0.015625)"/>
       </defs>
       <use xlink:href="#DejaVuSans-54"/>
       <use xlink:href="#DejaVuSans-6f" transform="translate(44.083984 0)"/>
       <use xlink:href="#DejaVuSans-64" transform="translate(105.265625 0)"/>
       <use xlink:href="#DejaVuSans-64" transform="translate(168.742188 0)"/>
       <use xlink:href="#DejaVuSans-2c" transform="translate(232.21875 0)"/>
       <use xlink:href="#DejaVuSans-20" transform="translate(264.005859 0)"/>
       <use xlink:href="#DejaVuSans-53" transform="translate(295.792969 0)"/>
       <use xlink:href="#DejaVuSans-44" transform="translate(359.269531 0)"/>
      </g>
     </g>
    </g>
    <g id="xtick_8">
     <g id="line2d_8">
      <g>
       <use xlink:href="#m7b1710a432" x="632.382401" y="336.092168" style="stroke: #000000; stroke-width: 0.8"/>
      </g>
     </g>
     <g id="text_8">
      <!-- Hickory, MO -->
      <g transform="translate(581.85227 383.862773) rotate(-35) scale(0.1 -0.1)">
       <defs>
        <path id="DejaVuSans-72" d="M 2631 2963 
Q 2534 3019 2420 3045 
Q 2306 3072 2169 3072 
Q 1681 3072 1420 2755 
Q 1159 2438 1159 1844 
L 1159 0 
L 581 0 
L 581 3500 
L 1159 3500 
L 1159 2956 
Q 1341 3275 1631 3429 
Q 1922 3584 2338 3584 
Q 2397 3584 2469 3576 
Q 2541 3569 2628 3553 
L 2631 2963 
z
" transform="scale(0.015625)"/>
        <path id="DejaVuSans-79" d="M 2059 -325 
Q 1816 -950 1584 -1140 
Q 1353 -1331 966 -1331 
L 506 -1331 
L 506 -850 
L 844 -850 
Q 1081 -850 1212 -737 
Q 1344 -625 1503 -206 
L 1606 56 
L 191 3500 
L 800 3500 
L 1894 763 
L 2988 3500 
L 3597 3500 
L 2059 -325 
z
" transform="scale(0.015625)"/>
       </defs>
       <use xlink:href="#DejaVuSans-48"/>
       <use xlink:href="#DejaVuSans-69" transform="translate(75.195312 0)"/>
       <use xlink:href="#DejaVuSans-63" transform="translate(102.978516 0)"/>
       <use xlink:href="#DejaVuSans-6b" transform="translate(157.958984 0)"/>
       <use xlink:href="#DejaVuSans-6f" transform="translate(212.244141 0)"/>
       <use xlink:href="#DejaVuSans-72" transform="translate(273.425781 0)"/>
       <use xlink:href="#DejaVuSans-79" transform="translate(314.539062 0)"/>
       <use xlink:href="#DejaVuSans-2c" transform="translate(373.71875 0)"/>
       <use xlink:href="#DejaVuSans-20" transform="translate(405.505859 0)"/>
       <use xlink:href="#DejaVuSans-4d" transform="translate(437.292969 0)"/>
       <use xlink:href="#DejaVuSans-4f" transform="translate(523.572266 0)"/>
      </g>
     </g>
    </g>
    <g id="xtick_9">
     <g id="line2d_9">
      <g>
       <use xlink:href="#m7b1710a432" x="707.386112" y="336.092168" style="stroke: #000000; stroke-width: 0.8"/>
      </g>
     </g>
     <g id="text_9">
      <!-- Pickett, TN -->
      <g transform="translate(662.410855 379.973208) rotate(-35) scale(0.1 -0.1)">
       <defs>
        <path id="DejaVuSans-50" d="M 1259 4147 
L 1259 2394 
L 2053 2394 
Q 2494 2394 2734 2622 
Q 2975 2850 2975 3272 
Q 2975 3691 2734 3919 
Q 2494 4147 2053 4147 
L 1259 4147 
z
M 628 4666 
L 2053 4666 
Q 2838 4666 3239 4311 
Q 3641 3956 3641 3272 
Q 3641 2581 3239 2228 
Q 2838 1875 2053 1875 
L 1259 1875 
L 1259 0 
L 628 0 
L 628 4666 
z
" transform="scale(0.015625)"/>
       </defs>
       <use xlink:href="#DejaVuSans-50"/>
       <use xlink:href="#DejaVuSans-69" transform="translate(58.052734 0)"/>
       <use xlink:href="#DejaVuSans-63" transform="translate(85.835938 0)"/>
       <use xlink:href="#DejaVuSans-6b" transform="translate(140.816406 0)"/>
       <use xlink:href="#DejaVuSans-65" transform="translate(195.101562 0)"/>
       <use xlink:href="#DejaVuSans-74" transform="translate(256.625 0)"/>
       <use xlink:href="#DejaVuSans-74" transform="translate(295.833984 0)"/>
       <use xlink:href="#DejaVuSans-2c" transform="translate(335.042969 0)"/>
       <use xlink:href="#DejaVuSans-20" transform="translate(366.830078 0)"/>
       <use xlink:href="#DejaVuSans-54" transform="translate(398.617188 0)"/>
       <use xlink:href="#DejaVuSans-4e" transform="translate(459.701172 0)"/>
      </g>
     </g>
    </g>
    <g id="xtick_10">
     <g id="line2d_10">
      <g>
       <use xlink:href="#m7b1710a432" x="782.389823" y="336.092168" style="stroke: #000000; stroke-width: 0.8"/>
      </g>
     </g>
     <g id="text_10">
      <!-- East Carroll, LA -->
      <g transform="translate(718.649585 393.11259) rotate(-35) scale(0.1 -0.1)">
       <defs>
        <path id="DejaVuSans-45" d="M 628 4666 
L 3578 4666 
L 3578 4134 
L 1259 4134 
L 1259 2753 
L 3481 2753 
L 3481 2222 
L 1259 2222 
L 1259 531 
L 3634 531 
L 3634 0 
L 628 0 
L 628 4666 
z
" transform="scale(0.015625)"/>
        <path id="DejaVuSans-73" d="M 2834 3397 
L 2834 2853 
Q 2591 2978 2328 3040 
Q 2066 3103 1784 3103 
Q 1356 3103 1142 2972 
Q 928 2841 928 2578 
Q 928 2378 1081 2264 
Q 1234 2150 1697 2047 
L 1894 2003 
Q 2506 1872 2764 1633 
Q 3022 1394 3022 966 
Q 3022 478 2636 193 
Q 2250 -91 1575 -91 
Q 1294 -91 989 -36 
Q 684 19 347 128 
L 347 722 
Q 666 556 975 473 
Q 1284 391 1588 391 
Q 1994 391 2212 530 
Q 2431 669 2431 922 
Q 2431 1156 2273 1281 
Q 2116 1406 1581 1522 
L 1381 1569 
Q 847 1681 609 1914 
Q 372 2147 372 2553 
Q 372 3047 722 3315 
Q 1072 3584 1716 3584 
Q 2034 3584 2315 3537 
Q 2597 3491 2834 3397 
z
" transform="scale(0.015625)"/>
        <path id="DejaVuSans-41" d="M 2188 4044 
L 1331 1722 
L 3047 1722 
L 2188 4044 
z
M 1831 4666 
L 2547 4666 
L 4325 0 
L 3669 0 
L 3244 1197 
L 1141 1197 
L 716 0 
L 50 0 
L 1831 4666 
z
" transform="scale(0.015625)"/>
       </defs>
       <use xlink:href="#DejaVuSans-45"/>
       <use xlink:href="#DejaVuSans-61" transform="translate(63.183594 0)"/>
       <use xlink:href="#DejaVuSans-73" transform="translate(124.462891 0)"/>
       <use xlink:href="#DejaVuSans-74" transform="translate(176.5625 0)"/>
       <use xlink:href="#DejaVuSans-20" transform="translate(215.771484 0)"/>
       <use xlink:href="#DejaVuSans-43" transform="translate(247.558594 0)"/>
       <use xlink:href="#DejaVuSans-61" transform="translate(317.382812 0)"/>
       <use xlink:href="#DejaVuSans-72" transform="translate(378.662109 0)"/>
       <use xlink:href="#DejaVuSans-72" transform="translate(418.025391 0)"/>
       <use xlink:href="#DejaVuSans-6f" transform="translate(456.888672 0)"/>
       <use xlink:href="#DejaVuSans-6c" transform="translate(518.070312 0)"/>
       <use xlink:href="#DejaVuSans-6c" transform="translate(545.853516 0)"/>
       <use xlink:href="#DejaVuSans-2c" transform="translate(573.636719 0)"/>
       <use xlink:href="#DejaVuSans-20" transform="translate(605.423828 0)"/>
       <use xlink:href="#DejaVuSans-4c" transform="translate(637.210938 0)"/>
       <use xlink:href="#DejaVuSans-41" transform="translate(695.173828 0)"/>
      </g>
     </g>
    </g>
    <g id="text_11">
     <!-- County -->
     <g transform="translate(427.065313 413.61568) scale(0.1 -0.1)">
      <use xlink:href="#DejaVuSans-43"/>
      <use xlink:href="#DejaVuSans-6f" transform="translate(69.824219 0)"/>
      <use xlink:href="#DejaVuSans-75" transform="translate(131.005859 0)"/>
      <use xlink:href="#DejaVuSans-6e" transform="translate(194.384766 0)"/>
      <use xlink:href="#DejaVuSans-74" transform="translate(257.763672 0)"/>
      <use xlink:href="#DejaVuSans-79" transform="translate(296.972656 0)"/>
     </g>
    </g>
   </g>
   <g id="matplotlib.axis_2">
    <g id="ytick_1">
     <g id="line2d_11">
      <path d="M 40.603125 336.092168 
L 849.143125 336.092168 
" clip-path="url(#p1f279c40b8)" style="fill: none; stroke-dasharray: 1.85,0.8; stroke-dashoffset: 0; stroke: #b0b0b0; stroke-opacity: 0.4; stroke-width: 0.5"/>
     </g>
     <g id="line2d_12">
      <defs>
       <path id="m6735746d44" d="M 0 0 
L -3.5 0 
" style="stroke: #000000; stroke-width: 0.8"/>
      </defs>
      <g>
       <use xlink:href="#m6735746d44" x="40.603125" y="336.092168" style="stroke: #000000; stroke-width: 0.8"/>
      </g>
     </g>
     <g id="text_12">
      <!-- 0 -->
      <g transform="translate(27.240625 339.891387) scale(0.1 -0.1)">
       <defs>
        <path id="DejaVuSans-30" d="M 2034 4250 
Q 1547 4250 1301 3770 
Q 1056 3291 1056 2328 
Q 1056 1369 1301 889 
Q 1547 409 2034 409 
Q 2525 409 2770 889 
Q 3016 1369 3016 2328 
Q 3016 3291 2770 3770 
Q 2525 4250 2034 4250 
z
M 2034 4750 
Q 2819 4750 3233 4129 
Q 3647 3509 3647 2328 
Q 3647 1150 3233 529 
Q 2819 -91 2034 -91 
Q 1250 -91 836 529 
Q 422 1150 422 2328 
Q 422 3509 836 4129 
Q 1250 4750 2034 4750 
z
" transform="scale(0.015625)"/>
       </defs>
       <use xlink:href="#DejaVuSans-30"/>
      </g>
     </g>
    </g>
    <g id="ytick_2">
     <g id="line2d_13">
      <path d="M 40.603125 298.384607 
L 849.143125 298.384607 
" clip-path="url(#p1f279c40b8)" style="fill: none; stroke-dasharray: 1.85,0.8; stroke-dashoffset: 0; stroke: #b0b0b0; stroke-opacity: 0.4; stroke-width: 0.5"/>
     </g>
     <g id="line2d_14">
      <g>
       <use xlink:href="#m6735746d44" x="40.603125" y="298.384607" style="stroke: #000000; stroke-width: 0.8"/>
      </g>
     </g>
     <g id="text_13">
      <!-- 2 -->
      <g transform="translate(27.240625 302.183826) scale(0.1 -0.1)">
       <defs>
        <path id="DejaVuSans-32" d="M 1228 531 
L 3431 531 
L 3431 0 
L 469 0 
L 469 531 
Q 828 903 1448 1529 
Q 2069 2156 2228 2338 
Q 2531 2678 2651 2914 
Q 2772 3150 2772 3378 
Q 2772 3750 2511 3984 
Q 2250 4219 1831 4219 
Q 1534 4219 1204 4116 
Q 875 4013 500 3803 
L 500 4441 
Q 881 4594 1212 4672 
Q 1544 4750 1819 4750 
Q 2544 4750 2975 4387 
Q 3406 4025 3406 3419 
Q 3406 3131 3298 2873 
Q 3191 2616 2906 2266 
Q 2828 2175 2409 1742 
Q 1991 1309 1228 531 
z
" transform="scale(0.015625)"/>
       </defs>
       <use xlink:href="#DejaVuSans-32"/>
      </g>
     </g>
    </g>
    <g id="ytick_3">
     <g id="line2d_15">
      <path d="M 40.603125 260.677046 
L 849.143125 260.677046 
" clip-path="url(#p1f279c40b8)" style="fill: none; stroke-dasharray: 1.85,0.8; stroke-dashoffset: 0; stroke: #b0b0b0; stroke-opacity: 0.4; stroke-width: 0.5"/>
     </g>
     <g id="line2d_16">
      <g>
       <use xlink:href="#m6735746d44" x="40.603125" y="260.677046" style="stroke: #000000; stroke-width: 0.8"/>
      </g>
     </g>
     <g id="text_14">
      <!-- 4 -->
      <g transform="translate(27.240625 264.476265) scale(0.1 -0.1)">
       <defs>
        <path id="DejaVuSans-34" d="M 2419 4116 
L 825 1625 
L 2419 1625 
L 2419 4116 
z
M 2253 4666 
L 3047 4666 
L 3047 1625 
L 3713 1625 
L 3713 1100 
L 3047 1100 
L 3047 0 
L 2419 0 
L 2419 1100 
L 313 1100 
L 313 1709 
L 2253 4666 
z
" transform="scale(0.015625)"/>
       </defs>
       <use xlink:href="#DejaVuSans-34"/>
      </g>
     </g>
    </g>
    <g id="ytick_4">
     <g id="line2d_17">
      <path d="M 40.603125 222.969485 
L 849.143125 222.969485 
" clip-path="url(#p1f279c40b8)" style="fill: none; stroke-dasharray: 1.85,0.8; stroke-dashoffset: 0; stroke: #b0b0b0; stroke-opacity: 0.4; stroke-width: 0.5"/>
     </g>
     <g id="line2d_18">
      <g>
       <use xlink:href="#m6735746d44" x="40.603125" y="222.969485" style="stroke: #000000; stroke-width: 0.8"/>
      </g>
     </g>
     <g id="text_15">
      <!-- 6 -->
      <g transform="translate(27.240625 226.768703) scale(0.1 -0.1)">
       <defs>
        <path id="DejaVuSans-36" d="M 2113 2584 
Q 1688 2584 1439 2293 
Q 1191 2003 1191 1497 
Q 1191 994 1439 701 
Q 1688 409 2113 409 
Q 2538 409 2786 701 
Q 3034 994 3034 1497 
Q 3034 2003 2786 2293 
Q 2538 2584 2113 2584 
z
M 3366 4563 
L 3366 3988 
Q 3128 4100 2886 4159 
Q 2644 4219 2406 4219 
Q 1781 4219 1451 3797 
Q 1122 3375 1075 2522 
Q 1259 2794 1537 2939 
Q 1816 3084 2150 3084 
Q 2853 3084 3261 2657 
Q 3669 2231 3669 1497 
Q 3669 778 3244 343 
Q 2819 -91 2113 -91 
Q 1303 -91 875 529 
Q 447 1150 447 2328 
Q 447 3434 972 4092 
Q 1497 4750 2381 4750 
Q 2619 4750 2861 4703 
Q 3103 4656 3366 4563 
z
" transform="scale(0.015625)"/>
       </defs>
       <use xlink:href="#DejaVuSans-36"/>
      </g>
     </g>
    </g>
    <g id="ytick_5">
     <g id="line2d_19">
      <path d="M 40.603125 185.261924 
L 849.143125 185.261924 
" clip-path="url(#p1f279c40b8)" style="fill: none; stroke-dasharray: 1.85,0.8; stroke-dashoffset: 0; stroke: #b0b0b0; stroke-opacity: 0.4; stroke-width: 0.5"/>
     </g>
     <g id="line2d_20">
      <g>
       <use xlink:href="#m6735746d44" x="40.603125" y="185.261924" style="stroke: #000000; stroke-width: 0.8"/>
      </g>
     </g>
     <g id="text_16">
      <!-- 8 -->
      <g transform="translate(27.240625 189.061142) scale(0.1 -0.1)">
       <defs>
        <path id="DejaVuSans-38" d="M 2034 2216 
Q 1584 2216 1326 1975 
Q 1069 1734 1069 1313 
Q 1069 891 1326 650 
Q 1584 409 2034 409 
Q 2484 409 2743 651 
Q 3003 894 3003 1313 
Q 3003 1734 2745 1975 
Q 2488 2216 2034 2216 
z
M 1403 2484 
Q 997 2584 770 2862 
Q 544 3141 544 3541 
Q 544 4100 942 4425 
Q 1341 4750 2034 4750 
Q 2731 4750 3128 4425 
Q 3525 4100 3525 3541 
Q 3525 3141 3298 2862 
Q 3072 2584 2669 2484 
Q 3125 2378 3379 2068 
Q 3634 1759 3634 1313 
Q 3634 634 3220 271 
Q 2806 -91 2034 -91 
Q 1263 -91 848 271 
Q 434 634 434 1313 
Q 434 1759 690 2068 
Q 947 2378 1403 2484 
z
M 1172 3481 
Q 1172 3119 1398 2916 
Q 1625 2713 2034 2713 
Q 2441 2713 2670 2916 
Q 2900 3119 2900 3481 
Q 2900 3844 2670 4047 
Q 2441 4250 2034 4250 
Q 1625 4250 1398 4047 
Q 1172 3844 1172 3481 
z
" transform="scale(0.015625)"/>
       </defs>
       <use xlink:href="#DejaVuSans-38"/>
      </g>
     </g>
    </g>
    <g id="ytick_6">
     <g id="line2d_21">
      <path d="M 40.603125 147.554362 
L 849.143125 147.554362 
" clip-path="url(#p1f279c40b8)" style="fill: none; stroke-dasharray: 1.85,0.8; stroke-dashoffset: 0; stroke: #b0b0b0; stroke-opacity: 0.4; stroke-width: 0.5"/>
     </g>
     <g id="line2d_22">
      <g>
       <use xlink:href="#m6735746d44" x="40.603125" y="147.554362" style="stroke: #000000; stroke-width: 0.8"/>
      </g>
     </g>
     <g id="text_17">
      <!-- 10 -->
      <g transform="translate(20.878125 151.353581) scale(0.1 -0.1)">
       <defs>
        <path id="DejaVuSans-31" d="M 794 531 
L 1825 531 
L 1825 4091 
L 703 3866 
L 703 4441 
L 1819 4666 
L 2450 4666 
L 2450 531 
L 3481 531 
L 3481 0 
L 794 0 
L 794 531 
z
" transform="scale(0.015625)"/>
       </defs>
       <use xlink:href="#DejaVuSans-31"/>
       <use xlink:href="#DejaVuSans-30" transform="translate(63.623047 0)"/>
      </g>
     </g>
    </g>
    <g id="ytick_7">
     <g id="line2d_23">
      <path d="M 40.603125 109.846801 
L 849.143125 109.846801 
" clip-path="url(#p1f279c40b8)" style="fill: none; stroke-dasharray: 1.85,0.8; stroke-dashoffset: 0; stroke: #b0b0b0; stroke-opacity: 0.4; stroke-width: 0.5"/>
     </g>
     <g id="line2d_24">
      <g>
       <use xlink:href="#m6735746d44" x="40.603125" y="109.846801" style="stroke: #000000; stroke-width: 0.8"/>
      </g>
     </g>
     <g id="text_18">
      <!-- 12 -->
      <g transform="translate(20.878125 113.64602) scale(0.1 -0.1)">
       <use xlink:href="#DejaVuSans-31"/>
       <use xlink:href="#DejaVuSans-32" transform="translate(63.623047 0)"/>
      </g>
     </g>
    </g>
    <g id="ytick_8">
     <g id="line2d_25">
      <path d="M 40.603125 72.13924 
L 849.143125 72.13924 
" clip-path="url(#p1f279c40b8)" style="fill: none; stroke-dasharray: 1.85,0.8; stroke-dashoffset: 0; stroke: #b0b0b0; stroke-opacity: 0.4; stroke-width: 0.5"/>
     </g>
     <g id="line2d_26">
      <g>
       <use xlink:href="#m6735746d44" x="40.603125" y="72.13924" style="stroke: #000000; stroke-width: 0.8"/>
      </g>
     </g>
     <g id="text_19">
      <!-- 14 -->
      <g transform="translate(20.878125 75.938459) scale(0.1 -0.1)">
       <use xlink:href="#DejaVuSans-31"/>
       <use xlink:href="#DejaVuSans-34" transform="translate(63.623047 0)"/>
      </g>
     </g>
    </g>
    <g id="ytick_9">
     <g id="line2d_27">
      <path d="M 40.603125 34.431679 
L 849.143125 34.431679 
" clip-path="url(#p1f279c40b8)" style="fill: none; stroke-dasharray: 1.85,0.8; stroke-dashoffset: 0; stroke: #b0b0b0; stroke-opacity: 0.4; stroke-width: 0.5"/>
     </g>
     <g id="line2d_28">
      <g>
       <use xlink:href="#m6735746d44" x="40.603125" y="34.431679" style="stroke: #000000; stroke-width: 0.8"/>
      </g>
     </g>
     <g id="text_20">
      <!-- 16 -->
      <g transform="translate(20.878125 38.230898) scale(0.1 -0.1)">
       <use xlink:href="#DejaVuSans-31"/>
       <use xlink:href="#DejaVuSans-36" transform="translate(63.623047 0)"/>
      </g>
     </g>
    </g>
    <g id="text_21">
     <!-- Percentage -->
     <g transform="translate(14.798438 207.327803) rotate(-90) scale(0.1 -0.1)">
      <use xlink:href="#DejaVuSans-50"/>
      <use xlink:href="#DejaVuSans-65" transform="translate(56.677734 0)"/>
      <use xlink:href="#DejaVuSans-72" transform="translate(118.201172 0)"/>
      <use xlink:href="#DejaVuSans-63" transform="translate(157.064453 0)"/>
      <use xlink:href="#DejaVuSans-65" transform="translate(212.044922 0)"/>
      <use xlink:href="#DejaVuSans-6e" transform="translate(273.568359 0)"/>
      <use xlink:href="#DejaVuSans-74" transform="translate(336.947266 0)"/>
      <use xlink:href="#DejaVuSans-61" transform="translate(376.15625 0)"/>
      <use xlink:href="#DejaVuSans-67" transform="translate(437.435547 0)"/>
      <use xlink:href="#DejaVuSans-65" transform="translate(500.912109 0)"/>
     </g>
    </g>
   </g>
   <g id="patch_13">
    <path d="M 40.603125 336.092168 
L 40.603125 22.318125 
" style="fill: none; stroke: #000000; stroke-width: 0.8; stroke-linejoin: miter; stroke-linecap: square"/>
   </g>
   <g id="patch_14">
    <path d="M 40.603125 336.092168 
L 849.143125 336.092168 
" style="fill: none; stroke: #000000; stroke-width: 0.8; stroke-linejoin: miter; stroke-linecap: square"/>
   </g>
   <g id="text_22">
    <!-- Top 10 counties for Chronic obstructive pulmonary disease among adults -->
    <g transform="translate(225.42125 16.318125) scale(0.12 -0.12)">
     <defs>
      <path id="DejaVuSans-70" d="M 1159 525 
L 1159 -1331 
L 581 -1331 
L 581 3500 
L 1159 3500 
L 1159 2969 
Q 1341 3281 1617 3432 
Q 1894 3584 2278 3584 
Q 2916 3584 3314 3078 
Q 3713 2572 3713 1747 
Q 3713 922 3314 415 
Q 2916 -91 2278 -91 
Q 1894 -91 1617 61 
Q 1341 213 1159 525 
z
M 3116 1747 
Q 3116 2381 2855 2742 
Q 2594 3103 2138 3103 
Q 1681 3103 1420 2742 
Q 1159 2381 1159 1747 
Q 1159 1113 1420 752 
Q 1681 391 2138 391 
Q 2594 391 2855 752 
Q 3116 1113 3116 1747 
z
" transform="scale(0.015625)"/>
      <path id="DejaVuSans-66" d="M 2375 4863 
L 2375 4384 
L 1825 4384 
Q 1516 4384 1395 4259 
Q 1275 4134 1275 3809 
L 1275 3500 
L 2222 3500 
L 2222 3053 
L 1275 3053 
L 1275 0 
L 697 0 
L 697 3053 
L 147 3053 
L 147 3500 
L 697 3500 
L 697 3744 
Q 697 4328 969 4595 
Q 1241 4863 1831 4863 
L 2375 4863 
z
" transform="scale(0.015625)"/>
      <path id="DejaVuSans-62" d="M 3116 1747 
Q 3116 2381 2855 2742 
Q 2594 3103 2138 3103 
Q 1681 3103 1420 2742 
Q 1159 2381 1159 1747 
Q 1159 1113 1420 752 
Q 1681 391 2138 391 
Q 2594 391 2855 752 
Q 3116 1113 3116 1747 
z
M 1159 2969 
Q 1341 3281 1617 3432 
Q 1894 3584 2278 3584 
Q 2916 3584 3314 3078 
Q 3713 2572 3713 1747 
Q 3713 922 3314 415 
Q 2916 -91 2278 -91 
Q 1894 -91 1617 61 
Q 1341 213 1159 525 
L 1159 0 
L 581 0 
L 581 4863 
L 1159 4863 
L 1159 2969 
z
" transform="scale(0.015625)"/>
      <path id="DejaVuSans-76" d="M 191 3500 
L 800 3500 
L 1894 563 
L 2988 3500 
L 3597 3500 
L 2284 0 
L 1503 0 
L 191 3500 
z
" transform="scale(0.015625)"/>
      <path id="DejaVuSans-6d" d="M 3328 2828 
Q 3544 3216 3844 3400 
Q 4144 3584 4550 3584 
Q 5097 3584 5394 3201 
Q 5691 2819 5691 2113 
L 5691 0 
L 5113 0 
L 5113 2094 
Q 5113 2597 4934 2840 
Q 4756 3084 4391 3084 
Q 3944 3084 3684 2787 
Q 3425 2491 3425 1978 
L 3425 0 
L 2847 0 
L 2847 2094 
Q 2847 2600 2669 2842 
Q 2491 3084 2119 3084 
Q 1678 3084 1418 2786 
Q 1159 2488 1159 1978 
L 1159 0 
L 581 0 
L 581 3500 
L 1159 3500 
L 1159 2956 
Q 1356 3278 1631 3431 
Q 1906 3584 2284 3584 
Q 2666 3584 2933 3390 
Q 3200 3197 3328 2828 
z
" transform="scale(0.015625)"/>
     </defs>
     <use xlink:href="#DejaVuSans-54"/>
     <use xlink:href="#DejaVuSans-6f" transform="translate(44.083984 0)"/>
     <use xlink:href="#DejaVuSans-70" transform="translate(105.265625 0)"/>
     <use xlink:href="#DejaVuSans-20" transform="translate(168.742188 0)"/>
     <use xlink:href="#DejaVuSans-31" transform="translate(200.529297 0)"/>
     <use xlink:href="#DejaVuSans-30" transform="translate(264.152344 0)"/>
     <use xlink:href="#DejaVuSans-20" transform="translate(327.775391 0)"/>
     <use xlink:href="#DejaVuSans-63" transform="translate(359.5625 0)"/>
     <use xlink:href="#DejaVuSans-6f" transform="translate(414.542969 0)"/>
     <use xlink:href="#DejaVuSans-75" transform="translate(475.724609 0)"/>
     <use xlink:href="#DejaVuSans-6e" transform="translate(539.103516 0)"/>
     <use xlink:href="#DejaVuSans-74" transform="translate(602.482422 0)"/>
     <use xlink:href="#DejaVuSans-69" transform="translate(641.691406 0)"/>
     <use xlink:href="#DejaVuSans-65" transform="translate(669.474609 0)"/>
     <use xlink:href="#DejaVuSans-73" transform="translate(730.998047 0)"/>
     <use xlink:href="#DejaVuSans-20" transform="translate(783.097656 0)"/>
     <use xlink:href="#DejaVuSans-66" transform="translate(814.884766 0)"/>
     <use xlink:href="#DejaVuSans-6f" transform="translate(850.089844 0)"/>
     <use xlink:href="#DejaVuSans-72" transform="translate(911.271484 0)"/>
     <use xlink:href="#DejaVuSans-20" transform="translate(952.384766 0)"/>
     <use xlink:href="#DejaVuSans-43" transform="translate(984.171875 0)"/>
     <use xlink:href="#DejaVuSans-68" transform="translate(1053.996094 0)"/>
     <use xlink:href="#DejaVuSans-72" transform="translate(1117.375 0)"/>
     <use xlink:href="#DejaVuSans-6f" transform="translate(1156.238281 0)"/>
     <use xlink:href="#DejaVuSans-6e" transform="translate(1217.419922 0)"/>
     <use xlink:href="#DejaVuSans-69" transform="translate(1280.798828 0)"/>
     <use xlink:href="#DejaVuSans-63" transform="translate(1308.582031 0)"/>
     <use xlink:href="#DejaVuSans-20" transform="translate(1363.5625 0)"/>
     <use xlink:href="#DejaVuSans-6f" transform="translate(1395.349609 0)"/>
     <use xlink:href="#DejaVuSans-62" transform="translate(1456.53125 0)"/>
     <use xlink:href="#DejaVuSans-73" transform="translate(1520.007812 0)"/>
     <use xlink:href="#DejaVuSans-74" transform="translate(1572.107422 0)"/>
     <use xlink:href="#DejaVuSans-72" transform="translate(1611.316406 0)"/>
     <use xlink:href="#DejaVuSans-75" transform="translate(1652.429688 0)"/>
     <use xlink:href="#DejaVuSans-63" transform="translate(1715.808594 0)"/>
     <use xlink:href="#DejaVuSans-74" transform="translate(1770.789062 0)"/>
     <use xlink:href="#DejaVuSans-69" transform="translate(1809.998047 0)"/>
     <use xlink:href="#DejaVuSans-76" transform="translate(1837.78125 0)"/>
     <use xlink:href="#DejaVuSans-65" transform="translate(1896.960938 0)"/>
     <use xlink:href="#DejaVuSans-20" transform="translate(1958.484375 0)"/>
     <use xlink:href="#DejaVuSans-70" transform="translate(1990.271484 0)"/>
     <use xlink:href="#DejaVuSans-75" transform="translate(2053.748047 0)"/>
     <use xlink:href="#DejaVuSans-6c" transform="translate(2117.126953 0)"/>
     <use xlink:href="#DejaVuSans-6d" transform="translate(2144.910156 0)"/>
     <use xlink:href="#DejaVuSans-6f" transform="translate(2242.322266 0)"/>
     <use xlink:href="#DejaVuSans-6e" transform="translate(2303.503906 0)"/>
     <use xlink:href="#DejaVuSans-61" transform="translate(2366.882812 0)"/>
     <use xlink:href="#DejaVuSans-72" transform="translate(2428.162109 0)"/>
     <use xlink:href="#DejaVuSans-79" transform="translate(2469.275391 0)"/>
     <use xlink:href="#DejaVuSans-20" transform="translate(2528.455078 0)"/>
     <use xlink:href="#DejaVuSans-64" transform="translate(2560.242188 0)"/>
     <use xlink:href="#DejaVuSans-69" transform="translate(2623.71875 0)"/>
     <use xlink:href="#DejaVuSans-73" transform="translate(2651.501953 0)"/>
     <use xlink:href="#DejaVuSans-65" transform="translate(2703.601562 0)"/>
     <use xlink:href="#DejaVuSans-61" transform="translate(2765.125 0)"/>
     <use xlink:href="#DejaVuSans-73" transform="translate(2826.404297 0)"/>
     <use xlink:href="#DejaVuSans-65" transform="translate(2878.503906 0)"/>
     <use xlink:href="#DejaVuSans-20" transform="translate(2940.027344 0)"/>
     <use xlink:href="#DejaVuSans-61" transform="translate(2971.814453 0)"/>
     <use xlink:href="#DejaVuSans-6d" transform="translate(3033.09375 0)"/>
     <use xlink:href="#DejaVuSans-6f" transform="translate(3130.505859 0)"/>
     <use xlink:href="#DejaVuSans-6e" transform="translate(3191.6875 0)"/>
     <use xlink:href="#DejaVuSans-67" transform="translate(3255.066406 0)"/>
     <use xlink:href="#DejaVuSans-20" transform="translate(3318.542969 0)"/>
     <use xlink:href="#DejaVuSans-61" transform="translate(3350.330078 0)"/>
     <use xlink:href="#DejaVuSans-64" transform="translate(3411.609375 0)"/>
     <use xlink:href="#DejaVuSans-75" transform="translate(3475.085938 0)"/>
     <use xlink:href="#DejaVuSans-6c" transform="translate(3538.464844 0)"/>
     <use xlink:href="#DejaVuSans-74" transform="translate(3566.248047 0)"/>
     <use xlink:href="#DejaVuSans-73" transform="translate(3605.457031 0)"/>
    </g>
   </g>
  </g>
 </g>
 <defs>
  <clipPath id="p1f279c40b8">
   <rect x="40.603125" y="22.318125" width="808.54" height="313.774043"/>
  </clipPath>
 </defs>
</svg>
