<?xml version="1.0" encoding="utf-8" standalone="no"?>
<!DOCTYPE svg PUBLIC "-//W3C//DTD SVG 1.1//EN"
  "http://www.w3.org/Graphics/SVG/1.1/DTD/svg11.dtd">
<svg xmlns:xlink="http://www.w3.org/1999/xlink" width="770.033125pt" height="423.230014pt" viewBox="0 0 770.033125 423.230014" xmlns="http://www.w3.org/2000/svg" version="1.1">
 <metadata>
  <rdf:RDF xmlns:dc="http://purl.org/dc/elements/1.1/" xmlns:cc="http://creativecommons.org/ns#" xmlns:rdf="http://www.w3.org/1999/02/22-rdf-syntax-ns#">
   <cc:Work>
    <dc:type rdf:resource="http://purl.org/dc/dcmitype/StillImage"/>
    <dc:date>2026-04-03T00:52:37.069859</dc:date>
    <dc:format>image/svg+xml</dc:format>
    <dc:creator>
     <cc:Agent>
      <dc:title>Matplotlib v3.10.8, https://matplotlib.org/</dc:title>
     </cc:Agent>
    </dc:creator>
   </cc:Work>
  </rdf:RDF>
 </metadata>
 <defs>
  <style type="text/css">*{stroke-linejoin: round; stroke-linecap: butt}</style>
 </defs>
 <g id="figure_1">
  <g id="patch_1">
   <path d="M -0 423.230014 
L 770.033125 423.230014 
L 770.033125 0 
L -0 0 
z
" style="fill: #ffffff"/>
  </g>
  <g id="axes_1">
   <g id="patch_2">
    <path d="M 40.603125 342.235172 
L 762.833125 342.235172 
L 762.833125 22.318125 
L 40.603125 22.318125 
z
" style="fill: #ffffff"/>
   </g>
   <g id="patch_3">
    <path d="M 73.431761 342.235172 
L 133.120191 342.235172 
L 133.120191 37.55227 
L 73.431761 37.55227 
z
" clip-path="url(#pb6001a7f4b)" style="fill: #4472c4; stroke: #2f528f; stroke-width: 0.7; stroke-linejoin: miter"/>
   </g>
   <g id="patch_4">
    <path d="M 148.042299 342.235172 
L 207.730728 342.235172 
L 207.730728 38.764536 
L 148.042299 38.764536 
z
" clip-path="url(#pb6001a7f4b)" style="fill: #4472c4; stroke: #2f528f; stroke-width: 0.7; stroke-linejoin: miter"/>
   </g>
   <g id="patch_5">
    <path d="M 222.652836 342.235172 
L 282.341265 342.235172 
L 282.341265 39.976802 
L 222.652836 39.976802 
z
" clip-path="url(#pb6001a7f4b)" style="fill: #4472c4; stroke: #2f528f; stroke-width: 0.7; stroke-linejoin: miter"/>
   </g>
   <g id="patch_6">
    <path d="M 297.263373 342.235172 
L 356.951803 342.235172 
L 356.951803 48.866754 
L 297.263373 48.866754 
z
" clip-path="url(#pb6001a7f4b)" style="fill: #4472c4; stroke: #2f528f; stroke-width: 0.7; stroke-linejoin: miter"/>
   </g>
   <g id="patch_7">
    <path d="M 371.87391 342.235172 
L 431.56234 342.235172 
L 431.56234 52.099464 
L 371.87391 52.099464 
z
" clip-path="url(#pb6001a7f4b)" style="fill: #4472c4; stroke: #2f528f; stroke-width: 0.7; stroke-linejoin: miter"/>
   </g>
   <g id="patch_8">
    <path d="M 446.484447 342.235172 
L 506.172877 342.235172 
L 506.172877 52.503553 
L 446.484447 52.503553 
z
" clip-path="url(#pb6001a7f4b)" style="fill: #4472c4; stroke: #2f528f; stroke-width: 0.7; stroke-linejoin: miter"/>
   </g>
   <g id="patch_9">
    <path d="M 521.094985 342.235172 
L 580.783414 342.235172 
L 580.783414 52.503553 
L 521.094985 52.503553 
z
" clip-path="url(#pb6001a7f4b)" style="fill: #4472c4; stroke: #2f528f; stroke-width: 0.7; stroke-linejoin: miter"/>
   </g>
   <g id="patch_10">
    <path d="M 595.705522 342.235172 
L 655.393951 342.235172 
L 655.393951 54.523997 
L 595.705522 54.523997 
z
" clip-path="url(#pb6001a7f4b)" style="fill: #4472c4; stroke: #2f528f; stroke-width: 0.7; stroke-linejoin: miter"/>
   </g>
   <g id="patch_11">
    <path d="M 670.316059 342.235172 
L 730.004489 342.235172 
L 730.004489 54.928085 
L 670.316059 54.928085 
z
" clip-path="url(#pb6001a7f4b)" style="fill: #4472c4; stroke: #2f528f; stroke-width: 0.7; stroke-linejoin: miter"/>
   </g>
   <g id="matplotlib.axis_1">
    <g id="xtick_1">
     <g id="line2d_1">
      <defs>
       <path id="m9a4cf95910" d="M 0 0 
L 0 3.5 
" style="stroke: #000000; stroke-width: 0.8"/>
      </defs>
      <g>
       <use xlink:href="#m9a4cf95910" x="103.275976" y="342.235172" style="stroke: #000000; stroke-width: 0.8"/>
      </g>
     </g>
     <g id="text_1">
      <!-- East Carroll, LA -->
      <g transform="translate(39.535738 399.255593) rotate(-35) scale(0.1 -0.1)">
       <defs>
        <path id="DejaVuSans-45" d="M 628 4666 
L 3578 4666 
L 3578 4134 
L 1259 4134 
L 1259 2753 
L 3481 2753 
L 3481 2222 
L 1259 2222 
L 1259 531 
L 3634 531 
L 3634 0 
L 628 0 
L 628 4666 
z
" transform="scale(0.015625)"/>
        <path id="DejaVuSans-61" d="M 2194 1759 
Q 1497 1759 1228 1600 
Q 959 1441 959 1056 
Q 959 750 1161 570 
Q 1363 391 1709 391 
Q 2188 391 2477 730 
Q 2766 1069 2766 1631 
L 2766 1759 
L 2194 1759 
z
M 3341 1997 
L 3341 0 
L 2766 0 
L 2766 531 
Q 2569 213 2275 61 
Q 1981 -91 1556 -91 
Q 1019 -91 701 211 
Q 384 513 384 1019 
Q 384 1609 779 1909 
Q 1175 2209 1959 2209 
L 2766 2209 
L 2766 2266 
Q 2766 2663 2505 2880 
Q 2244 3097 1772 3097 
Q 1472 3097 1187 3025 
Q 903 2953 641 2809 
L 641 3341 
Q 956 3463 1253 3523 
Q 1550 3584 1831 3584 
Q 2591 3584 2966 3190 
Q 3341 2797 3341 1997 
z
" transform="scale(0.015625)"/>
        <path id="DejaVuSans-73" d="M 2834 3397 
L 2834 2853 
Q 2591 2978 2328 3040 
Q 2066 3103 1784 3103 
Q 1356 3103 1142 2972 
Q 928 2841 928 2578 
Q 928 2378 1081 2264 
Q 1234 2150 1697 2047 
L 1894 2003 
Q 2506 1872 2764 1633 
Q 3022 1394 3022 966 
Q 3022 478 2636 193 
Q 2250 -91 1575 -91 
Q 1294 -91 989 -36 
Q 684 19 347 128 
L 347 722 
Q 666 556 975 473 
Q 1284 391 1588 391 
Q 1994 391 2212 530 
Q 2431 669 2431 922 
Q 2431 1156 2273 1281 
Q 2116 1406 1581 1522 
L 1381 1569 
Q 847 1681 609 1914 
Q 372 2147 372 2553 
Q 372 3047 722 3315 
Q 1072 3584 1716 3584 
Q 2034 3584 2315 3537 
Q 2597 3491 2834 3397 
z
" transform="scale(0.015625)"/>
        <path id="DejaVuSans-74" d="M 1172 4494 
L 1172 3500 
L 2356 3500 
L 2356 3053 
L 1172 3053 
L 1172 1153 
Q 1172 725 1289 603 
Q 1406 481 1766 481 
L 2356 481 
L 2356 0 
L 1766 0 
Q 1100 0 847 248 
Q 594 497 594 1153 
L 594 3053 
L 172 3053 
L 172 3500 
L 594 3500 
L 594 4494 
L 1172 4494 
z
" transform="scale(0.015625)"/>
        <path id="DejaVuSans-20" transform="scale(0.015625)"/>
        <path id="DejaVuSans-43" d="M 4122 4306 
L 4122 3641 
Q 3803 3938 3442 4084 
Q 3081 4231 2675 4231 
Q 1875 4231 1450 3742 
Q 1025 3253 1025 2328 
Q 1025 1406 1450 917 
Q 1875 428 2675 428 
Q 3081 428 3442 575 
Q 3803 722 4122 1019 
L 4122 359 
Q 3791 134 3420 21 
Q 3050 -91 2638 -91 
Q 1578 -91 968 557 
Q 359 1206 359 2328 
Q 359 3453 968 4101 
Q 1578 4750 2638 4750 
Q 3056 4750 3426 4639 
Q 3797 4528 4122 4306 
z
" transform="scale(0.015625)"/>
        <path id="DejaVuSans-72" d="M 2631 2963 
Q 2534 3019 2420 3045 
Q 2306 3072 2169 3072 
Q 1681 3072 1420 2755 
Q 1159 2438 1159 1844 
L 1159 0 
L 581 0 
L 581 3500 
L 1159 3500 
L 1159 2956 
Q 1341 3275 1631 3429 
Q 1922 3584 2338 3584 
Q 2397 3584 2469 3576 
Q 2541 3569 2628 3553 
L 2631 2963 
z
" transform="scale(0.015625)"/>
        <path id="DejaVuSans-6f" d="M 1959 3097 
Q 1497 3097 1228 2736 
Q 959 2375 959 1747 
Q 959 1119 1226 758 
Q 1494 397 1959 397 
Q 2419 397 2687 759 
Q 2956 1122 2956 1747 
Q 2956 2369 2687 2733 
Q 2419 3097 1959 3097 
z
M 1959 3584 
Q 2709 3584 3137 3096 
Q 3566 2609 3566 1747 
Q 3566 888 3137 398 
Q 2709 -91 1959 -91 
Q 1206 -91 779 398 
Q 353 888 353 1747 
Q 353 2609 779 3096 
Q 1206 3584 1959 3584 
z
" transform="scale(0.015625)"/>
        <path id="DejaVuSans-6c" d="M 603 4863 
L 1178 4863 
L 1178 0 
L 603 0 
L 603 4863 
z
" transform="scale(0.015625)"/>
        <path id="DejaVuSans-2c" d="M 750 794 
L 1409 794 
L 1409 256 
L 897 -744 
L 494 -744 
L 750 256 
L 750 794 
z
" transform="scale(0.015625)"/>
        <path id="DejaVuSans-4c" d="M 628 4666 
L 1259 4666 
L 1259 531 
L 3531 531 
L 3531 0 
L 628 0 
L 628 4666 
z
" transform="scale(0.015625)"/>
        <path id="DejaVuSans-41" d="M 2188 4044 
L 1331 1722 
L 3047 1722 
L 2188 4044 
z
M 1831 4666 
L 2547 4666 
L 4325 0 
L 3669 0 
L 3244 1197 
L 1141 1197 
L 716 0 
L 50 0 
L 1831 4666 
z
" transform="scale(0.015625)"/>
       </defs>
       <use xlink:href="#DejaVuSans-45"/>
       <use xlink:href="#DejaVuSans-61" transform="translate(63.183594 0)"/>
       <use xlink:href="#DejaVuSans-73" transform="translate(124.462891 0)"/>
       <use xlink:href="#DejaVuSans-74" transform="translate(176.5625 0)"/>
       <use xlink:href="#DejaVuSans-20" transform="translate(215.771484 0)"/>
       <use xlink:href="#DejaVuSans-43" transform="translate(247.558594 0)"/>
       <use xlink:href="#DejaVuSans-61" transform="translate(317.382812 0)"/>
       <use xlink:href="#DejaVuSans-72" transform="translate(378.662109 0)"/>
       <use xlink:href="#DejaVuSans-72" transform="translate(418.025391 0)"/>
       <use xlink:href="#DejaVuSans-6f" transform="translate(456.888672 0)"/>
       <use xlink:href="#DejaVuSans-6c" transform="translate(518.070312 0)"/>
       <use xlink:href="#DejaVuSans-6c" transform="translate(545.853516 0)"/>
       <use xlink:href="#DejaVuSans-2c" transform="translate(573.636719 0)"/>
       <use xlink:href="#DejaVuSans-20" transform="translate(605.423828 0)"/>
       <use xlink:href="#DejaVuSans-4c" transform="translate(637.210938 0)"/>
       <use xlink:href="#DejaVuSans-41" transform="translate(695.173828 0)"/>
      </g>
     </g>
    </g>
    <g id="xtick_2">
     <g id="line2d_2">
      <g>
       <use xlink:href="#m9a4cf95910" x="177.886513" y="342.235172" style="stroke: #000000; stroke-width: 0.8"/>
      </g>
     </g>
     <g id="text_2">
      <!-- Issaquena, MS -->
      <g transform="translate(117.604633 396.834025) rotate(-35) scale(0.1 -0.1)">
       <defs>
        <path id="DejaVuSans-49" d="M 628 4666 
L 1259 4666 
L 1259 0 
L 628 0 
L 628 4666 
z
" transform="scale(0.015625)"/>
        <path id="DejaVuSans-71" d="M 947 1747 
Q 947 1113 1208 752 
Q 1469 391 1925 391 
Q 2381 391 2643 752 
Q 2906 1113 2906 1747 
Q 2906 2381 2643 2742 
Q 2381 3103 1925 3103 
Q 1469 3103 1208 2742 
Q 947 2381 947 1747 
z
M 2906 525 
Q 2725 213 2448 61 
Q 2172 -91 1784 -91 
Q 1150 -91 751 415 
Q 353 922 353 1747 
Q 353 2572 751 3078 
Q 1150 3584 1784 3584 
Q 2172 3584 2448 3432 
Q 2725 3281 2906 2969 
L 2906 3500 
L 3481 3500 
L 3481 -1331 
L 2906 -1331 
L 2906 525 
z
" transform="scale(0.015625)"/>
        <path id="DejaVuSans-75" d="M 544 1381 
L 544 3500 
L 1119 3500 
L 1119 1403 
Q 1119 906 1312 657 
Q 1506 409 1894 409 
Q 2359 409 2629 706 
Q 2900 1003 2900 1516 
L 2900 3500 
L 3475 3500 
L 3475 0 
L 2900 0 
L 2900 538 
Q 2691 219 2414 64 
Q 2138 -91 1772 -91 
Q 1169 -91 856 284 
Q 544 659 544 1381 
z
M 1991 3584 
L 1991 3584 
z
" transform="scale(0.015625)"/>
        <path id="DejaVuSans-65" d="M 3597 1894 
L 3597 1613 
L 953 1613 
Q 991 1019 1311 708 
Q 1631 397 2203 397 
Q 2534 397 2845 478 
Q 3156 559 3463 722 
L 3463 178 
Q 3153 47 2828 -22 
Q 2503 -91 2169 -91 
Q 1331 -91 842 396 
Q 353 884 353 1716 
Q 353 2575 817 3079 
Q 1281 3584 2069 3584 
Q 2775 3584 3186 3129 
Q 3597 2675 3597 1894 
z
M 3022 2063 
Q 3016 2534 2758 2815 
Q 2500 3097 2075 3097 
Q 1594 3097 1305 2825 
Q 1016 2553 972 2059 
L 3022 2063 
z
" transform="scale(0.015625)"/>
        <path id="DejaVuSans-6e" d="M 3513 2113 
L 3513 0 
L 2938 0 
L 2938 2094 
Q 2938 2591 2744 2837 
Q 2550 3084 2163 3084 
Q 1697 3084 1428 2787 
Q 1159 2491 1159 1978 
L 1159 0 
L 581 0 
L 581 3500 
L 1159 3500 
L 1159 2956 
Q 1366 3272 1645 3428 
Q 1925 3584 2291 3584 
Q 2894 3584 3203 3211 
Q 3513 2838 3513 2113 
z
" transform="scale(0.015625)"/>
        <path id="DejaVuSans-4d" d="M 628 4666 
L 1569 4666 
L 2759 1491 
L 3956 4666 
L 4897 4666 
L 4897 0 
L 4281 0 
L 4281 4097 
L 3078 897 
L 2444 897 
L 1241 4097 
L 1241 0 
L 628 0 
L 628 4666 
z
" transform="scale(0.015625)"/>
        <path id="DejaVuSans-53" d="M 3425 4513 
L 3425 3897 
Q 3066 4069 2747 4153 
Q 2428 4238 2131 4238 
Q 1616 4238 1336 4038 
Q 1056 3838 1056 3469 
Q 1056 3159 1242 3001 
Q 1428 2844 1947 2747 
L 2328 2669 
Q 3034 2534 3370 2195 
Q 3706 1856 3706 1288 
Q 3706 609 3251 259 
Q 2797 -91 1919 -91 
Q 1588 -91 1214 -16 
Q 841 59 441 206 
L 441 856 
Q 825 641 1194 531 
Q 1563 422 1919 422 
Q 2459 422 2753 634 
Q 3047 847 3047 1241 
Q 3047 1584 2836 1778 
Q 2625 1972 2144 2069 
L 1759 2144 
Q 1053 2284 737 2584 
Q 422 2884 422 3419 
Q 422 4038 858 4394 
Q 1294 4750 2059 4750 
Q 2388 4750 2728 4690 
Q 3069 4631 3425 4513 
z
" transform="scale(0.015625)"/>
       </defs>
       <use xlink:href="#DejaVuSans-49"/>
       <use xlink:href="#DejaVuSans-73" transform="translate(29.492188 0)"/>
       <use xlink:href="#DejaVuSans-73" transform="translate(81.591797 0)"/>
       <use xlink:href="#DejaVuSans-61" transform="translate(133.691406 0)"/>
       <use xlink:href="#DejaVuSans-71" transform="translate(194.970703 0)"/>
       <use xlink:href="#DejaVuSans-75" transform="translate(258.447266 0)"/>
       <use xlink:href="#DejaVuSans-65" transform="translate(321.826172 0)"/>
       <use xlink:href="#DejaVuSans-6e" transform="translate(383.349609 0)"/>
       <use xlink:href="#DejaVuSans-61" transform="translate(446.728516 0)"/>
       <use xlink:href="#DejaVuSans-2c" transform="translate(508.007812 0)"/>
       <use xlink:href="#DejaVuSans-20" transform="translate(539.794922 0)"/>
       <use xlink:href="#DejaVuSans-4d" transform="translate(571.582031 0)"/>
       <use xlink:href="#DejaVuSans-53" transform="translate(657.861328 0)"/>
      </g>
     </g>
    </g>
    <g id="xtick_3">
     <g id="line2d_3">
      <g>
       <use xlink:href="#m9a4cf95910" x="252.497051" y="342.235172" style="stroke: #000000; stroke-width: 0.8"/>
      </g>
     </g>
     <g id="text_3">
      <!-- Holmes, MS -->
      <g transform="translate(203.094533 389.216213) rotate(-35) scale(0.1 -0.1)">
       <defs>
        <path id="DejaVuSans-48" d="M 628 4666 
L 1259 4666 
L 1259 2753 
L 3553 2753 
L 3553 4666 
L 4184 4666 
L 4184 0 
L 3553 0 
L 3553 2222 
L 1259 2222 
L 1259 0 
L 628 0 
L 628 4666 
z
" transform="scale(0.015625)"/>
        <path id="DejaVuSans-6d" d="M 3328 2828 
Q 3544 3216 3844 3400 
Q 4144 3584 4550 3584 
Q 5097 3584 5394 3201 
Q 5691 2819 5691 2113 
L 5691 0 
L 5113 0 
L 5113 2094 
Q 5113 2597 4934 2840 
Q 4756 3084 4391 3084 
Q 3944 3084 3684 2787 
Q 3425 2491 3425 1978 
L 3425 0 
L 2847 0 
L 2847 2094 
Q 2847 2600 2669 2842 
Q 2491 3084 2119 3084 
Q 1678 3084 1418 2786 
Q 1159 2488 1159 1978 
L 1159 0 
L 581 0 
L 581 3500 
L 1159 3500 
L 1159 2956 
Q 1356 3278 1631 3431 
Q 1906 3584 2284 3584 
Q 2666 3584 2933 3390 
Q 3200 3197 3328 2828 
z
" transform="scale(0.015625)"/>
       </defs>
       <use xlink:href="#DejaVuSans-48"/>
       <use xlink:href="#DejaVuSans-6f" transform="translate(75.195312 0)"/>
       <use xlink:href="#DejaVuSans-6c" transform="translate(136.376953 0)"/>
       <use xlink:href="#DejaVuSans-6d" transform="translate(164.160156 0)"/>
       <use xlink:href="#DejaVuSans-65" transform="translate(261.572266 0)"/>
       <use xlink:href="#DejaVuSans-73" transform="translate(323.095703 0)"/>
       <use xlink:href="#DejaVuSans-2c" transform="translate(375.195312 0)"/>
       <use xlink:href="#DejaVuSans-20" transform="translate(406.982422 0)"/>
       <use xlink:href="#DejaVuSans-4d" transform="translate(438.769531 0)"/>
       <use xlink:href="#DejaVuSans-53" transform="translate(525.048828 0)"/>
      </g>
     </g>
    </g>
    <g id="xtick_4">
     <g id="line2d_4">
      <g>
       <use xlink:href="#m9a4cf95910" x="327.107588" y="342.235172" style="stroke: #000000; stroke-width: 0.8"/>
      </g>
     </g>
     <g id="text_4">
      <!-- Bethel, AK -->
      <g transform="translate(283.35338 385.261224) rotate(-35) scale(0.1 -0.1)">
       <defs>
        <path id="DejaVuSans-42" d="M 1259 2228 
L 1259 519 
L 2272 519 
Q 2781 519 3026 730 
Q 3272 941 3272 1375 
Q 3272 1813 3026 2020 
Q 2781 2228 2272 2228 
L 1259 2228 
z
M 1259 4147 
L 1259 2741 
L 2194 2741 
Q 2656 2741 2882 2914 
Q 3109 3088 3109 3444 
Q 3109 3797 2882 3972 
Q 2656 4147 2194 4147 
L 1259 4147 
z
M 628 4666 
L 2241 4666 
Q 2963 4666 3353 4366 
Q 3744 4066 3744 3513 
Q 3744 3084 3544 2831 
Q 3344 2578 2956 2516 
Q 3422 2416 3680 2098 
Q 3938 1781 3938 1306 
Q 3938 681 3513 340 
Q 3088 0 2303 0 
L 628 0 
L 628 4666 
z
" transform="scale(0.015625)"/>
        <path id="DejaVuSans-68" d="M 3513 2113 
L 3513 0 
L 2938 0 
L 2938 2094 
Q 2938 2591 2744 2837 
Q 2550 3084 2163 3084 
Q 1697 3084 1428 2787 
Q 1159 2491 1159 1978 
L 1159 0 
L 581 0 
L 581 4863 
L 1159 4863 
L 1159 2956 
Q 1366 3272 1645 3428 
Q 1925 3584 2291 3584 
Q 2894 3584 3203 3211 
Q 3513 2838 3513 2113 
z
" transform="scale(0.015625)"/>
        <path id="DejaVuSans-4b" d="M 628 4666 
L 1259 4666 
L 1259 2694 
L 3353 4666 
L 4166 4666 
L 1850 2491 
L 4331 0 
L 3500 0 
L 1259 2247 
L 1259 0 
L 628 0 
L 628 4666 
z
" transform="scale(0.015625)"/>
       </defs>
       <use xlink:href="#DejaVuSans-42"/>
       <use xlink:href="#DejaVuSans-65" transform="translate(68.603516 0)"/>
       <use xlink:href="#DejaVuSans-74" transform="translate(130.126953 0)"/>
       <use xlink:href="#DejaVuSans-68" transform="translate(169.335938 0)"/>
       <use xlink:href="#DejaVuSans-65" transform="translate(232.714844 0)"/>
       <use xlink:href="#DejaVuSans-6c" transform="translate(294.238281 0)"/>
       <use xlink:href="#DejaVuSans-2c" transform="translate(322.021484 0)"/>
       <use xlink:href="#DejaVuSans-20" transform="translate(353.808594 0)"/>
       <use xlink:href="#DejaVuSans-41" transform="translate(385.595703 0)"/>
       <use xlink:href="#DejaVuSans-4b" transform="translate(454.003906 0)"/>
      </g>
     </g>
    </g>
    <g id="xtick_5">
     <g id="line2d_5">
      <g>
       <use xlink:href="#m9a4cf95910" x="401.718125" y="342.235172" style="stroke: #000000; stroke-width: 0.8"/>
      </g>
     </g>
     <g id="text_5">
      <!-- Apache, AZ -->
      <g transform="translate(353.544336 388.355848) rotate(-35) scale(0.1 -0.1)">
       <defs>
        <path id="DejaVuSans-70" d="M 1159 525 
L 1159 -1331 
L 581 -1331 
L 581 3500 
L 1159 3500 
L 1159 2969 
Q 1341 3281 1617 3432 
Q 1894 3584 2278 3584 
Q 2916 3584 3314 3078 
Q 3713 2572 3713 1747 
Q 3713 922 3314 415 
Q 2916 -91 2278 -91 
Q 1894 -91 1617 61 
Q 1341 213 1159 525 
z
M 3116 1747 
Q 3116 2381 2855 2742 
Q 2594 3103 2138 3103 
Q 1681 3103 1420 2742 
Q 1159 2381 1159 1747 
Q 1159 1113 1420 752 
Q 1681 391 2138 391 
Q 2594 391 2855 752 
Q 3116 1113 3116 1747 
z
" transform="scale(0.015625)"/>
        <path id="DejaVuSans-63" d="M 3122 3366 
L 3122 2828 
Q 2878 2963 2633 3030 
Q 2388 3097 2138 3097 
Q 1578 3097 1268 2742 
Q 959 2388 959 1747 
Q 959 1106 1268 751 
Q 1578 397 2138 397 
Q 2388 397 2633 464 
Q 2878 531 3122 666 
L 3122 134 
Q 2881 22 2623 -34 
Q 2366 -91 2075 -91 
Q 1284 -91 818 406 
Q 353 903 353 1747 
Q 353 2603 823 3093 
Q 1294 3584 2113 3584 
Q 2378 3584 2631 3529 
Q 2884 3475 3122 3366 
z
" transform="scale(0.015625)"/>
        <path id="DejaVuSans-5a" d="M 359 4666 
L 4025 4666 
L 4025 4184 
L 1075 531 
L 4097 531 
L 4097 0 
L 288 0 
L 288 481 
L 3238 4134 
L 359 4134 
L 359 4666 
z
" transform="scale(0.015625)"/>
       </defs>
       <use xlink:href="#DejaVuSans-41"/>
       <use xlink:href="#DejaVuSans-70" transform="translate(68.408203 0)"/>
       <use xlink:href="#DejaVuSans-61" transform="translate(131.884766 0)"/>
       <use xlink:href="#DejaVuSans-63" transform="translate(193.164062 0)"/>
       <use xlink:href="#DejaVuSans-68" transform="translate(248.144531 0)"/>
       <use xlink:href="#DejaVuSans-65" transform="translate(311.523438 0)"/>
       <use xlink:href="#DejaVuSans-2c" transform="translate(373.046875 0)"/>
       <use xlink:href="#DejaVuSans-20" transform="translate(404.833984 0)"/>
       <use xlink:href="#DejaVuSans-41" transform="translate(436.621094 0)"/>
       <use xlink:href="#DejaVuSans-5a" transform="translate(505.029297 0)"/>
      </g>
     </g>
    </g>
    <g id="xtick_6">
     <g id="line2d_6">
      <g>
       <use xlink:href="#m9a4cf95910" x="476.328662" y="342.235172" style="stroke: #000000; stroke-width: 0.8"/>
      </g>
     </g>
     <g id="text_6">
      <!-- Sunflower, MS -->
      <g transform="translate(416.799378 396.307052) rotate(-35) scale(0.1 -0.1)">
       <defs>
        <path id="DejaVuSans-66" d="M 2375 4863 
L 2375 4384 
L 1825 4384 
Q 1516 4384 1395 4259 
Q 1275 4134 1275 3809 
L 1275 3500 
L 2222 3500 
L 2222 3053 
L 1275 3053 
L 1275 0 
L 697 0 
L 697 3053 
L 147 3053 
L 147 3500 
L 697 3500 
L 697 3744 
Q 697 4328 969 4595 
Q 1241 4863 1831 4863 
L 2375 4863 
z
" transform="scale(0.015625)"/>
        <path id="DejaVuSans-77" d="M 269 3500 
L 844 3500 
L 1563 769 
L 2278 3500 
L 2956 3500 
L 3675 769 
L 4391 3500 
L 4966 3500 
L 4050 0 
L 3372 0 
L 2619 2869 
L 1863 0 
L 1184 0 
L 269 3500 
z
" transform="scale(0.015625)"/>
       </defs>
       <use xlink:href="#DejaVuSans-53"/>
       <use xlink:href="#DejaVuSans-75" transform="translate(63.476562 0)"/>
       <use xlink:href="#DejaVuSans-6e" transform="translate(126.855469 0)"/>
       <use xlink:href="#DejaVuSans-66" transform="translate(190.234375 0)"/>
       <use xlink:href="#DejaVuSans-6c" transform="translate(225.439453 0)"/>
       <use xlink:href="#DejaVuSans-6f" transform="translate(253.222656 0)"/>
       <use xlink:href="#DejaVuSans-77" transform="translate(314.404297 0)"/>
       <use xlink:href="#DejaVuSans-65" transform="translate(396.191406 0)"/>
       <use xlink:href="#DejaVuSans-72" transform="translate(457.714844 0)"/>
       <use xlink:href="#DejaVuSans-2c" transform="translate(498.828125 0)"/>
       <use xlink:href="#DejaVuSans-20" transform="translate(530.615234 0)"/>
       <use xlink:href="#DejaVuSans-4d" transform="translate(562.402344 0)"/>
       <use xlink:href="#DejaVuSans-53" transform="translate(648.681641 0)"/>
      </g>
     </g>
    </g>
    <g id="xtick_7">
     <g id="line2d_7">
      <g>
       <use xlink:href="#m9a4cf95910" x="550.939199" y="342.235172" style="stroke: #000000; stroke-width: 0.8"/>
      </g>
     </g>
     <g id="text_7">
      <!-- Jefferson, MS -->
      <g transform="translate(496.168676 392.974931) rotate(-35) scale(0.1 -0.1)">
       <defs>
        <path id="DejaVuSans-4a" d="M 628 4666 
L 1259 4666 
L 1259 325 
Q 1259 -519 939 -900 
Q 619 -1281 -91 -1281 
L -331 -1281 
L -331 -750 
L -134 -750 
Q 284 -750 456 -515 
Q 628 -281 628 325 
L 628 4666 
z
" transform="scale(0.015625)"/>
       </defs>
       <use xlink:href="#DejaVuSans-4a"/>
       <use xlink:href="#DejaVuSans-65" transform="translate(29.492188 0)"/>
       <use xlink:href="#DejaVuSans-66" transform="translate(91.015625 0)"/>
       <use xlink:href="#DejaVuSans-66" transform="translate(126.220703 0)"/>
       <use xlink:href="#DejaVuSans-65" transform="translate(161.425781 0)"/>
       <use xlink:href="#DejaVuSans-72" transform="translate(222.949219 0)"/>
       <use xlink:href="#DejaVuSans-73" transform="translate(264.0625 0)"/>
       <use xlink:href="#DejaVuSans-6f" transform="translate(316.162109 0)"/>
       <use xlink:href="#DejaVuSans-6e" transform="translate(377.34375 0)"/>
       <use xlink:href="#DejaVuSans-2c" transform="translate(440.722656 0)"/>
       <use xlink:href="#DejaVuSans-20" transform="translate(472.509766 0)"/>
       <use xlink:href="#DejaVuSans-4d" transform="translate(504.296875 0)"/>
       <use xlink:href="#DejaVuSans-53" transform="translate(590.576172 0)"/>
      </g>
     </g>
    </g>
    <g id="xtick_8">
     <g id="line2d_8">
      <g>
       <use xlink:href="#m9a4cf95910" x="625.549737" y="342.235172" style="stroke: #000000; stroke-width: 0.8"/>
      </g>
     </g>
     <g id="text_8">
      <!-- Kusilvak, AK -->
      <g transform="translate(574.59083 390.306008) rotate(-35) scale(0.1 -0.1)">
       <defs>
        <path id="DejaVuSans-69" d="M 603 3500 
L 1178 3500 
L 1178 0 
L 603 0 
L 603 3500 
z
M 603 4863 
L 1178 4863 
L 1178 4134 
L 603 4134 
L 603 4863 
z
" transform="scale(0.015625)"/>
        <path id="DejaVuSans-76" d="M 191 3500 
L 800 3500 
L 1894 563 
L 2988 3500 
L 3597 3500 
L 2284 0 
L 1503 0 
L 191 3500 
z
" transform="scale(0.015625)"/>
        <path id="DejaVuSans-6b" d="M 581 4863 
L 1159 4863 
L 1159 1991 
L 2875 3500 
L 3609 3500 
L 1753 1863 
L 3688 0 
L 2938 0 
L 1159 1709 
L 1159 0 
L 581 0 
L 581 4863 
z
" transform="scale(0.015625)"/>
       </defs>
       <use xlink:href="#DejaVuSans-4b"/>
       <use xlink:href="#DejaVuSans-75" transform="translate(60.576172 0)"/>
       <use xlink:href="#DejaVuSans-73" transform="translate(123.955078 0)"/>
       <use xlink:href="#DejaVuSans-69" transform="translate(176.054688 0)"/>
       <use xlink:href="#DejaVuSans-6c" transform="translate(203.837891 0)"/>
       <use xlink:href="#DejaVuSans-76" transform="translate(231.621094 0)"/>
       <use xlink:href="#DejaVuSans-61" transform="translate(290.800781 0)"/>
       <use xlink:href="#DejaVuSans-6b" transform="translate(352.080078 0)"/>
       <use xlink:href="#DejaVuSans-2c" transform="translate(409.990234 0)"/>
       <use xlink:href="#DejaVuSans-20" transform="translate(441.777344 0)"/>
       <use xlink:href="#DejaVuSans-41" transform="translate(473.564453 0)"/>
       <use xlink:href="#DejaVuSans-4b" transform="translate(541.972656 0)"/>
      </g>
     </g>
    </g>
    <g id="xtick_9">
     <g id="line2d_9">
      <g>
       <use xlink:href="#m9a4cf95910" x="700.160274" y="342.235172" style="stroke: #000000; stroke-width: 0.8"/>
      </g>
     </g>
     <g id="text_9">
      <!-- Humphreys, MS -->
      <g transform="translate(634.431032 400.648308) rotate(-35) scale(0.1 -0.1)">
       <defs>
        <path id="DejaVuSans-79" d="M 2059 -325 
Q 1816 -950 1584 -1140 
Q 1353 -1331 966 -1331 
L 506 -1331 
L 506 -850 
L 844 -850 
Q 1081 -850 1212 -737 
Q 1344 -625 1503 -206 
L 1606 56 
L 191 3500 
L 800 3500 
L 1894 763 
L 2988 3500 
L 3597 3500 
L 2059 -325 
z
" transform="scale(0.015625)"/>
       </defs>
       <use xlink:href="#DejaVuSans-48"/>
       <use xlink:href="#DejaVuSans-75" transform="translate(75.195312 0)"/>
       <use xlink:href="#DejaVuSans-6d" transform="translate(138.574219 0)"/>
       <use xlink:href="#DejaVuSans-70" transform="translate(235.986328 0)"/>
       <use xlink:href="#DejaVuSans-68" transform="translate(299.462891 0)"/>
       <use xlink:href="#DejaVuSans-72" transform="translate(362.841797 0)"/>
       <use xlink:href="#DejaVuSans-65" transform="translate(401.705078 0)"/>
       <use xlink:href="#DejaVuSans-79" transform="translate(463.228516 0)"/>
       <use xlink:href="#DejaVuSans-73" transform="translate(522.408203 0)"/>
       <use xlink:href="#DejaVuSans-2c" transform="translate(574.507812 0)"/>
       <use xlink:href="#DejaVuSans-20" transform="translate(606.294922 0)"/>
       <use xlink:href="#DejaVuSans-4d" transform="translate(638.082031 0)"/>
       <use xlink:href="#DejaVuSans-53" transform="translate(724.361328 0)"/>
      </g>
     </g>
    </g>
    <g id="text_10">
     <!-- County -->
     <g transform="translate(383.910312 413.950326) scale(0.1 -0.1)">
      <use xlink:href="#DejaVuSans-43"/>
      <use xlink:href="#DejaVuSans-6f" transform="translate(69.824219 0)"/>
      <use xlink:href="#DejaVuSans-75" transform="translate(131.005859 0)"/>
      <use xlink:href="#DejaVuSans-6e" transform="translate(194.384766 0)"/>
      <use xlink:href="#DejaVuSans-74" transform="translate(257.763672 0)"/>
      <use xlink:href="#DejaVuSans-79" transform="translate(296.972656 0)"/>
     </g>
    </g>
   </g>
   <g id="matplotlib.axis_2">
    <g id="ytick_1">
     <g id="line2d_10">
      <path d="M 40.603125 342.235172 
L 762.833125 342.235172 
" clip-path="url(#pb6001a7f4b)" style="fill: none; stroke-dasharray: 1.85,0.8; stroke-dashoffset: 0; stroke: #b0b0b0; stroke-opacity: 0.4; stroke-width: 0.5"/>
     </g>
     <g id="line2d_11">
      <defs>
       <path id="mfe28fd4ada" d="M 0 0 
L -3.5 0 
" style="stroke: #000000; stroke-width: 0.8"/>
      </defs>
      <g>
       <use xlink:href="#mfe28fd4ada" x="40.603125" y="342.235172" style="stroke: #000000; stroke-width: 0.8"/>
      </g>
     </g>
     <g id="text_11">
      <!-- 0 -->
      <g transform="translate(27.240625 346.034391) scale(0.1 -0.1)">
       <defs>
        <path id="DejaVuSans-30" d="M 2034 4250 
Q 1547 4250 1301 3770 
Q 1056 3291 1056 2328 
Q 1056 1369 1301 889 
Q 1547 409 2034 409 
Q 2525 409 2770 889 
Q 3016 1369 3016 2328 
Q 3016 3291 2770 3770 
Q 2525 4250 2034 4250 
z
M 2034 4750 
Q 2819 4750 3233 4129 
Q 3647 3509 3647 2328 
Q 3647 1150 3233 529 
Q 2819 -91 2034 -91 
Q 1250 -91 836 529 
Q 422 1150 422 2328 
Q 422 3509 836 4129 
Q 1250 4750 2034 4750 
z
" transform="scale(0.015625)"/>
       </defs>
       <use xlink:href="#DejaVuSans-30"/>
      </g>
     </g>
    </g>
    <g id="ytick_2">
     <g id="line2d_12">
      <path d="M 40.603125 301.826299 
L 762.833125 301.826299 
" clip-path="url(#pb6001a7f4b)" style="fill: none; stroke-dasharray: 1.85,0.8; stroke-dashoffset: 0; stroke: #b0b0b0; stroke-opacity: 0.4; stroke-width: 0.5"/>
     </g>
     <g id="line2d_13">
      <g>
       <use xlink:href="#mfe28fd4ada" x="40.603125" y="301.826299" style="stroke: #000000; stroke-width: 0.8"/>
      </g>
     </g>
     <g id="text_12">
      <!-- 5 -->
      <g transform="translate(27.240625 305.625518) scale(0.1 -0.1)">
       <defs>
        <path id="DejaVuSans-35" d="M 691 4666 
L 3169 4666 
L 3169 4134 
L 1269 4134 
L 1269 2991 
Q 1406 3038 1543 3061 
Q 1681 3084 1819 3084 
Q 2600 3084 3056 2656 
Q 3513 2228 3513 1497 
Q 3513 744 3044 326 
Q 2575 -91 1722 -91 
Q 1428 -91 1123 -41 
Q 819 9 494 109 
L 494 744 
Q 775 591 1075 516 
Q 1375 441 1709 441 
Q 2250 441 2565 725 
Q 2881 1009 2881 1497 
Q 2881 1984 2565 2268 
Q 2250 2553 1709 2553 
Q 1456 2553 1204 2497 
Q 953 2441 691 2322 
L 691 4666 
z
" transform="scale(0.015625)"/>
       </defs>
       <use xlink:href="#DejaVuSans-35"/>
      </g>
     </g>
    </g>
    <g id="ytick_3">
     <g id="line2d_14">
      <path d="M 40.603125 261.417426 
L 762.833125 261.417426 
" clip-path="url(#pb6001a7f4b)" style="fill: none; stroke-dasharray: 1.85,0.8; stroke-dashoffset: 0; stroke: #b0b0b0; stroke-opacity: 0.4; stroke-width: 0.5"/>
     </g>
     <g id="line2d_15">
      <g>
       <use xlink:href="#mfe28fd4ada" x="40.603125" y="261.417426" style="stroke: #000000; stroke-width: 0.8"/>
      </g>
     </g>
     <g id="text_13">
      <!-- 10 -->
      <g transform="translate(20.878125 265.216645) scale(0.1 -0.1)">
       <defs>
        <path id="DejaVuSans-31" d="M 794 531 
L 1825 531 
L 1825 4091 
L 703 3866 
L 703 4441 
L 1819 4666 
L 2450 4666 
L 2450 531 
L 3481 531 
L 3481 0 
L 794 0 
L 794 531 
z
" transform="scale(0.015625)"/>
       </defs>
       <use xlink:href="#DejaVuSans-31"/>
       <use xlink:href="#DejaVuSans-30" transform="translate(63.623047 0)"/>
      </g>
     </g>
    </g>
    <g id="ytick_4">
     <g id="line2d_16">
      <path d="M 40.603125 221.008553 
L 762.833125 221.008553 
" clip-path="url(#pb6001a7f4b)" style="fill: none; stroke-dasharray: 1.85,0.8; stroke-dashoffset: 0; stroke: #b0b0b0; stroke-opacity: 0.4; stroke-width: 0.5"/>
     </g>
     <g id="line2d_17">
      <g>
       <use xlink:href="#mfe28fd4ada" x="40.603125" y="221.008553" style="stroke: #000000; stroke-width: 0.8"/>
      </g>
     </g>
     <g id="text_14">
      <!-- 15 -->
      <g transform="translate(20.878125 224.807772) scale(0.1 -0.1)">
       <use xlink:href="#DejaVuSans-31"/>
       <use xlink:href="#DejaVuSans-35" transform="translate(63.623047 0)"/>
      </g>
     </g>
    </g>
    <g id="ytick_5">
     <g id="line2d_18">
      <path d="M 40.603125 180.59968 
L 762.833125 180.59968 
" clip-path="url(#pb6001a7f4b)" style="fill: none; stroke-dasharray: 1.85,0.8; stroke-dashoffset: 0; stroke: #b0b0b0; stroke-opacity: 0.4; stroke-width: 0.5"/>
     </g>
     <g id="line2d_19">
      <g>
       <use xlink:href="#mfe28fd4ada" x="40.603125" y="180.59968" style="stroke: #000000; stroke-width: 0.8"/>
      </g>
     </g>
     <g id="text_15">
      <!-- 20 -->
      <g transform="translate(20.878125 184.398899) scale(0.1 -0.1)">
       <defs>
        <path id="DejaVuSans-32" d="M 1228 531 
L 3431 531 
L 3431 0 
L 469 0 
L 469 531 
Q 828 903 1448 1529 
Q 2069 2156 2228 2338 
Q 2531 2678 2651 2914 
Q 2772 3150 2772 3378 
Q 2772 3750 2511 3984 
Q 2250 4219 1831 4219 
Q 1534 4219 1204 4116 
Q 875 4013 500 3803 
L 500 4441 
Q 881 4594 1212 4672 
Q 1544 4750 1819 4750 
Q 2544 4750 2975 4387 
Q 3406 4025 3406 3419 
Q 3406 3131 3298 2873 
Q 3191 2616 2906 2266 
Q 2828 2175 2409 1742 
Q 1991 1309 1228 531 
z
" transform="scale(0.015625)"/>
       </defs>
       <use xlink:href="#DejaVuSans-32"/>
       <use xlink:href="#DejaVuSans-30" transform="translate(63.623047 0)"/>
      </g>
     </g>
    </g>
    <g id="ytick_6">
     <g id="line2d_20">
      <path d="M 40.603125 140.190807 
L 762.833125 140.190807 
" clip-path="url(#pb6001a7f4b)" style="fill: none; stroke-dasharray: 1.85,0.8; stroke-dashoffset: 0; stroke: #b0b0b0; stroke-opacity: 0.4; stroke-width: 0.5"/>
     </g>
     <g id="line2d_21">
      <g>
       <use xlink:href="#mfe28fd4ada" x="40.603125" y="140.190807" style="stroke: #000000; stroke-width: 0.8"/>
      </g>
     </g>
     <g id="text_16">
      <!-- 25 -->
      <g transform="translate(20.878125 143.990026) scale(0.1 -0.1)">
       <use xlink:href="#DejaVuSans-32"/>
       <use xlink:href="#DejaVuSans-35" transform="translate(63.623047 0)"/>
      </g>
     </g>
    </g>
    <g id="ytick_7">
     <g id="line2d_22">
      <path d="M 40.603125 99.781934 
L 762.833125 99.781934 
" clip-path="url(#pb6001a7f4b)" style="fill: none; stroke-dasharray: 1.85,0.8; stroke-dashoffset: 0; stroke: #b0b0b0; stroke-opacity: 0.4; stroke-width: 0.5"/>
     </g>
     <g id="line2d_23">
      <g>
       <use xlink:href="#mfe28fd4ada" x="40.603125" y="99.781934" style="stroke: #000000; stroke-width: 0.8"/>
      </g>
     </g>
     <g id="text_17">
      <!-- 30 -->
      <g transform="translate(20.878125 103.581153) scale(0.1 -0.1)">
       <defs>
        <path id="DejaVuSans-33" d="M 2597 2516 
Q 3050 2419 3304 2112 
Q 3559 1806 3559 1356 
Q 3559 666 3084 287 
Q 2609 -91 1734 -91 
Q 1441 -91 1130 -33 
Q 819 25 488 141 
L 488 750 
Q 750 597 1062 519 
Q 1375 441 1716 441 
Q 2309 441 2620 675 
Q 2931 909 2931 1356 
Q 2931 1769 2642 2001 
Q 2353 2234 1838 2234 
L 1294 2234 
L 1294 2753 
L 1863 2753 
Q 2328 2753 2575 2939 
Q 2822 3125 2822 3475 
Q 2822 3834 2567 4026 
Q 2313 4219 1838 4219 
Q 1578 4219 1281 4162 
Q 984 4106 628 3988 
L 628 4550 
Q 988 4650 1302 4700 
Q 1616 4750 1894 4750 
Q 2613 4750 3031 4423 
Q 3450 4097 3450 3541 
Q 3450 3153 3228 2886 
Q 3006 2619 2597 2516 
z
" transform="scale(0.015625)"/>
       </defs>
       <use xlink:href="#DejaVuSans-33"/>
       <use xlink:href="#DejaVuSans-30" transform="translate(63.623047 0)"/>
      </g>
     </g>
    </g>
    <g id="ytick_8">
     <g id="line2d_24">
      <path d="M 40.603125 59.373061 
L 762.833125 59.373061 
" clip-path="url(#pb6001a7f4b)" style="fill: none; stroke-dasharray: 1.85,0.8; stroke-dashoffset: 0; stroke: #b0b0b0; stroke-opacity: 0.4; stroke-width: 0.5"/>
     </g>
     <g id="line2d_25">
      <g>
       <use xlink:href="#mfe28fd4ada" x="40.603125" y="59.373061" style="stroke: #000000; stroke-width: 0.8"/>
      </g>
     </g>
     <g id="text_18">
      <!-- 35 -->
      <g transform="translate(20.878125 63.17228) scale(0.1 -0.1)">
       <use xlink:href="#DejaVuSans-33"/>
       <use xlink:href="#DejaVuSans-35" transform="translate(63.623047 0)"/>
      </g>
     </g>
    </g>
    <g id="text_19">
     <!-- Percentage -->
     <g transform="translate(14.798438 210.399305) rotate(-90) scale(0.1 -0.1)">
      <defs>
       <path id="DejaVuSans-50" d="M 1259 4147 
L 1259 2394 
L 2053 2394 
Q 2494 2394 2734 2622 
Q 2975 2850 2975 3272 
Q 2975 3691 2734 3919 
Q 2494 4147 2053 4147 
L 1259 4147 
z
M 628 4666 
L 2053 4666 
Q 2838 4666 3239 4311 
Q 3641 3956 3641 3272 
Q 3641 2581 3239 2228 
Q 2838 1875 2053 1875 
L 1259 1875 
L 1259 0 
L 628 0 
L 628 4666 
z
" transform="scale(0.015625)"/>
       <path id="DejaVuSans-67" d="M 2906 1791 
Q 2906 2416 2648 2759 
Q 2391 3103 1925 3103 
Q 1463 3103 1205 2759 
Q 947 2416 947 1791 
Q 947 1169 1205 825 
Q 1463 481 1925 481 
Q 2391 481 2648 825 
Q 2906 1169 2906 1791 
z
M 3481 434 
Q 3481 -459 3084 -895 
Q 2688 -1331 1869 -1331 
Q 1566 -1331 1297 -1286 
Q 1028 -1241 775 -1147 
L 775 -588 
Q 1028 -725 1275 -790 
Q 1522 -856 1778 -856 
Q 2344 -856 2625 -561 
Q 2906 -266 2906 331 
L 2906 616 
Q 2728 306 2450 153 
Q 2172 0 1784 0 
Q 1141 0 747 490 
Q 353 981 353 1791 
Q 353 2603 747 3093 
Q 1141 3584 1784 3584 
Q 2172 3584 2450 3431 
Q 2728 3278 2906 2969 
L 2906 3500 
L 3481 3500 
L 3481 434 
z
" transform="scale(0.015625)"/>
      </defs>
      <use xlink:href="#DejaVuSans-50"/>
      <use xlink:href="#DejaVuSans-65" transform="translate(56.677734 0)"/>
      <use xlink:href="#DejaVuSans-72" transform="translate(118.201172 0)"/>
      <use xlink:href="#DejaVuSans-63" transform="translate(157.064453 0)"/>
      <use xlink:href="#DejaVuSans-65" transform="translate(212.044922 0)"/>
      <use xlink:href="#DejaVuSans-6e" transform="translate(273.568359 0)"/>
      <use xlink:href="#DejaVuSans-74" transform="translate(336.947266 0)"/>
      <use xlink:href="#DejaVuSans-61" transform="translate(376.15625 0)"/>
      <use xlink:href="#DejaVuSans-67" transform="translate(437.435547 0)"/>
      <use xlink:href="#DejaVuSans-65" transform="translate(500.912109 0)"/>
     </g>
    </g>
   </g>
   <g id="patch_12">
    <path d="M 40.603125 342.235172 
L 40.603125 22.318125 
" style="fill: none; stroke: #000000; stroke-width: 0.8; stroke-linejoin: miter; stroke-linecap: square"/>
   </g>
   <g id="patch_13">
    <path d="M 40.603125 342.235172 
L 762.833125 342.235172 
" style="fill: none; stroke: #000000; stroke-width: 0.8; stroke-linejoin: miter; stroke-linecap: square"/>
   </g>
   <g id="text_20">
    <!-- Top 9 counties for Lack of social and emotional support among adults -->
    <g transform="translate(192.84875 16.318125) scale(0.12 -0.12)">
     <defs>
      <path id="DejaVuSans-54" d="M -19 4666 
L 3928 4666 
L 3928 4134 
L 2272 4134 
L 2272 0 
L 1638 0 
L 1638 4134 
L -19 4134 
L -19 4666 
z
" transform="scale(0.015625)"/>
      <path id="DejaVuSans-39" d="M 703 97 
L 703 672 
Q 941 559 1184 500 
Q 1428 441 1663 441 
Q 2288 441 2617 861 
Q 2947 1281 2994 2138 
Q 2813 1869 2534 1725 
Q 2256 1581 1919 1581 
Q 1219 1581 811 2004 
Q 403 2428 403 3163 
Q 403 3881 828 4315 
Q 1253 4750 1959 4750 
Q 2769 4750 3195 4129 
Q 3622 3509 3622 2328 
Q 3622 1225 3098 567 
Q 2575 -91 1691 -91 
Q 1453 -91 1209 -44 
Q 966 3 703 97 
z
M 1959 2075 
Q 2384 2075 2632 2365 
Q 2881 2656 2881 3163 
Q 2881 3666 2632 3958 
Q 2384 4250 1959 4250 
Q 1534 4250 1286 3958 
Q 1038 3666 1038 3163 
Q 1038 2656 1286 2365 
Q 1534 2075 1959 2075 
z
" transform="scale(0.015625)"/>
      <path id="DejaVuSans-64" d="M 2906 2969 
L 2906 4863 
L 3481 4863 
L 3481 0 
L 2906 0 
L 2906 525 
Q 2725 213 2448 61 
Q 2172 -91 1784 -91 
Q 1150 -91 751 415 
Q 353 922 353 1747 
Q 353 2572 751 3078 
Q 1150 3584 1784 3584 
Q 2172 3584 2448 3432 
Q 2725 3281 2906 2969 
z
M 947 1747 
Q 947 1113 1208 752 
Q 1469 391 1925 391 
Q 2381 391 2643 752 
Q 2906 1113 2906 1747 
Q 2906 2381 2643 2742 
Q 2381 3103 1925 3103 
Q 1469 3103 1208 2742 
Q 947 2381 947 1747 
z
" transform="scale(0.015625)"/>
     </defs>
     <use xlink:href="#DejaVuSans-54"/>
     <use xlink:href="#DejaVuSans-6f" transform="translate(44.083984 0)"/>
     <use xlink:href="#DejaVuSans-70" transform="translate(105.265625 0)"/>
     <use xlink:href="#DejaVuSans-20" transform="translate(168.742188 0)"/>
     <use xlink:href="#DejaVuSans-39" transform="translate(200.529297 0)"/>
     <use xlink:href="#DejaVuSans-20" transform="translate(264.152344 0)"/>
     <use xlink:href="#DejaVuSans-63" transform="translate(295.939453 0)"/>
     <use xlink:href="#DejaVuSans-6f" transform="translate(350.919922 0)"/>
     <use xlink:href="#DejaVuSans-75" transform="translate(412.101562 0)"/>
     <use xlink:href="#DejaVuSans-6e" transform="translate(475.480469 0)"/>
     <use xlink:href="#DejaVuSans-74" transform="translate(538.859375 0)"/>
     <use xlink:href="#DejaVuSans-69" transform="translate(578.068359 0)"/>
     <use xlink:href="#DejaVuSans-65" transform="translate(605.851562 0)"/>
     <use xlink:href="#DejaVuSans-73" transform="translate(667.375 0)"/>
     <use xlink:href="#DejaVuSans-20" transform="translate(719.474609 0)"/>
     <use xlink:href="#DejaVuSans-66" transform="translate(751.261719 0)"/>
     <use xlink:href="#DejaVuSans-6f" transform="translate(786.466797 0)"/>
     <use xlink:href="#DejaVuSans-72" transform="translate(847.648438 0)"/>
     <use xlink:href="#DejaVuSans-20" transform="translate(888.761719 0)"/>
     <use xlink:href="#DejaVuSans-4c" transform="translate(920.548828 0)"/>
     <use xlink:href="#DejaVuSans-61" transform="translate(976.261719 0)"/>
     <use xlink:href="#DejaVuSans-63" transform="translate(1037.541016 0)"/>
     <use xlink:href="#DejaVuSans-6b" transform="translate(1092.521484 0)"/>
     <use xlink:href="#DejaVuSans-20" transform="translate(1150.431641 0)"/>
     <use xlink:href="#DejaVuSans-6f" transform="translate(1182.21875 0)"/>
     <use xlink:href="#DejaVuSans-66" transform="translate(1243.400391 0)"/>
     <use xlink:href="#DejaVuSans-20" transform="translate(1278.605469 0)"/>
     <use xlink:href="#DejaVuSans-73" transform="translate(1310.392578 0)"/>
     <use xlink:href="#DejaVuSans-6f" transform="translate(1362.492188 0)"/>
     <use xlink:href="#DejaVuSans-63" transform="translate(1423.673828 0)"/>
     <use xlink:href="#DejaVuSans-69" transform="translate(1478.654297 0)"/>
     <use xlink:href="#DejaVuSans-61" transform="translate(1506.4375 0)"/>
     <use xlink:href="#DejaVuSans-6c" transform="translate(1567.716797 0)"/>
     <use xlink:href="#DejaVuSans-20" transform="translate(1595.5 0)"/>
     <use xlink:href="#DejaVuSans-61" transform="translate(1627.287109 0)"/>
     <use xlink:href="#DejaVuSans-6e" transform="translate(1688.566406 0)"/>
     <use xlink:href="#DejaVuSans-64" transform="translate(1751.945312 0)"/>
     <use xlink:href="#DejaVuSans-20" transform="translate(1815.421875 0)"/>
     <use xlink:href="#DejaVuSans-65" transform="translate(1847.208984 0)"/>
     <use xlink:href="#DejaVuSans-6d" transform="translate(1908.732422 0)"/>
     <use xlink:href="#DejaVuSans-6f" transform="translate(2006.144531 0)"/>
     <use xlink:href="#DejaVuSans-74" transform="translate(2067.326172 0)"/>
     <use xlink:href="#DejaVuSans-69" transform="translate(2106.535156 0)"/>
     <use xlink:href="#DejaVuSans-6f" transform="translate(2134.318359 0)"/>
     <use xlink:href="#DejaVuSans-6e" transform="translate(2195.5 0)"/>
     <use xlink:href="#DejaVuSans-61" transform="translate(2258.878906 0)"/>
     <use xlink:href="#DejaVuSans-6c" transform="translate(2320.158203 0)"/>
     <use xlink:href="#DejaVuSans-20" transform="translate(2347.941406 0)"/>
     <use xlink:href="#DejaVuSans-73" transform="translate(2379.728516 0)"/>
     <use xlink:href="#DejaVuSans-75" transform="translate(2431.828125 0)"/>
     <use xlink:href="#DejaVuSans-70" transform="translate(2495.207031 0)"/>
     <use xlink:href="#DejaVuSans-70" transform="translate(2558.683594 0)"/>
     <use xlink:href="#DejaVuSans-6f" transform="translate(2622.160156 0)"/>
     <use xlink:href="#DejaVuSans-72" transform="translate(2683.341797 0)"/>
     <use xlink:href="#DejaVuSans-74" transform="translate(2724.455078 0)"/>
     <use xlink:href="#DejaVuSans-20" transform="translate(2763.664062 0)"/>
     <use xlink:href="#DejaVuSans-61" transform="translate(2795.451172 0)"/>
     <use xlink:href="#DejaVuSans-6d" transform="translate(2856.730469 0)"/>
     <use xlink:href="#DejaVuSans-6f" transform="translate(2954.142578 0)"/>
     <use xlink:href="#DejaVuSans-6e" transform="translate(3015.324219 0)"/>
     <use xlink:href="#DejaVuSans-67" transform="translate(3078.703125 0)"/>
     <use xlink:href="#DejaVuSans-20" transform="translate(3142.179688 0)"/>
     <use xlink:href="#DejaVuSans-61" transform="translate(3173.966797 0)"/>
     <use xlink:href="#DejaVuSans-64" transform="translate(3235.246094 0)"/>
     <use xlink:href="#DejaVuSans-75" transform="translate(3298.722656 0)"/>
     <use xlink:href="#DejaVuSans-6c" transform="translate(3362.101562 0)"/>
     <use xlink:href="#DejaVuSans-74" transform="translate(3389.884766 0)"/>
     <use xlink:href="#DejaVuSans-73" transform="translate(3429.09375 0)"/>
    </g>
   </g>
  </g>
 </g>
 <defs>
  <clipPath id="pb6001a7f4b">
   <rect x="40.603125" y="22.318125" width="722.23" height="319.917047"/>
  </clipPath>
 </defs>
</svg>
