<?xml version="1.0" encoding="utf-8" standalone="no"?>
<!DOCTYPE svg PUBLIC "-//W3C//DTD SVG 1.1//EN"
  "http://www.w3.org/Graphics/SVG/1.1/DTD/svg11.dtd">
<svg xmlns:xlink="http://www.w3.org/1999/xlink" width="712.433125pt" height="421.59173pt" viewBox="0 0 712.433125 421.59173" xmlns="http://www.w3.org/2000/svg" version="1.1">
 <metadata>
  <rdf:RDF xmlns:dc="http://purl.org/dc/elements/1.1/" xmlns:cc="http://creativecommons.org/ns#" xmlns:rdf="http://www.w3.org/1999/02/22-rdf-syntax-ns#">
   <cc:Work>
    <dc:type rdf:resource="http://purl.org/dc/dcmitype/StillImage"/>
    <dc:date>2026-04-03T00:52:37.748660</dc:date>
    <dc:format>image/svg+xml</dc:format>
    <dc:creator>
     <cc:Agent>
      <dc:title>Matplotlib v3.10.8, https://matplotlib.org/</dc:title>
     </cc:Agent>
    </dc:creator>
   </cc:Work>
  </rdf:RDF>
 </metadata>
 <defs>
  <style type="text/css">*{stroke-linejoin: round; stroke-linecap: butt}</style>
 </defs>
 <g id="figure_1">
  <g id="patch_1">
   <path d="M 0 421.59173 
L 712.433125 421.59173 
L 712.433125 0 
L 0 0 
z
" style="fill: #ffffff"/>
  </g>
  <g id="axes_1">
   <g id="patch_2">
    <path d="M 40.603125 340.077084 
L 705.233125 340.077084 
L 705.233125 35.7555 
L 40.603125 35.7555 
z
" style="fill: #ffffff"/>
   </g>
   <g id="patch_3">
    <path d="M 70.81358 340.077084 
L 110.674596 340.077084 
L 110.674596 315.832039 
L 70.81358 315.832039 
z
" clip-path="url(#pcf6ec4a851)" style="fill: #4f81bd; stroke: #385d8a; stroke-width: 0.7; stroke-linejoin: miter"/>
   </g>
   <g id="patch_4">
    <path d="M 175.710991 340.077084 
L 215.572008 340.077084 
L 215.572008 318.978343 
L 175.710991 318.978343 
z
" clip-path="url(#pcf6ec4a851)" style="fill: #4f81bd; stroke: #385d8a; stroke-width: 0.7; stroke-linejoin: miter"/>
   </g>
   <g id="patch_5">
    <path d="M 280.608403 340.077084 
L 320.469419 340.077084 
L 320.469419 319.348496 
L 280.608403 319.348496 
z
" clip-path="url(#pcf6ec4a851)" style="fill: #4f81bd; stroke: #385d8a; stroke-width: 0.7; stroke-linejoin: miter"/>
   </g>
   <g id="patch_6">
    <path d="M 385.505814 340.077084 
L 425.366831 340.077084 
L 425.366831 327.49187 
L 385.505814 327.49187 
z
" clip-path="url(#pcf6ec4a851)" style="fill: #4f81bd; stroke: #385d8a; stroke-width: 0.7; stroke-linejoin: miter"/>
   </g>
   <g id="patch_7">
    <path d="M 490.403226 340.077084 
L 530.264242 340.077084 
L 530.264242 311.575276 
L 490.403226 311.575276 
z
" clip-path="url(#pcf6ec4a851)" style="fill: #4f81bd; stroke: #385d8a; stroke-width: 0.7; stroke-linejoin: miter"/>
   </g>
   <g id="patch_8">
    <path d="M 595.300638 340.077084 
L 635.161654 340.077084 
L 635.161654 327.306793 
L 595.300638 327.306793 
z
" clip-path="url(#pcf6ec4a851)" style="fill: #4f81bd; stroke: #385d8a; stroke-width: 0.7; stroke-linejoin: miter"/>
   </g>
   <g id="patch_9">
    <path d="M 110.674596 340.077084 
L 150.535612 340.077084 
L 150.535612 56.909764 
L 110.674596 56.909764 
z
" clip-path="url(#pcf6ec4a851)" style="fill: #c0504d; stroke: #963634; stroke-width: 0.7; stroke-linejoin: miter"/>
   </g>
   <g id="patch_10">
    <path d="M 215.572008 340.077084 
L 255.433024 340.077084 
L 255.433024 54.318691 
L 215.572008 54.318691 
z
" clip-path="url(#pcf6ec4a851)" style="fill: #c0504d; stroke: #963634; stroke-width: 0.7; stroke-linejoin: miter"/>
   </g>
   <g id="patch_11">
    <path d="M 320.469419 340.077084 
L 360.330436 340.077084 
L 360.330436 58.205301 
L 320.469419 58.205301 
z
" clip-path="url(#pcf6ec4a851)" style="fill: #c0504d; stroke: #963634; stroke-width: 0.7; stroke-linejoin: miter"/>
   </g>
   <g id="patch_12">
    <path d="M 425.366831 340.077084 
L 465.227847 340.077084 
L 465.227847 50.247004 
L 425.366831 50.247004 
z
" clip-path="url(#pcf6ec4a851)" style="fill: #c0504d; stroke: #963634; stroke-width: 0.7; stroke-linejoin: miter"/>
   </g>
   <g id="patch_13">
    <path d="M 530.264242 340.077084 
L 570.125259 340.077084 
L 570.125259 66.348675 
L 530.264242 66.348675 
z
" clip-path="url(#pcf6ec4a851)" style="fill: #c0504d; stroke: #963634; stroke-width: 0.7; stroke-linejoin: miter"/>
   </g>
   <g id="patch_14">
    <path d="M 635.161654 340.077084 
L 675.02267 340.077084 
L 675.02267 50.802234 
L 635.161654 50.802234 
z
" clip-path="url(#pcf6ec4a851)" style="fill: #c0504d; stroke: #963634; stroke-width: 0.7; stroke-linejoin: miter"/>
   </g>
   <g id="matplotlib.axis_1">
    <g id="xtick_1">
     <g id="line2d_1">
      <defs>
       <path id="mb16dd6828e" d="M 0 0 
L 0 3.5 
" style="stroke: #000000; stroke-width: 0.8"/>
      </defs>
      <g>
       <use xlink:href="#mb16dd6828e" x="110.674596" y="340.077084" style="stroke: #000000; stroke-width: 0.8"/>
      </g>
     </g>
     <g id="text_1">
      <!-- Leelanau, MI -->
      <g transform="translate(57.591014 389.635635) rotate(-35) scale(0.1 -0.1)">
       <defs>
        <path id="DejaVuSans-4c" d="M 628 4666 
L 1259 4666 
L 1259 531 
L 3531 531 
L 3531 0 
L 628 0 
L 628 4666 
z
" transform="scale(0.015625)"/>
        <path id="DejaVuSans-65" d="M 3597 1894 
L 3597 1613 
L 953 1613 
Q 991 1019 1311 708 
Q 1631 397 2203 397 
Q 2534 397 2845 478 
Q 3156 559 3463 722 
L 3463 178 
Q 3153 47 2828 -22 
Q 2503 -91 2169 -91 
Q 1331 -91 842 396 
Q 353 884 353 1716 
Q 353 2575 817 3079 
Q 1281 3584 2069 3584 
Q 2775 3584 3186 3129 
Q 3597 2675 3597 1894 
z
M 3022 2063 
Q 3016 2534 2758 2815 
Q 2500 3097 2075 3097 
Q 1594 3097 1305 2825 
Q 1016 2553 972 2059 
L 3022 2063 
z
" transform="scale(0.015625)"/>
        <path id="DejaVuSans-6c" d="M 603 4863 
L 1178 4863 
L 1178 0 
L 603 0 
L 603 4863 
z
" transform="scale(0.015625)"/>
        <path id="DejaVuSans-61" d="M 2194 1759 
Q 1497 1759 1228 1600 
Q 959 1441 959 1056 
Q 959 750 1161 570 
Q 1363 391 1709 391 
Q 2188 391 2477 730 
Q 2766 1069 2766 1631 
L 2766 1759 
L 2194 1759 
z
M 3341 1997 
L 3341 0 
L 2766 0 
L 2766 531 
Q 2569 213 2275 61 
Q 1981 -91 1556 -91 
Q 1019 -91 701 211 
Q 384 513 384 1019 
Q 384 1609 779 1909 
Q 1175 2209 1959 2209 
L 2766 2209 
L 2766 2266 
Q 2766 2663 2505 2880 
Q 2244 3097 1772 3097 
Q 1472 3097 1187 3025 
Q 903 2953 641 2809 
L 641 3341 
Q 956 3463 1253 3523 
Q 1550 3584 1831 3584 
Q 2591 3584 2966 3190 
Q 3341 2797 3341 1997 
z
" transform="scale(0.015625)"/>
        <path id="DejaVuSans-6e" d="M 3513 2113 
L 3513 0 
L 2938 0 
L 2938 2094 
Q 2938 2591 2744 2837 
Q 2550 3084 2163 3084 
Q 1697 3084 1428 2787 
Q 1159 2491 1159 1978 
L 1159 0 
L 581 0 
L 581 3500 
L 1159 3500 
L 1159 2956 
Q 1366 3272 1645 3428 
Q 1925 3584 2291 3584 
Q 2894 3584 3203 3211 
Q 3513 2838 3513 2113 
z
" transform="scale(0.015625)"/>
        <path id="DejaVuSans-75" d="M 544 1381 
L 544 3500 
L 1119 3500 
L 1119 1403 
Q 1119 906 1312 657 
Q 1506 409 1894 409 
Q 2359 409 2629 706 
Q 2900 1003 2900 1516 
L 2900 3500 
L 3475 3500 
L 3475 0 
L 2900 0 
L 2900 538 
Q 2691 219 2414 64 
Q 2138 -91 1772 -91 
Q 1169 -91 856 284 
Q 544 659 544 1381 
z
M 1991 3584 
L 1991 3584 
z
" transform="scale(0.015625)"/>
        <path id="DejaVuSans-2c" d="M 750 794 
L 1409 794 
L 1409 256 
L 897 -744 
L 494 -744 
L 750 256 
L 750 794 
z
" transform="scale(0.015625)"/>
        <path id="DejaVuSans-20" transform="scale(0.015625)"/>
        <path id="DejaVuSans-4d" d="M 628 4666 
L 1569 4666 
L 2759 1491 
L 3956 4666 
L 4897 4666 
L 4897 0 
L 4281 0 
L 4281 4097 
L 3078 897 
L 2444 897 
L 1241 4097 
L 1241 0 
L 628 0 
L 628 4666 
z
" transform="scale(0.015625)"/>
        <path id="DejaVuSans-49" d="M 628 4666 
L 1259 4666 
L 1259 0 
L 628 0 
L 628 4666 
z
" transform="scale(0.015625)"/>
       </defs>
       <use xlink:href="#DejaVuSans-4c"/>
       <use xlink:href="#DejaVuSans-65" transform="translate(53.962891 0)"/>
       <use xlink:href="#DejaVuSans-65" transform="translate(115.486328 0)"/>
       <use xlink:href="#DejaVuSans-6c" transform="translate(177.009766 0)"/>
       <use xlink:href="#DejaVuSans-61" transform="translate(204.792969 0)"/>
       <use xlink:href="#DejaVuSans-6e" transform="translate(266.072266 0)"/>
       <use xlink:href="#DejaVuSans-61" transform="translate(329.451172 0)"/>
       <use xlink:href="#DejaVuSans-75" transform="translate(390.730469 0)"/>
       <use xlink:href="#DejaVuSans-2c" transform="translate(454.109375 0)"/>
       <use xlink:href="#DejaVuSans-20" transform="translate(485.896484 0)"/>
       <use xlink:href="#DejaVuSans-4d" transform="translate(517.683594 0)"/>
       <use xlink:href="#DejaVuSans-49" transform="translate(603.962891 0)"/>
      </g>
     </g>
    </g>
    <g id="xtick_2">
     <g id="line2d_2">
      <g>
       <use xlink:href="#mb16dd6828e" x="215.572008" y="340.077084" style="stroke: #000000; stroke-width: 0.8"/>
      </g>
     </g>
     <g id="text_2">
      <!-- Washington, RI -->
      <g transform="translate(152.926105 396.331243) rotate(-35) scale(0.1 -0.1)">
       <defs>
        <path id="DejaVuSans-57" d="M 213 4666 
L 850 4666 
L 1831 722 
L 2809 4666 
L 3519 4666 
L 4500 722 
L 5478 4666 
L 6119 4666 
L 4947 0 
L 4153 0 
L 3169 4050 
L 2175 0 
L 1381 0 
L 213 4666 
z
" transform="scale(0.015625)"/>
        <path id="DejaVuSans-73" d="M 2834 3397 
L 2834 2853 
Q 2591 2978 2328 3040 
Q 2066 3103 1784 3103 
Q 1356 3103 1142 2972 
Q 928 2841 928 2578 
Q 928 2378 1081 2264 
Q 1234 2150 1697 2047 
L 1894 2003 
Q 2506 1872 2764 1633 
Q 3022 1394 3022 966 
Q 3022 478 2636 193 
Q 2250 -91 1575 -91 
Q 1294 -91 989 -36 
Q 684 19 347 128 
L 347 722 
Q 666 556 975 473 
Q 1284 391 1588 391 
Q 1994 391 2212 530 
Q 2431 669 2431 922 
Q 2431 1156 2273 1281 
Q 2116 1406 1581 1522 
L 1381 1569 
Q 847 1681 609 1914 
Q 372 2147 372 2553 
Q 372 3047 722 3315 
Q 1072 3584 1716 3584 
Q 2034 3584 2315 3537 
Q 2597 3491 2834 3397 
z
" transform="scale(0.015625)"/>
        <path id="DejaVuSans-68" d="M 3513 2113 
L 3513 0 
L 2938 0 
L 2938 2094 
Q 2938 2591 2744 2837 
Q 2550 3084 2163 3084 
Q 1697 3084 1428 2787 
Q 1159 2491 1159 1978 
L 1159 0 
L 581 0 
L 581 4863 
L 1159 4863 
L 1159 2956 
Q 1366 3272 1645 3428 
Q 1925 3584 2291 3584 
Q 2894 3584 3203 3211 
Q 3513 2838 3513 2113 
z
" transform="scale(0.015625)"/>
        <path id="DejaVuSans-69" d="M 603 3500 
L 1178 3500 
L 1178 0 
L 603 0 
L 603 3500 
z
M 603 4863 
L 1178 4863 
L 1178 4134 
L 603 4134 
L 603 4863 
z
" transform="scale(0.015625)"/>
        <path id="DejaVuSans-67" d="M 2906 1791 
Q 2906 2416 2648 2759 
Q 2391 3103 1925 3103 
Q 1463 3103 1205 2759 
Q 947 2416 947 1791 
Q 947 1169 1205 825 
Q 1463 481 1925 481 
Q 2391 481 2648 825 
Q 2906 1169 2906 1791 
z
M 3481 434 
Q 3481 -459 3084 -895 
Q 2688 -1331 1869 -1331 
Q 1566 -1331 1297 -1286 
Q 1028 -1241 775 -1147 
L 775 -588 
Q 1028 -725 1275 -790 
Q 1522 -856 1778 -856 
Q 2344 -856 2625 -561 
Q 2906 -266 2906 331 
L 2906 616 
Q 2728 306 2450 153 
Q 2172 0 1784 0 
Q 1141 0 747 490 
Q 353 981 353 1791 
Q 353 2603 747 3093 
Q 1141 3584 1784 3584 
Q 2172 3584 2450 3431 
Q 2728 3278 2906 2969 
L 2906 3500 
L 3481 3500 
L 3481 434 
z
" transform="scale(0.015625)"/>
        <path id="DejaVuSans-74" d="M 1172 4494 
L 1172 3500 
L 2356 3500 
L 2356 3053 
L 1172 3053 
L 1172 1153 
Q 1172 725 1289 603 
Q 1406 481 1766 481 
L 2356 481 
L 2356 0 
L 1766 0 
Q 1100 0 847 248 
Q 594 497 594 1153 
L 594 3053 
L 172 3053 
L 172 3500 
L 594 3500 
L 594 4494 
L 1172 4494 
z
" transform="scale(0.015625)"/>
        <path id="DejaVuSans-6f" d="M 1959 3097 
Q 1497 3097 1228 2736 
Q 959 2375 959 1747 
Q 959 1119 1226 758 
Q 1494 397 1959 397 
Q 2419 397 2687 759 
Q 2956 1122 2956 1747 
Q 2956 2369 2687 2733 
Q 2419 3097 1959 3097 
z
M 1959 3584 
Q 2709 3584 3137 3096 
Q 3566 2609 3566 1747 
Q 3566 888 3137 398 
Q 2709 -91 1959 -91 
Q 1206 -91 779 398 
Q 353 888 353 1747 
Q 353 2609 779 3096 
Q 1206 3584 1959 3584 
z
" transform="scale(0.015625)"/>
        <path id="DejaVuSans-52" d="M 2841 2188 
Q 3044 2119 3236 1894 
Q 3428 1669 3622 1275 
L 4263 0 
L 3584 0 
L 2988 1197 
Q 2756 1666 2539 1819 
Q 2322 1972 1947 1972 
L 1259 1972 
L 1259 0 
L 628 0 
L 628 4666 
L 2053 4666 
Q 2853 4666 3247 4331 
Q 3641 3997 3641 3322 
Q 3641 2881 3436 2590 
Q 3231 2300 2841 2188 
z
M 1259 4147 
L 1259 2491 
L 2053 2491 
Q 2509 2491 2742 2702 
Q 2975 2913 2975 3322 
Q 2975 3731 2742 3939 
Q 2509 4147 2053 4147 
L 1259 4147 
z
" transform="scale(0.015625)"/>
       </defs>
       <use xlink:href="#DejaVuSans-57"/>
       <use xlink:href="#DejaVuSans-61" transform="translate(92.501953 0)"/>
       <use xlink:href="#DejaVuSans-73" transform="translate(153.78125 0)"/>
       <use xlink:href="#DejaVuSans-68" transform="translate(205.880859 0)"/>
       <use xlink:href="#DejaVuSans-69" transform="translate(269.259766 0)"/>
       <use xlink:href="#DejaVuSans-6e" transform="translate(297.042969 0)"/>
       <use xlink:href="#DejaVuSans-67" transform="translate(360.421875 0)"/>
       <use xlink:href="#DejaVuSans-74" transform="translate(423.898438 0)"/>
       <use xlink:href="#DejaVuSans-6f" transform="translate(463.107422 0)"/>
       <use xlink:href="#DejaVuSans-6e" transform="translate(524.289062 0)"/>
       <use xlink:href="#DejaVuSans-2c" transform="translate(587.667969 0)"/>
       <use xlink:href="#DejaVuSans-20" transform="translate(619.455078 0)"/>
       <use xlink:href="#DejaVuSans-52" transform="translate(651.242188 0)"/>
       <use xlink:href="#DejaVuSans-49" transform="translate(720.724609 0)"/>
      </g>
     </g>
    </g>
    <g id="xtick_3">
     <g id="line2d_3">
      <g>
       <use xlink:href="#mb16dd6828e" x="320.469419" y="340.077084" style="stroke: #000000; stroke-width: 0.8"/>
      </g>
     </g>
     <g id="text_3">
      <!-- Newport, RI -->
      <g transform="translate(271.302408 386.893222) rotate(-35) scale(0.1 -0.1)">
       <defs>
        <path id="DejaVuSans-4e" d="M 628 4666 
L 1478 4666 
L 3547 763 
L 3547 4666 
L 4159 4666 
L 4159 0 
L 3309 0 
L 1241 3903 
L 1241 0 
L 628 0 
L 628 4666 
z
" transform="scale(0.015625)"/>
        <path id="DejaVuSans-77" d="M 269 3500 
L 844 3500 
L 1563 769 
L 2278 3500 
L 2956 3500 
L 3675 769 
L 4391 3500 
L 4966 3500 
L 4050 0 
L 3372 0 
L 2619 2869 
L 1863 0 
L 1184 0 
L 269 3500 
z
" transform="scale(0.015625)"/>
        <path id="DejaVuSans-70" d="M 1159 525 
L 1159 -1331 
L 581 -1331 
L 581 3500 
L 1159 3500 
L 1159 2969 
Q 1341 3281 1617 3432 
Q 1894 3584 2278 3584 
Q 2916 3584 3314 3078 
Q 3713 2572 3713 1747 
Q 3713 922 3314 415 
Q 2916 -91 2278 -91 
Q 1894 -91 1617 61 
Q 1341 213 1159 525 
z
M 3116 1747 
Q 3116 2381 2855 2742 
Q 2594 3103 2138 3103 
Q 1681 3103 1420 2742 
Q 1159 2381 1159 1747 
Q 1159 1113 1420 752 
Q 1681 391 2138 391 
Q 2594 391 2855 752 
Q 3116 1113 3116 1747 
z
" transform="scale(0.015625)"/>
        <path id="DejaVuSans-72" d="M 2631 2963 
Q 2534 3019 2420 3045 
Q 2306 3072 2169 3072 
Q 1681 3072 1420 2755 
Q 1159 2438 1159 1844 
L 1159 0 
L 581 0 
L 581 3500 
L 1159 3500 
L 1159 2956 
Q 1341 3275 1631 3429 
Q 1922 3584 2338 3584 
Q 2397 3584 2469 3576 
Q 2541 3569 2628 3553 
L 2631 2963 
z
" transform="scale(0.015625)"/>
       </defs>
       <use xlink:href="#DejaVuSans-4e"/>
       <use xlink:href="#DejaVuSans-65" transform="translate(74.804688 0)"/>
       <use xlink:href="#DejaVuSans-77" transform="translate(136.328125 0)"/>
       <use xlink:href="#DejaVuSans-70" transform="translate(218.115234 0)"/>
       <use xlink:href="#DejaVuSans-6f" transform="translate(281.591797 0)"/>
       <use xlink:href="#DejaVuSans-72" transform="translate(342.773438 0)"/>
       <use xlink:href="#DejaVuSans-74" transform="translate(383.886719 0)"/>
       <use xlink:href="#DejaVuSans-2c" transform="translate(423.095703 0)"/>
       <use xlink:href="#DejaVuSans-20" transform="translate(454.882812 0)"/>
       <use xlink:href="#DejaVuSans-52" transform="translate(486.669922 0)"/>
       <use xlink:href="#DejaVuSans-49" transform="translate(556.152344 0)"/>
      </g>
     </g>
    </g>
    <g id="xtick_4">
     <g id="line2d_4">
      <g>
       <use xlink:href="#mb16dd6828e" x="425.366831" y="340.077084" style="stroke: #000000; stroke-width: 0.8"/>
      </g>
     </g>
     <g id="text_4">
      <!-- Falls Church, VA -->
      <g transform="translate(358.895233 399.010025) rotate(-35) scale(0.1 -0.1)">
       <defs>
        <path id="DejaVuSans-46" d="M 628 4666 
L 3309 4666 
L 3309 4134 
L 1259 4134 
L 1259 2759 
L 3109 2759 
L 3109 2228 
L 1259 2228 
L 1259 0 
L 628 0 
L 628 4666 
z
" transform="scale(0.015625)"/>
        <path id="DejaVuSans-43" d="M 4122 4306 
L 4122 3641 
Q 3803 3938 3442 4084 
Q 3081 4231 2675 4231 
Q 1875 4231 1450 3742 
Q 1025 3253 1025 2328 
Q 1025 1406 1450 917 
Q 1875 428 2675 428 
Q 3081 428 3442 575 
Q 3803 722 4122 1019 
L 4122 359 
Q 3791 134 3420 21 
Q 3050 -91 2638 -91 
Q 1578 -91 968 557 
Q 359 1206 359 2328 
Q 359 3453 968 4101 
Q 1578 4750 2638 4750 
Q 3056 4750 3426 4639 
Q 3797 4528 4122 4306 
z
" transform="scale(0.015625)"/>
        <path id="DejaVuSans-63" d="M 3122 3366 
L 3122 2828 
Q 2878 2963 2633 3030 
Q 2388 3097 2138 3097 
Q 1578 3097 1268 2742 
Q 959 2388 959 1747 
Q 959 1106 1268 751 
Q 1578 397 2138 397 
Q 2388 397 2633 464 
Q 2878 531 3122 666 
L 3122 134 
Q 2881 22 2623 -34 
Q 2366 -91 2075 -91 
Q 1284 -91 818 406 
Q 353 903 353 1747 
Q 353 2603 823 3093 
Q 1294 3584 2113 3584 
Q 2378 3584 2631 3529 
Q 2884 3475 3122 3366 
z
" transform="scale(0.015625)"/>
        <path id="DejaVuSans-56" d="M 1831 0 
L 50 4666 
L 709 4666 
L 2188 738 
L 3669 4666 
L 4325 4666 
L 2547 0 
L 1831 0 
z
" transform="scale(0.015625)"/>
        <path id="DejaVuSans-41" d="M 2188 4044 
L 1331 1722 
L 3047 1722 
L 2188 4044 
z
M 1831 4666 
L 2547 4666 
L 4325 0 
L 3669 0 
L 3244 1197 
L 1141 1197 
L 716 0 
L 50 0 
L 1831 4666 
z
" transform="scale(0.015625)"/>
       </defs>
       <use xlink:href="#DejaVuSans-46"/>
       <use xlink:href="#DejaVuSans-61" transform="translate(48.394531 0)"/>
       <use xlink:href="#DejaVuSans-6c" transform="translate(109.673828 0)"/>
       <use xlink:href="#DejaVuSans-6c" transform="translate(137.457031 0)"/>
       <use xlink:href="#DejaVuSans-73" transform="translate(165.240234 0)"/>
       <use xlink:href="#DejaVuSans-20" transform="translate(217.339844 0)"/>
       <use xlink:href="#DejaVuSans-43" transform="translate(249.126953 0)"/>
       <use xlink:href="#DejaVuSans-68" transform="translate(318.951172 0)"/>
       <use xlink:href="#DejaVuSans-75" transform="translate(382.330078 0)"/>
       <use xlink:href="#DejaVuSans-72" transform="translate(445.708984 0)"/>
       <use xlink:href="#DejaVuSans-63" transform="translate(484.572266 0)"/>
       <use xlink:href="#DejaVuSans-68" transform="translate(539.552734 0)"/>
       <use xlink:href="#DejaVuSans-2c" transform="translate(602.931641 0)"/>
       <use xlink:href="#DejaVuSans-20" transform="translate(634.71875 0)"/>
       <use xlink:href="#DejaVuSans-56" transform="translate(666.505859 0)"/>
       <use xlink:href="#DejaVuSans-41" transform="translate(728.539062 0)"/>
      </g>
     </g>
    </g>
    <g id="xtick_5">
     <g id="line2d_5">
      <g>
       <use xlink:href="#mb16dd6828e" x="530.264242" y="340.077084" style="stroke: #000000; stroke-width: 0.8"/>
      </g>
     </g>
     <g id="text_5">
      <!-- Antrim, MI -->
      <g transform="translate(486.75194 382.933752) rotate(-35) scale(0.1 -0.1)">
       <defs>
        <path id="DejaVuSans-6d" d="M 3328 2828 
Q 3544 3216 3844 3400 
Q 4144 3584 4550 3584 
Q 5097 3584 5394 3201 
Q 5691 2819 5691 2113 
L 5691 0 
L 5113 0 
L 5113 2094 
Q 5113 2597 4934 2840 
Q 4756 3084 4391 3084 
Q 3944 3084 3684 2787 
Q 3425 2491 3425 1978 
L 3425 0 
L 2847 0 
L 2847 2094 
Q 2847 2600 2669 2842 
Q 2491 3084 2119 3084 
Q 1678 3084 1418 2786 
Q 1159 2488 1159 1978 
L 1159 0 
L 581 0 
L 581 3500 
L 1159 3500 
L 1159 2956 
Q 1356 3278 1631 3431 
Q 1906 3584 2284 3584 
Q 2666 3584 2933 3390 
Q 3200 3197 3328 2828 
z
" transform="scale(0.015625)"/>
       </defs>
       <use xlink:href="#DejaVuSans-41"/>
       <use xlink:href="#DejaVuSans-6e" transform="translate(68.408203 0)"/>
       <use xlink:href="#DejaVuSans-74" transform="translate(131.787109 0)"/>
       <use xlink:href="#DejaVuSans-72" transform="translate(170.996094 0)"/>
       <use xlink:href="#DejaVuSans-69" transform="translate(212.109375 0)"/>
       <use xlink:href="#DejaVuSans-6d" transform="translate(239.892578 0)"/>
       <use xlink:href="#DejaVuSans-2c" transform="translate(337.304688 0)"/>
       <use xlink:href="#DejaVuSans-20" transform="translate(369.091797 0)"/>
       <use xlink:href="#DejaVuSans-4d" transform="translate(400.878906 0)"/>
       <use xlink:href="#DejaVuSans-49" transform="translate(487.158203 0)"/>
      </g>
     </g>
    </g>
    <g id="xtick_6">
     <g id="line2d_6">
      <g>
       <use xlink:href="#mb16dd6828e" x="635.161654" y="340.077084" style="stroke: #000000; stroke-width: 0.8"/>
      </g>
     </g>
     <g id="text_6">
      <!-- Los Alamos, NM -->
      <g transform="translate(569.104752 398.719651) rotate(-35) scale(0.1 -0.1)">
       <use xlink:href="#DejaVuSans-4c"/>
       <use xlink:href="#DejaVuSans-6f" transform="translate(53.962891 0)"/>
       <use xlink:href="#DejaVuSans-73" transform="translate(115.144531 0)"/>
       <use xlink:href="#DejaVuSans-20" transform="translate(167.244141 0)"/>
       <use xlink:href="#DejaVuSans-41" transform="translate(199.03125 0)"/>
       <use xlink:href="#DejaVuSans-6c" transform="translate(267.439453 0)"/>
       <use xlink:href="#DejaVuSans-61" transform="translate(295.222656 0)"/>
       <use xlink:href="#DejaVuSans-6d" transform="translate(356.501953 0)"/>
       <use xlink:href="#DejaVuSans-6f" transform="translate(453.914062 0)"/>
       <use xlink:href="#DejaVuSans-73" transform="translate(515.095703 0)"/>
       <use xlink:href="#DejaVuSans-2c" transform="translate(567.195312 0)"/>
       <use xlink:href="#DejaVuSans-20" transform="translate(598.982422 0)"/>
       <use xlink:href="#DejaVuSans-4e" transform="translate(630.769531 0)"/>
       <use xlink:href="#DejaVuSans-4d" transform="translate(705.574219 0)"/>
      </g>
     </g>
    </g>
    <g id="text_7">
     <!-- County -->
     <g transform="translate(355.110313 412.312042) scale(0.1 -0.1)">
      <defs>
       <path id="DejaVuSans-79" d="M 2059 -325 
Q 1816 -950 1584 -1140 
Q 1353 -1331 966 -1331 
L 506 -1331 
L 506 -850 
L 844 -850 
Q 1081 -850 1212 -737 
Q 1344 -625 1503 -206 
L 1606 56 
L 191 3500 
L 800 3500 
L 1894 763 
L 2988 3500 
L 3597 3500 
L 2059 -325 
z
" transform="scale(0.015625)"/>
      </defs>
      <use xlink:href="#DejaVuSans-43"/>
      <use xlink:href="#DejaVuSans-6f" transform="translate(69.824219 0)"/>
      <use xlink:href="#DejaVuSans-75" transform="translate(131.005859 0)"/>
      <use xlink:href="#DejaVuSans-6e" transform="translate(194.384766 0)"/>
      <use xlink:href="#DejaVuSans-74" transform="translate(257.763672 0)"/>
      <use xlink:href="#DejaVuSans-79" transform="translate(296.972656 0)"/>
     </g>
    </g>
   </g>
   <g id="matplotlib.axis_2">
    <g id="ytick_1">
     <g id="line2d_7">
      <path d="M 40.603125 340.077084 
L 705.233125 340.077084 
" clip-path="url(#pcf6ec4a851)" style="fill: none; stroke-dasharray: 1.85,0.8; stroke-dashoffset: 0; stroke: #b0b0b0; stroke-opacity: 0.4; stroke-width: 0.5"/>
     </g>
     <g id="line2d_8">
      <defs>
       <path id="m43197c47f9" d="M 0 0 
L -3.5 0 
" style="stroke: #000000; stroke-width: 0.8"/>
      </defs>
      <g>
       <use xlink:href="#m43197c47f9" x="40.603125" y="340.077084" style="stroke: #000000; stroke-width: 0.8"/>
      </g>
     </g>
     <g id="text_8">
      <!-- 0 -->
      <g transform="translate(27.240625 343.876303) scale(0.1 -0.1)">
       <defs>
        <path id="DejaVuSans-30" d="M 2034 4250 
Q 1547 4250 1301 3770 
Q 1056 3291 1056 2328 
Q 1056 1369 1301 889 
Q 1547 409 2034 409 
Q 2525 409 2770 889 
Q 3016 1369 3016 2328 
Q 3016 3291 2770 3770 
Q 2525 4250 2034 4250 
z
M 2034 4750 
Q 2819 4750 3233 4129 
Q 3647 3509 3647 2328 
Q 3647 1150 3233 529 
Q 2819 -91 2034 -91 
Q 1250 -91 836 529 
Q 422 1150 422 2328 
Q 422 3509 836 4129 
Q 1250 4750 2034 4750 
z
" transform="scale(0.015625)"/>
       </defs>
       <use xlink:href="#DejaVuSans-30"/>
      </g>
     </g>
    </g>
    <g id="ytick_2">
     <g id="line2d_9">
      <path d="M 40.603125 303.061748 
L 705.233125 303.061748 
" clip-path="url(#pcf6ec4a851)" style="fill: none; stroke-dasharray: 1.85,0.8; stroke-dashoffset: 0; stroke: #b0b0b0; stroke-opacity: 0.4; stroke-width: 0.5"/>
     </g>
     <g id="line2d_10">
      <g>
       <use xlink:href="#m43197c47f9" x="40.603125" y="303.061748" style="stroke: #000000; stroke-width: 0.8"/>
      </g>
     </g>
     <g id="text_9">
      <!-- 10 -->
      <g transform="translate(20.878125 306.860967) scale(0.1 -0.1)">
       <defs>
        <path id="DejaVuSans-31" d="M 794 531 
L 1825 531 
L 1825 4091 
L 703 3866 
L 703 4441 
L 1819 4666 
L 2450 4666 
L 2450 531 
L 3481 531 
L 3481 0 
L 794 0 
L 794 531 
z
" transform="scale(0.015625)"/>
       </defs>
       <use xlink:href="#DejaVuSans-31"/>
       <use xlink:href="#DejaVuSans-30" transform="translate(63.623047 0)"/>
      </g>
     </g>
    </g>
    <g id="ytick_3">
     <g id="line2d_11">
      <path d="M 40.603125 266.046412 
L 705.233125 266.046412 
" clip-path="url(#pcf6ec4a851)" style="fill: none; stroke-dasharray: 1.85,0.8; stroke-dashoffset: 0; stroke: #b0b0b0; stroke-opacity: 0.4; stroke-width: 0.5"/>
     </g>
     <g id="line2d_12">
      <g>
       <use xlink:href="#m43197c47f9" x="40.603125" y="266.046412" style="stroke: #000000; stroke-width: 0.8"/>
      </g>
     </g>
     <g id="text_10">
      <!-- 20 -->
      <g transform="translate(20.878125 269.845631) scale(0.1 -0.1)">
       <defs>
        <path id="DejaVuSans-32" d="M 1228 531 
L 3431 531 
L 3431 0 
L 469 0 
L 469 531 
Q 828 903 1448 1529 
Q 2069 2156 2228 2338 
Q 2531 2678 2651 2914 
Q 2772 3150 2772 3378 
Q 2772 3750 2511 3984 
Q 2250 4219 1831 4219 
Q 1534 4219 1204 4116 
Q 875 4013 500 3803 
L 500 4441 
Q 881 4594 1212 4672 
Q 1544 4750 1819 4750 
Q 2544 4750 2975 4387 
Q 3406 4025 3406 3419 
Q 3406 3131 3298 2873 
Q 3191 2616 2906 2266 
Q 2828 2175 2409 1742 
Q 1991 1309 1228 531 
z
" transform="scale(0.015625)"/>
       </defs>
       <use xlink:href="#DejaVuSans-32"/>
       <use xlink:href="#DejaVuSans-30" transform="translate(63.623047 0)"/>
      </g>
     </g>
    </g>
    <g id="ytick_4">
     <g id="line2d_13">
      <path d="M 40.603125 229.031076 
L 705.233125 229.031076 
" clip-path="url(#pcf6ec4a851)" style="fill: none; stroke-dasharray: 1.85,0.8; stroke-dashoffset: 0; stroke: #b0b0b0; stroke-opacity: 0.4; stroke-width: 0.5"/>
     </g>
     <g id="line2d_14">
      <g>
       <use xlink:href="#m43197c47f9" x="40.603125" y="229.031076" style="stroke: #000000; stroke-width: 0.8"/>
      </g>
     </g>
     <g id="text_11">
      <!-- 30 -->
      <g transform="translate(20.878125 232.830295) scale(0.1 -0.1)">
       <defs>
        <path id="DejaVuSans-33" d="M 2597 2516 
Q 3050 2419 3304 2112 
Q 3559 1806 3559 1356 
Q 3559 666 3084 287 
Q 2609 -91 1734 -91 
Q 1441 -91 1130 -33 
Q 819 25 488 141 
L 488 750 
Q 750 597 1062 519 
Q 1375 441 1716 441 
Q 2309 441 2620 675 
Q 2931 909 2931 1356 
Q 2931 1769 2642 2001 
Q 2353 2234 1838 2234 
L 1294 2234 
L 1294 2753 
L 1863 2753 
Q 2328 2753 2575 2939 
Q 2822 3125 2822 3475 
Q 2822 3834 2567 4026 
Q 2313 4219 1838 4219 
Q 1578 4219 1281 4162 
Q 984 4106 628 3988 
L 628 4550 
Q 988 4650 1302 4700 
Q 1616 4750 1894 4750 
Q 2613 4750 3031 4423 
Q 3450 4097 3450 3541 
Q 3450 3153 3228 2886 
Q 3006 2619 2597 2516 
z
" transform="scale(0.015625)"/>
       </defs>
       <use xlink:href="#DejaVuSans-33"/>
       <use xlink:href="#DejaVuSans-30" transform="translate(63.623047 0)"/>
      </g>
     </g>
    </g>
    <g id="ytick_5">
     <g id="line2d_15">
      <path d="M 40.603125 192.015741 
L 705.233125 192.015741 
" clip-path="url(#pcf6ec4a851)" style="fill: none; stroke-dasharray: 1.85,0.8; stroke-dashoffset: 0; stroke: #b0b0b0; stroke-opacity: 0.4; stroke-width: 0.5"/>
     </g>
     <g id="line2d_16">
      <g>
       <use xlink:href="#m43197c47f9" x="40.603125" y="192.015741" style="stroke: #000000; stroke-width: 0.8"/>
      </g>
     </g>
     <g id="text_12">
      <!-- 40 -->
      <g transform="translate(20.878125 195.814959) scale(0.1 -0.1)">
       <defs>
        <path id="DejaVuSans-34" d="M 2419 4116 
L 825 1625 
L 2419 1625 
L 2419 4116 
z
M 2253 4666 
L 3047 4666 
L 3047 1625 
L 3713 1625 
L 3713 1100 
L 3047 1100 
L 3047 0 
L 2419 0 
L 2419 1100 
L 313 1100 
L 313 1709 
L 2253 4666 
z
" transform="scale(0.015625)"/>
       </defs>
       <use xlink:href="#DejaVuSans-34"/>
       <use xlink:href="#DejaVuSans-30" transform="translate(63.623047 0)"/>
      </g>
     </g>
    </g>
    <g id="ytick_6">
     <g id="line2d_17">
      <path d="M 40.603125 155.000405 
L 705.233125 155.000405 
" clip-path="url(#pcf6ec4a851)" style="fill: none; stroke-dasharray: 1.85,0.8; stroke-dashoffset: 0; stroke: #b0b0b0; stroke-opacity: 0.4; stroke-width: 0.5"/>
     </g>
     <g id="line2d_18">
      <g>
       <use xlink:href="#m43197c47f9" x="40.603125" y="155.000405" style="stroke: #000000; stroke-width: 0.8"/>
      </g>
     </g>
     <g id="text_13">
      <!-- 50 -->
      <g transform="translate(20.878125 158.799623) scale(0.1 -0.1)">
       <defs>
        <path id="DejaVuSans-35" d="M 691 4666 
L 3169 4666 
L 3169 4134 
L 1269 4134 
L 1269 2991 
Q 1406 3038 1543 3061 
Q 1681 3084 1819 3084 
Q 2600 3084 3056 2656 
Q 3513 2228 3513 1497 
Q 3513 744 3044 326 
Q 2575 -91 1722 -91 
Q 1428 -91 1123 -41 
Q 819 9 494 109 
L 494 744 
Q 775 591 1075 516 
Q 1375 441 1709 441 
Q 2250 441 2565 725 
Q 2881 1009 2881 1497 
Q 2881 1984 2565 2268 
Q 2250 2553 1709 2553 
Q 1456 2553 1204 2497 
Q 953 2441 691 2322 
L 691 4666 
z
" transform="scale(0.015625)"/>
       </defs>
       <use xlink:href="#DejaVuSans-35"/>
       <use xlink:href="#DejaVuSans-30" transform="translate(63.623047 0)"/>
      </g>
     </g>
    </g>
    <g id="ytick_7">
     <g id="line2d_19">
      <path d="M 40.603125 117.985069 
L 705.233125 117.985069 
" clip-path="url(#pcf6ec4a851)" style="fill: none; stroke-dasharray: 1.85,0.8; stroke-dashoffset: 0; stroke: #b0b0b0; stroke-opacity: 0.4; stroke-width: 0.5"/>
     </g>
     <g id="line2d_20">
      <g>
       <use xlink:href="#m43197c47f9" x="40.603125" y="117.985069" style="stroke: #000000; stroke-width: 0.8"/>
      </g>
     </g>
     <g id="text_14">
      <!-- 60 -->
      <g transform="translate(20.878125 121.784287) scale(0.1 -0.1)">
       <defs>
        <path id="DejaVuSans-36" d="M 2113 2584 
Q 1688 2584 1439 2293 
Q 1191 2003 1191 1497 
Q 1191 994 1439 701 
Q 1688 409 2113 409 
Q 2538 409 2786 701 
Q 3034 994 3034 1497 
Q 3034 2003 2786 2293 
Q 2538 2584 2113 2584 
z
M 3366 4563 
L 3366 3988 
Q 3128 4100 2886 4159 
Q 2644 4219 2406 4219 
Q 1781 4219 1451 3797 
Q 1122 3375 1075 2522 
Q 1259 2794 1537 2939 
Q 1816 3084 2150 3084 
Q 2853 3084 3261 2657 
Q 3669 2231 3669 1497 
Q 3669 778 3244 343 
Q 2819 -91 2113 -91 
Q 1303 -91 875 529 
Q 447 1150 447 2328 
Q 447 3434 972 4092 
Q 1497 4750 2381 4750 
Q 2619 4750 2861 4703 
Q 3103 4656 3366 4563 
z
" transform="scale(0.015625)"/>
       </defs>
       <use xlink:href="#DejaVuSans-36"/>
       <use xlink:href="#DejaVuSans-30" transform="translate(63.623047 0)"/>
      </g>
     </g>
    </g>
    <g id="ytick_8">
     <g id="line2d_21">
      <path d="M 40.603125 80.969733 
L 705.233125 80.969733 
" clip-path="url(#pcf6ec4a851)" style="fill: none; stroke-dasharray: 1.85,0.8; stroke-dashoffset: 0; stroke: #b0b0b0; stroke-opacity: 0.4; stroke-width: 0.5"/>
     </g>
     <g id="line2d_22">
      <g>
       <use xlink:href="#m43197c47f9" x="40.603125" y="80.969733" style="stroke: #000000; stroke-width: 0.8"/>
      </g>
     </g>
     <g id="text_15">
      <!-- 70 -->
      <g transform="translate(20.878125 84.768952) scale(0.1 -0.1)">
       <defs>
        <path id="DejaVuSans-37" d="M 525 4666 
L 3525 4666 
L 3525 4397 
L 1831 0 
L 1172 0 
L 2766 4134 
L 525 4134 
L 525 4666 
z
" transform="scale(0.015625)"/>
       </defs>
       <use xlink:href="#DejaVuSans-37"/>
       <use xlink:href="#DejaVuSans-30" transform="translate(63.623047 0)"/>
      </g>
     </g>
    </g>
    <g id="ytick_9">
     <g id="line2d_23">
      <path d="M 40.603125 43.954397 
L 705.233125 43.954397 
" clip-path="url(#pcf6ec4a851)" style="fill: none; stroke-dasharray: 1.85,0.8; stroke-dashoffset: 0; stroke: #b0b0b0; stroke-opacity: 0.4; stroke-width: 0.5"/>
     </g>
     <g id="line2d_24">
      <g>
       <use xlink:href="#m43197c47f9" x="40.603125" y="43.954397" style="stroke: #000000; stroke-width: 0.8"/>
      </g>
     </g>
     <g id="text_16">
      <!-- 80 -->
      <g transform="translate(20.878125 47.753616) scale(0.1 -0.1)">
       <defs>
        <path id="DejaVuSans-38" d="M 2034 2216 
Q 1584 2216 1326 1975 
Q 1069 1734 1069 1313 
Q 1069 891 1326 650 
Q 1584 409 2034 409 
Q 2484 409 2743 651 
Q 3003 894 3003 1313 
Q 3003 1734 2745 1975 
Q 2488 2216 2034 2216 
z
M 1403 2484 
Q 997 2584 770 2862 
Q 544 3141 544 3541 
Q 544 4100 942 4425 
Q 1341 4750 2034 4750 
Q 2731 4750 3128 4425 
Q 3525 4100 3525 3541 
Q 3525 3141 3298 2862 
Q 3072 2584 2669 2484 
Q 3125 2378 3379 2068 
Q 3634 1759 3634 1313 
Q 3634 634 3220 271 
Q 2806 -91 2034 -91 
Q 1263 -91 848 271 
Q 434 634 434 1313 
Q 434 1759 690 2068 
Q 947 2378 1403 2484 
z
M 1172 3481 
Q 1172 3119 1398 2916 
Q 1625 2713 2034 2713 
Q 2441 2713 2670 2916 
Q 2900 3119 2900 3481 
Q 2900 3844 2670 4047 
Q 2441 4250 2034 4250 
Q 1625 4250 1398 4047 
Q 1172 3844 1172 3481 
z
" transform="scale(0.015625)"/>
       </defs>
       <use xlink:href="#DejaVuSans-38"/>
       <use xlink:href="#DejaVuSans-30" transform="translate(63.623047 0)"/>
      </g>
     </g>
    </g>
    <g id="text_17">
     <!-- Percentage -->
     <g transform="translate(14.798438 216.038948) rotate(-90) scale(0.1 -0.1)">
      <defs>
       <path id="DejaVuSans-50" d="M 1259 4147 
L 1259 2394 
L 2053 2394 
Q 2494 2394 2734 2622 
Q 2975 2850 2975 3272 
Q 2975 3691 2734 3919 
Q 2494 4147 2053 4147 
L 1259 4147 
z
M 628 4666 
L 2053 4666 
Q 2838 4666 3239 4311 
Q 3641 3956 3641 3272 
Q 3641 2581 3239 2228 
Q 2838 1875 2053 1875 
L 1259 1875 
L 1259 0 
L 628 0 
L 628 4666 
z
" transform="scale(0.015625)"/>
      </defs>
      <use xlink:href="#DejaVuSans-50"/>
      <use xlink:href="#DejaVuSans-65" transform="translate(56.677734 0)"/>
      <use xlink:href="#DejaVuSans-72" transform="translate(118.201172 0)"/>
      <use xlink:href="#DejaVuSans-63" transform="translate(157.064453 0)"/>
      <use xlink:href="#DejaVuSans-65" transform="translate(212.044922 0)"/>
      <use xlink:href="#DejaVuSans-6e" transform="translate(273.568359 0)"/>
      <use xlink:href="#DejaVuSans-74" transform="translate(336.947266 0)"/>
      <use xlink:href="#DejaVuSans-61" transform="translate(376.15625 0)"/>
      <use xlink:href="#DejaVuSans-67" transform="translate(437.435547 0)"/>
      <use xlink:href="#DejaVuSans-65" transform="translate(500.912109 0)"/>
     </g>
    </g>
   </g>
   <g id="patch_15">
    <path d="M 40.603125 340.077084 
L 40.603125 35.7555 
" style="fill: none; stroke: #000000; stroke-width: 0.8; stroke-linejoin: miter; stroke-linecap: square"/>
   </g>
   <g id="patch_16">
    <path d="M 40.603125 340.077084 
L 705.233125 340.077084 
" style="fill: none; stroke: #000000; stroke-width: 0.8; stroke-linejoin: miter; stroke-linecap: square"/>
   </g>
   <g id="text_18">
    <!-- County comparison: Chronic obstructive pulmonary disease among adults -->
    <g transform="translate(150.277813 16.318125) scale(0.12 -0.12)">
     <defs>
      <path id="DejaVuSans-3a" d="M 750 794 
L 1409 794 
L 1409 0 
L 750 0 
L 750 794 
z
M 750 3309 
L 1409 3309 
L 1409 2516 
L 750 2516 
L 750 3309 
z
" transform="scale(0.015625)"/>
      <path id="DejaVuSans-62" d="M 3116 1747 
Q 3116 2381 2855 2742 
Q 2594 3103 2138 3103 
Q 1681 3103 1420 2742 
Q 1159 2381 1159 1747 
Q 1159 1113 1420 752 
Q 1681 391 2138 391 
Q 2594 391 2855 752 
Q 3116 1113 3116 1747 
z
M 1159 2969 
Q 1341 3281 1617 3432 
Q 1894 3584 2278 3584 
Q 2916 3584 3314 3078 
Q 3713 2572 3713 1747 
Q 3713 922 3314 415 
Q 2916 -91 2278 -91 
Q 1894 -91 1617 61 
Q 1341 213 1159 525 
L 1159 0 
L 581 0 
L 581 4863 
L 1159 4863 
L 1159 2969 
z
" transform="scale(0.015625)"/>
      <path id="DejaVuSans-76" d="M 191 3500 
L 800 3500 
L 1894 563 
L 2988 3500 
L 3597 3500 
L 2284 0 
L 1503 0 
L 191 3500 
z
" transform="scale(0.015625)"/>
      <path id="DejaVuSans-64" d="M 2906 2969 
L 2906 4863 
L 3481 4863 
L 3481 0 
L 2906 0 
L 2906 525 
Q 2725 213 2448 61 
Q 2172 -91 1784 -91 
Q 1150 -91 751 415 
Q 353 922 353 1747 
Q 353 2572 751 3078 
Q 1150 3584 1784 3584 
Q 2172 3584 2448 3432 
Q 2725 3281 2906 2969 
z
M 947 1747 
Q 947 1113 1208 752 
Q 1469 391 1925 391 
Q 2381 391 2643 752 
Q 2906 1113 2906 1747 
Q 2906 2381 2643 2742 
Q 2381 3103 1925 3103 
Q 1469 3103 1208 2742 
Q 947 2381 947 1747 
z
" transform="scale(0.015625)"/>
     </defs>
     <use xlink:href="#DejaVuSans-43"/>
     <use xlink:href="#DejaVuSans-6f" transform="translate(69.824219 0)"/>
     <use xlink:href="#DejaVuSans-75" transform="translate(131.005859 0)"/>
     <use xlink:href="#DejaVuSans-6e" transform="translate(194.384766 0)"/>
     <use xlink:href="#DejaVuSans-74" transform="translate(257.763672 0)"/>
     <use xlink:href="#DejaVuSans-79" transform="translate(296.972656 0)"/>
     <use xlink:href="#DejaVuSans-20" transform="translate(356.152344 0)"/>
     <use xlink:href="#DejaVuSans-63" transform="translate(387.939453 0)"/>
     <use xlink:href="#DejaVuSans-6f" transform="translate(442.919922 0)"/>
     <use xlink:href="#DejaVuSans-6d" transform="translate(504.101562 0)"/>
     <use xlink:href="#DejaVuSans-70" transform="translate(601.513672 0)"/>
     <use xlink:href="#DejaVuSans-61" transform="translate(664.990234 0)"/>
     <use xlink:href="#DejaVuSans-72" transform="translate(726.269531 0)"/>
     <use xlink:href="#DejaVuSans-69" transform="translate(767.382812 0)"/>
     <use xlink:href="#DejaVuSans-73" transform="translate(795.166016 0)"/>
     <use xlink:href="#DejaVuSans-6f" transform="translate(847.265625 0)"/>
     <use xlink:href="#DejaVuSans-6e" transform="translate(908.447266 0)"/>
     <use xlink:href="#DejaVuSans-3a" transform="translate(971.826172 0)"/>
     <use xlink:href="#DejaVuSans-20" transform="translate(1005.517578 0)"/>
     <use xlink:href="#DejaVuSans-43" transform="translate(1037.304688 0)"/>
     <use xlink:href="#DejaVuSans-68" transform="translate(1107.128906 0)"/>
     <use xlink:href="#DejaVuSans-72" transform="translate(1170.507812 0)"/>
     <use xlink:href="#DejaVuSans-6f" transform="translate(1209.371094 0)"/>
     <use xlink:href="#DejaVuSans-6e" transform="translate(1270.552734 0)"/>
     <use xlink:href="#DejaVuSans-69" transform="translate(1333.931641 0)"/>
     <use xlink:href="#DejaVuSans-63" transform="translate(1361.714844 0)"/>
     <use xlink:href="#DejaVuSans-20" transform="translate(1416.695312 0)"/>
     <use xlink:href="#DejaVuSans-6f" transform="translate(1448.482422 0)"/>
     <use xlink:href="#DejaVuSans-62" transform="translate(1509.664062 0)"/>
     <use xlink:href="#DejaVuSans-73" transform="translate(1573.140625 0)"/>
     <use xlink:href="#DejaVuSans-74" transform="translate(1625.240234 0)"/>
     <use xlink:href="#DejaVuSans-72" transform="translate(1664.449219 0)"/>
     <use xlink:href="#DejaVuSans-75" transform="translate(1705.5625 0)"/>
     <use xlink:href="#DejaVuSans-63" transform="translate(1768.941406 0)"/>
     <use xlink:href="#DejaVuSans-74" transform="translate(1823.921875 0)"/>
     <use xlink:href="#DejaVuSans-69" transform="translate(1863.130859 0)"/>
     <use xlink:href="#DejaVuSans-76" transform="translate(1890.914062 0)"/>
     <use xlink:href="#DejaVuSans-65" transform="translate(1950.09375 0)"/>
     <use xlink:href="#DejaVuSans-20" transform="translate(2011.617188 0)"/>
     <use xlink:href="#DejaVuSans-70" transform="translate(2043.404297 0)"/>
     <use xlink:href="#DejaVuSans-75" transform="translate(2106.880859 0)"/>
     <use xlink:href="#DejaVuSans-6c" transform="translate(2170.259766 0)"/>
     <use xlink:href="#DejaVuSans-6d" transform="translate(2198.042969 0)"/>
     <use xlink:href="#DejaVuSans-6f" transform="translate(2295.455078 0)"/>
     <use xlink:href="#DejaVuSans-6e" transform="translate(2356.636719 0)"/>
     <use xlink:href="#DejaVuSans-61" transform="translate(2420.015625 0)"/>
     <use xlink:href="#DejaVuSans-72" transform="translate(2481.294922 0)"/>
     <use xlink:href="#DejaVuSans-79" transform="translate(2522.408203 0)"/>
     <use xlink:href="#DejaVuSans-20" transform="translate(2581.587891 0)"/>
     <use xlink:href="#DejaVuSans-64" transform="translate(2613.375 0)"/>
     <use xlink:href="#DejaVuSans-69" transform="translate(2676.851562 0)"/>
     <use xlink:href="#DejaVuSans-73" transform="translate(2704.634766 0)"/>
     <use xlink:href="#DejaVuSans-65" transform="translate(2756.734375 0)"/>
     <use xlink:href="#DejaVuSans-61" transform="translate(2818.257812 0)"/>
     <use xlink:href="#DejaVuSans-73" transform="translate(2879.537109 0)"/>
     <use xlink:href="#DejaVuSans-65" transform="translate(2931.636719 0)"/>
     <use xlink:href="#DejaVuSans-20" transform="translate(2993.160156 0)"/>
     <use xlink:href="#DejaVuSans-61" transform="translate(3024.947266 0)"/>
     <use xlink:href="#DejaVuSans-6d" transform="translate(3086.226562 0)"/>
     <use xlink:href="#DejaVuSans-6f" transform="translate(3183.638672 0)"/>
     <use xlink:href="#DejaVuSans-6e" transform="translate(3244.820312 0)"/>
     <use xlink:href="#DejaVuSans-67" transform="translate(3308.199219 0)"/>
     <use xlink:href="#DejaVuSans-20" transform="translate(3371.675781 0)"/>
     <use xlink:href="#DejaVuSans-61" transform="translate(3403.462891 0)"/>
     <use xlink:href="#DejaVuSans-64" transform="translate(3464.742188 0)"/>
     <use xlink:href="#DejaVuSans-75" transform="translate(3528.21875 0)"/>
     <use xlink:href="#DejaVuSans-6c" transform="translate(3591.597656 0)"/>
     <use xlink:href="#DejaVuSans-74" transform="translate(3619.380859 0)"/>
     <use xlink:href="#DejaVuSans-73" transform="translate(3658.589844 0)"/>
    </g>
    <!-- vs Visited dentist or dental clinic in the past year among adults -->
    <g transform="translate(182.741563 29.7555) scale(0.12 -0.12)">
     <use xlink:href="#DejaVuSans-76"/>
     <use xlink:href="#DejaVuSans-73" transform="translate(59.179688 0)"/>
     <use xlink:href="#DejaVuSans-20" transform="translate(111.279297 0)"/>
     <use xlink:href="#DejaVuSans-56" transform="translate(143.066406 0)"/>
     <use xlink:href="#DejaVuSans-69" transform="translate(209.224609 0)"/>
     <use xlink:href="#DejaVuSans-73" transform="translate(237.007812 0)"/>
     <use xlink:href="#DejaVuSans-69" transform="translate(289.107422 0)"/>
     <use xlink:href="#DejaVuSans-74" transform="translate(316.890625 0)"/>
     <use xlink:href="#DejaVuSans-65" transform="translate(356.099609 0)"/>
     <use xlink:href="#DejaVuSans-64" transform="translate(417.623047 0)"/>
     <use xlink:href="#DejaVuSans-20" transform="translate(481.099609 0)"/>
     <use xlink:href="#DejaVuSans-64" transform="translate(512.886719 0)"/>
     <use xlink:href="#DejaVuSans-65" transform="translate(576.363281 0)"/>
     <use xlink:href="#DejaVuSans-6e" transform="translate(637.886719 0)"/>
     <use xlink:href="#DejaVuSans-74" transform="translate(701.265625 0)"/>
     <use xlink:href="#DejaVuSans-69" transform="translate(740.474609 0)"/>
     <use xlink:href="#DejaVuSans-73" transform="translate(768.257812 0)"/>
     <use xlink:href="#DejaVuSans-74" transform="translate(820.357422 0)"/>
     <use xlink:href="#DejaVuSans-20" transform="translate(859.566406 0)"/>
     <use xlink:href="#DejaVuSans-6f" transform="translate(891.353516 0)"/>
     <use xlink:href="#DejaVuSans-72" transform="translate(952.535156 0)"/>
     <use xlink:href="#DejaVuSans-20" transform="translate(993.648438 0)"/>
     <use xlink:href="#DejaVuSans-64" transform="translate(1025.435547 0)"/>
     <use xlink:href="#DejaVuSans-65" transform="translate(1088.912109 0)"/>
     <use xlink:href="#DejaVuSans-6e" transform="translate(1150.435547 0)"/>
     <use xlink:href="#DejaVuSans-74" transform="translate(1213.814453 0)"/>
     <use xlink:href="#DejaVuSans-61" transform="translate(1253.023438 0)"/>
     <use xlink:href="#DejaVuSans-6c" transform="translate(1314.302734 0)"/>
     <use xlink:href="#DejaVuSans-20" transform="translate(1342.085938 0)"/>
     <use xlink:href="#DejaVuSans-63" transform="translate(1373.873047 0)"/>
     <use xlink:href="#DejaVuSans-6c" transform="translate(1428.853516 0)"/>
     <use xlink:href="#DejaVuSans-69" transform="translate(1456.636719 0)"/>
     <use xlink:href="#DejaVuSans-6e" transform="translate(1484.419922 0)"/>
     <use xlink:href="#DejaVuSans-69" transform="translate(1547.798828 0)"/>
     <use xlink:href="#DejaVuSans-63" transform="translate(1575.582031 0)"/>
     <use xlink:href="#DejaVuSans-20" transform="translate(1630.5625 0)"/>
     <use xlink:href="#DejaVuSans-69" transform="translate(1662.349609 0)"/>
     <use xlink:href="#DejaVuSans-6e" transform="translate(1690.132812 0)"/>
     <use xlink:href="#DejaVuSans-20" transform="translate(1753.511719 0)"/>
     <use xlink:href="#DejaVuSans-74" transform="translate(1785.298828 0)"/>
     <use xlink:href="#DejaVuSans-68" transform="translate(1824.507812 0)"/>
     <use xlink:href="#DejaVuSans-65" transform="translate(1887.886719 0)"/>
     <use xlink:href="#DejaVuSans-20" transform="translate(1949.410156 0)"/>
     <use xlink:href="#DejaVuSans-70" transform="translate(1981.197266 0)"/>
     <use xlink:href="#DejaVuSans-61" transform="translate(2044.673828 0)"/>
     <use xlink:href="#DejaVuSans-73" transform="translate(2105.953125 0)"/>
     <use xlink:href="#DejaVuSans-74" transform="translate(2158.052734 0)"/>
     <use xlink:href="#DejaVuSans-20" transform="translate(2197.261719 0)"/>
     <use xlink:href="#DejaVuSans-79" transform="translate(2229.048828 0)"/>
     <use xlink:href="#DejaVuSans-65" transform="translate(2288.228516 0)"/>
     <use xlink:href="#DejaVuSans-61" transform="translate(2349.751953 0)"/>
     <use xlink:href="#DejaVuSans-72" transform="translate(2411.03125 0)"/>
     <use xlink:href="#DejaVuSans-20" transform="translate(2452.144531 0)"/>
     <use xlink:href="#DejaVuSans-61" transform="translate(2483.931641 0)"/>
     <use xlink:href="#DejaVuSans-6d" transform="translate(2545.210938 0)"/>
     <use xlink:href="#DejaVuSans-6f" transform="translate(2642.623047 0)"/>
     <use xlink:href="#DejaVuSans-6e" transform="translate(2703.804688 0)"/>
     <use xlink:href="#DejaVuSans-67" transform="translate(2767.183594 0)"/>
     <use xlink:href="#DejaVuSans-20" transform="translate(2830.660156 0)"/>
     <use xlink:href="#DejaVuSans-61" transform="translate(2862.447266 0)"/>
     <use xlink:href="#DejaVuSans-64" transform="translate(2923.726562 0)"/>
     <use xlink:href="#DejaVuSans-75" transform="translate(2987.203125 0)"/>
     <use xlink:href="#DejaVuSans-6c" transform="translate(3050.582031 0)"/>
     <use xlink:href="#DejaVuSans-74" transform="translate(3078.365234 0)"/>
     <use xlink:href="#DejaVuSans-73" transform="translate(3117.574219 0)"/>
    </g>
   </g>
   <g id="legend_1">
    <g id="patch_17">
     <path d="M 365.578438 52.353937 
L 385.578438 52.353937 
L 385.578438 45.353937 
L 365.578438 45.353937 
z
" style="fill: #4f81bd; stroke: #385d8a; stroke-width: 0.7; stroke-linejoin: miter"/>
    </g>
    <g id="text_19">
     <!-- Chronic obstructive pulmonary disease among adults -->
     <g transform="translate(393.578438 52.353937) scale(0.1 -0.1)">
      <use xlink:href="#DejaVuSans-43"/>
      <use xlink:href="#DejaVuSans-68" transform="translate(69.824219 0)"/>
      <use xlink:href="#DejaVuSans-72" transform="translate(133.203125 0)"/>
      <use xlink:href="#DejaVuSans-6f" transform="translate(172.066406 0)"/>
      <use xlink:href="#DejaVuSans-6e" transform="translate(233.248047 0)"/>
      <use xlink:href="#DejaVuSans-69" transform="translate(296.626953 0)"/>
      <use xlink:href="#DejaVuSans-63" transform="translate(324.410156 0)"/>
      <use xlink:href="#DejaVuSans-20" transform="translate(379.390625 0)"/>
      <use xlink:href="#DejaVuSans-6f" transform="translate(411.177734 0)"/>
      <use xlink:href="#DejaVuSans-62" transform="translate(472.359375 0)"/>
      <use xlink:href="#DejaVuSans-73" transform="translate(535.835938 0)"/>
      <use xlink:href="#DejaVuSans-74" transform="translate(587.935547 0)"/>
      <use xlink:href="#DejaVuSans-72" transform="translate(627.144531 0)"/>
      <use xlink:href="#DejaVuSans-75" transform="translate(668.257812 0)"/>
      <use xlink:href="#DejaVuSans-63" transform="translate(731.636719 0)"/>
      <use xlink:href="#DejaVuSans-74" transform="translate(786.617188 0)"/>
      <use xlink:href="#DejaVuSans-69" transform="translate(825.826172 0)"/>
      <use xlink:href="#DejaVuSans-76" transform="translate(853.609375 0)"/>
      <use xlink:href="#DejaVuSans-65" transform="translate(912.789062 0)"/>
      <use xlink:href="#DejaVuSans-20" transform="translate(974.3125 0)"/>
      <use xlink:href="#DejaVuSans-70" transform="translate(1006.099609 0)"/>
      <use xlink:href="#DejaVuSans-75" transform="translate(1069.576172 0)"/>
      <use xlink:href="#DejaVuSans-6c" transform="translate(1132.955078 0)"/>
      <use xlink:href="#DejaVuSans-6d" transform="translate(1160.738281 0)"/>
      <use xlink:href="#DejaVuSans-6f" transform="translate(1258.150391 0)"/>
      <use xlink:href="#DejaVuSans-6e" transform="translate(1319.332031 0)"/>
      <use xlink:href="#DejaVuSans-61" transform="translate(1382.710938 0)"/>
      <use xlink:href="#DejaVuSans-72" transform="translate(1443.990234 0)"/>
      <use xlink:href="#DejaVuSans-79" transform="translate(1485.103516 0)"/>
      <use xlink:href="#DejaVuSans-20" transform="translate(1544.283203 0)"/>
      <use xlink:href="#DejaVuSans-64" transform="translate(1576.070312 0)"/>
      <use xlink:href="#DejaVuSans-69" transform="translate(1639.546875 0)"/>
      <use xlink:href="#DejaVuSans-73" transform="translate(1667.330078 0)"/>
      <use xlink:href="#DejaVuSans-65" transform="translate(1719.429688 0)"/>
      <use xlink:href="#DejaVuSans-61" transform="translate(1780.953125 0)"/>
      <use xlink:href="#DejaVuSans-73" transform="translate(1842.232422 0)"/>
      <use xlink:href="#DejaVuSans-65" transform="translate(1894.332031 0)"/>
      <use xlink:href="#DejaVuSans-20" transform="translate(1955.855469 0)"/>
      <use xlink:href="#DejaVuSans-61" transform="translate(1987.642578 0)"/>
      <use xlink:href="#DejaVuSans-6d" transform="translate(2048.921875 0)"/>
      <use xlink:href="#DejaVuSans-6f" transform="translate(2146.333984 0)"/>
      <use xlink:href="#DejaVuSans-6e" transform="translate(2207.515625 0)"/>
      <use xlink:href="#DejaVuSans-67" transform="translate(2270.894531 0)"/>
      <use xlink:href="#DejaVuSans-20" transform="translate(2334.371094 0)"/>
      <use xlink:href="#DejaVuSans-61" transform="translate(2366.158203 0)"/>
      <use xlink:href="#DejaVuSans-64" transform="translate(2427.4375 0)"/>
      <use xlink:href="#DejaVuSans-75" transform="translate(2490.914062 0)"/>
      <use xlink:href="#DejaVuSans-6c" transform="translate(2554.292969 0)"/>
      <use xlink:href="#DejaVuSans-74" transform="translate(2582.076172 0)"/>
      <use xlink:href="#DejaVuSans-73" transform="translate(2621.285156 0)"/>
     </g>
    </g>
    <g id="patch_18">
     <path d="M 365.578438 67.032062 
L 385.578438 67.032062 
L 385.578438 60.032062 
L 365.578438 60.032062 
z
" style="fill: #c0504d; stroke: #963634; stroke-width: 0.7; stroke-linejoin: miter"/>
    </g>
    <g id="text_20">
     <!-- Visited dentist or dental clinic in the past year among adults -->
     <g transform="translate(393.578438 67.032062) scale(0.1 -0.1)">
      <use xlink:href="#DejaVuSans-56"/>
      <use xlink:href="#DejaVuSans-69" transform="translate(66.158203 0)"/>
      <use xlink:href="#DejaVuSans-73" transform="translate(93.941406 0)"/>
      <use xlink:href="#DejaVuSans-69" transform="translate(146.041016 0)"/>
      <use xlink:href="#DejaVuSans-74" transform="translate(173.824219 0)"/>
      <use xlink:href="#DejaVuSans-65" transform="translate(213.033203 0)"/>
      <use xlink:href="#DejaVuSans-64" transform="translate(274.556641 0)"/>
      <use xlink:href="#DejaVuSans-20" transform="translate(338.033203 0)"/>
      <use xlink:href="#DejaVuSans-64" transform="translate(369.820312 0)"/>
      <use xlink:href="#DejaVuSans-65" transform="translate(433.296875 0)"/>
      <use xlink:href="#DejaVuSans-6e" transform="translate(494.820312 0)"/>
      <use xlink:href="#DejaVuSans-74" transform="translate(558.199219 0)"/>
      <use xlink:href="#DejaVuSans-69" transform="translate(597.408203 0)"/>
      <use xlink:href="#DejaVuSans-73" transform="translate(625.191406 0)"/>
      <use xlink:href="#DejaVuSans-74" transform="translate(677.291016 0)"/>
      <use xlink:href="#DejaVuSans-20" transform="translate(716.5 0)"/>
      <use xlink:href="#DejaVuSans-6f" transform="translate(748.287109 0)"/>
      <use xlink:href="#DejaVuSans-72" transform="translate(809.46875 0)"/>
      <use xlink:href="#DejaVuSans-20" transform="translate(850.582031 0)"/>
      <use xlink:href="#DejaVuSans-64" transform="translate(882.369141 0)"/>
      <use xlink:href="#DejaVuSans-65" transform="translate(945.845703 0)"/>
      <use xlink:href="#DejaVuSans-6e" transform="translate(1007.369141 0)"/>
      <use xlink:href="#DejaVuSans-74" transform="translate(1070.748047 0)"/>
      <use xlink:href="#DejaVuSans-61" transform="translate(1109.957031 0)"/>
      <use xlink:href="#DejaVuSans-6c" transform="translate(1171.236328 0)"/>
      <use xlink:href="#DejaVuSans-20" transform="translate(1199.019531 0)"/>
      <use xlink:href="#DejaVuSans-63" transform="translate(1230.806641 0)"/>
      <use xlink:href="#DejaVuSans-6c" transform="translate(1285.787109 0)"/>
      <use xlink:href="#DejaVuSans-69" transform="translate(1313.570312 0)"/>
      <use xlink:href="#DejaVuSans-6e" transform="translate(1341.353516 0)"/>
      <use xlink:href="#DejaVuSans-69" transform="translate(1404.732422 0)"/>
      <use xlink:href="#DejaVuSans-63" transform="translate(1432.515625 0)"/>
      <use xlink:href="#DejaVuSans-20" transform="translate(1487.496094 0)"/>
      <use xlink:href="#DejaVuSans-69" transform="translate(1519.283203 0)"/>
      <use xlink:href="#DejaVuSans-6e" transform="translate(1547.066406 0)"/>
      <use xlink:href="#DejaVuSans-20" transform="translate(1610.445312 0)"/>
      <use xlink:href="#DejaVuSans-74" transform="translate(1642.232422 0)"/>
      <use xlink:href="#DejaVuSans-68" transform="translate(1681.441406 0)"/>
      <use xlink:href="#DejaVuSans-65" transform="translate(1744.820312 0)"/>
      <use xlink:href="#DejaVuSans-20" transform="translate(1806.34375 0)"/>
      <use xlink:href="#DejaVuSans-70" transform="translate(1838.130859 0)"/>
      <use xlink:href="#DejaVuSans-61" transform="translate(1901.607422 0)"/>
      <use xlink:href="#DejaVuSans-73" transform="translate(1962.886719 0)"/>
      <use xlink:href="#DejaVuSans-74" transform="translate(2014.986328 0)"/>
      <use xlink:href="#DejaVuSans-20" transform="translate(2054.195312 0)"/>
      <use xlink:href="#DejaVuSans-79" transform="translate(2085.982422 0)"/>
      <use xlink:href="#DejaVuSans-65" transform="translate(2145.162109 0)"/>
      <use xlink:href="#DejaVuSans-61" transform="translate(2206.685547 0)"/>
      <use xlink:href="#DejaVuSans-72" transform="translate(2267.964844 0)"/>
      <use xlink:href="#DejaVuSans-20" transform="translate(2309.078125 0)"/>
      <use xlink:href="#DejaVuSans-61" transform="translate(2340.865234 0)"/>
      <use xlink:href="#DejaVuSans-6d" transform="translate(2402.144531 0)"/>
      <use xlink:href="#DejaVuSans-6f" transform="translate(2499.556641 0)"/>
      <use xlink:href="#DejaVuSans-6e" transform="translate(2560.738281 0)"/>
      <use xlink:href="#DejaVuSans-67" transform="translate(2624.117188 0)"/>
      <use xlink:href="#DejaVuSans-20" transform="translate(2687.59375 0)"/>
      <use xlink:href="#DejaVuSans-61" transform="translate(2719.380859 0)"/>
      <use xlink:href="#DejaVuSans-64" transform="translate(2780.660156 0)"/>
      <use xlink:href="#DejaVuSans-75" transform="translate(2844.136719 0)"/>
      <use xlink:href="#DejaVuSans-6c" transform="translate(2907.515625 0)"/>
      <use xlink:href="#DejaVuSans-74" transform="translate(2935.298828 0)"/>
      <use xlink:href="#DejaVuSans-73" transform="translate(2974.507812 0)"/>
     </g>
    </g>
   </g>
  </g>
 </g>
 <defs>
  <clipPath id="pcf6ec4a851">
   <rect x="40.603125" y="35.7555" width="664.63" height="304.321584"/>
  </clipPath>
 </defs>
</svg>
